<svg xmlns="http://www.w3.org/2000/svg" width="390.39" height="343.618" viewBox="0 0 390.39 343.618"><g transform="translate(752.17 4.297) rotate(90)" opacity="0.2"><path d="M-4.3,467.057a29.924,29.924,0,0,0,3.15-2.041c3.548,5.671,7.425,7.287,11.539,5.008a7.178,7.178,0,0,0,2.768-9.6c-.78-1.393-2.351-3.24-3.617-3.283-3.288-.111-6.608.661-10.379,1.141A12.279,12.279,0,0,0-4.3,454.563Z" transform="translate(0 153.448)" fill="#0a558c"/><path d="M-4.3,587.512H4.686a.37.37,0,0,1-.011-.093c.265-1.186,1.417-2.176,2.688-3.909,1,1.688,2.179,2.808,1.974,3.535a1.987,1.987,0,0,1-.249.467h14.14a2.44,2.44,0,0,1,.358-.149.829.829,0,0,1,.563.149H83.773L81.7,584.227a41.636,41.636,0,0,0,3.384-2.548c1.011-.937,1.86-2.049,2.89-3.208,1.863,6.555,5.379,9,10.257,7.407a7.024,7.024,0,0,0,4.172-9.6,8.456,8.456,0,0,0-3.665-3.827c-3.917-1.932-7.21.263-10.334,2.845l-3.41-5.942c5.472-4.331,6.926-8.192,4.355-11.913-.9-1.306-2.646-2.924-3.954-2.879-3.2.109-6.374,1.1-10.042,1.839a25.281,25.281,0,0,0-1.449-2.293c-.783-1.056-1.7-2.014-2.728-3.214.932-.563,1.643-.974,2.335-1.417a7.589,7.589,0,0,0,2.975-9.915c-1.579-3.222-5.382-4.644-9.148-3.421-4.872,1.579-5.775,1.152-7.842-3.713,5.294-4.368,6.589-8.214,4.05-12.03-2.582-3.883-6.55-3.888-13.341.069q-2.456-2.791-4.987-5.658c6.316-2.7,8.447-6.489,6.343-11.117-2.12-4.66-6.417-4.981-13.752-1.024-1.68-2.126-3.36-4.249-5.077-6.417,6.024-2.174,8.391-5.884,6.42-10.443a8.208,8.208,0,0,0-3.646-3.843c-3.909-1.9-7.248.122-10.323,2.877-1.353-2.322-2.431-4.167-3.477-5.958,5.565-4.48,6.868-8.45,4.246-12.261a7.563,7.563,0,0,0-9.554-2.163c-4.042,2.123-4.405,5.642-1.282,13.346-1.69,1.245-3.421,2.516-5.263,3.869-1.661-2.062-3.15-3.906-4.671-5.791,6.1-3.182,8.107-7.019,5.761-11.305-.762-1.391-2.4-3.243-3.641-3.243-3.4,0-6.81.87-10.692,1.47-.268-.308-.579-.663-.9-1.04V468.6l.847-.8,3.67,7.359-4.517,3v10.156c.406.594.815,1.186,1.207,1.76-.438.417-.828.759-1.207,1.083v60.155c.47-.38.95-.653,1.112-.571a24.21,24.21,0,0,1,3.941,3.036q-.215.768-.43,1.539c-1.369.289-2.932,1.109-4.047.7a1.476,1.476,0,0,1-.576-.454v11.178c.754.544,1.6,1.587,2.7,2.532-1.112.719-1.966,1.518-2.7,1.919Zm12.136-14.02c-.993-1.481-1.125-2.662.655-3.524,2.9-1.412,3.392,1.019,4.618,2.887C11.191,574.389,9.779,576.379,7.839,573.492Zm7.017-15.23c-1.595,1.5-3.336,1.046-4.514-.889-1.828-2.994,1.072-3.224,2.909-5.188C13.818,554.862,17.581,555.693,14.856,558.262Zm3.782-16.687c-.382,1.3-2.609,3.19-3.524,2.94-1.507-.414-2.6-2.341-4.729-4.509,2.779-1.061,4.5-2.282,6.069-2.1C17.382,538.008,18.932,540.576,18.637,541.574ZM25.2,578.72c-1.221-1.709-2.789-2.94-2.731-4.09.056-1.133,1.759-2.187,2.739-3.272,1.1,1.125,2.887,2.142,3.086,3.41C28.449,575.742,26.607,577.032,25.2,578.72Zm5.947-19.368c-.7,1.343-2.436,2.98-3.713,2.951s-2.484-1.956-4.522-3.753c2.739-1.181,4.443-2.274,6.25-2.487C29.749,556,31.482,558.71,31.15,559.352Zm2.495-15.8a6.33,6.33,0,0,1-3.58,3.373c-.632.215-3.142-2.338-2.922-2.9.618-1.576,2.211-2.776,3.97-4.74C32.291,541.16,33.95,542.713,33.645,543.554Zm7.022,37.066a5.762,5.762,0,0,1-3.256-3.782c-.162-.932,2.391-3.41,2.962-3.193,1.563.6,2.723,2.256,4.634,4.044C43.146,579.02,41.508,580.923,40.667,580.62Zm12.608.541c-2.4-3.649,1.584-3.684,2.991-5.91,1.425,2.028,2.614,3.715,3.962,5.634C57.612,582.966,55.536,584.6,53.275,581.161Zm22.045-19.567c1.043,2.165,2.065,4.291,3.174,6.6-1.778,1.319-3.492,2.6-5.44,4.039l-3.6-5.451C71.584,564.9,73.394,563.3,75.321,561.595Zm-2.956,16.316,3.681,4.793c-4.952,5.4-6.032,5.337-9.395-.687C68.606,580.609,70.361,579.349,72.364,577.911ZM61.913,544.549c1.515,1.982,2.821,3.689,4.4,5.745l-5.419,3.718c-1.359-1.895-2.6-3.625-4.105-5.724C58.532,547.015,60.135,545.847,61.913,544.549Zm-2.261,15.395c1.308,1.863,2.468,3.519,3.861,5.5l-5.8,3.779c-1.287-1.879-2.431-3.551-3.763-5.493C55.895,562.439,57.665,561.266,59.652,559.944ZM49.265,526.073l4.2,5.422c-5,5.17-5.743,5.071-9.058-1.269C45.884,528.966,47.416,527.655,49.265,526.073Zm-2.054,16.234c1.154,1.375,2.343,2.794,3.88,4.628-2.266,1.494-3.957,2.609-5.623,3.71C41.771,546.112,41.827,545.831,47.211,542.307Zm.6,20.012c-5.085,3.9-5.247,3.8-7.513.852-2-2.6-.024-3.431,1.619-4.392C46.11,556.33,45.558,561.154,47.814,562.319ZM34.627,509.442c.754-.772,1.393-1.651,2.166-2.582l3.845,6.985c-4.679,4.368-4.952,4.323-8.835-1.842C32.849,511.066,33.788,510.3,34.627,509.442Zm-3.161,16.576c2.8-2.16,4.007-.189,5.09,1.651,2.367,4.029-2.529,3.3-3.768,5.215C32.278,530.508,27.315,529.223,31.466,526.018Zm-6.95-37.645c1.168,2.357,2.38,4.809,3.721,7.513l-5.756,3.737c-1.353-1.988-2.566-3.766-3.869-5.679C20.668,492,22.65,490.135,24.516,488.373Zm-3.431,17.221c4.949,5.486,4.949,5.486-.942,9.092-1.282-1.831-2.449-3.5-3.888-5.557C17.939,507.9,19.524,506.737,21.084,505.594Zm-2.656,14.368c1.943,3.028,2.972,4.631,4.328,6.743-1.951.913-3.729,2.362-5.475,2.325-1-.021-2.938-2.664-2.7-3.747C14.957,523.531,16.78,522.1,18.428,519.961ZM9,487.168c1.438,1.951,2.641,3.583,4.015,5.446l-6.266,3.922c-1.168-1.542-2.3-3.033-3.609-4.761C5.092,490.236,6.86,488.845,9,487.168ZM5.825,502.924c1.428,2.041,2.556,3.657,3.795,5.427-2.76,2.049-4.809,4.44-7.131.65C.053,505.028,4.506,505.291,5.825,502.924ZM-.181,522.96c.61-1.414,2.431-2.3,3.745-3.415.934,1.176,2.739,2.465,2.6,3.5-.207,1.582-1.754,2.986-2.733,4.464-.539-.265-1.075-.534-1.611-.8C1.088,525.431-.531,523.77-.181,522.96Zm-1.027,17.871c-.831-.1-2.123-2.383-1.927-3.445.2-1.093,2.434-2.9,2.948-2.651,1.568.748,2.736,2.333,4.857,4.352C1.987,539.971.321,541.006-1.208,540.831Z" transform="translate(0 164.657)" fill="#0a558c"/><path d="M28.893,486.128c3.885,5.637,3.832,10.175.011,12.807a7.579,7.579,0,0,1-10.188-1.68Q14.456,491.221,23.251,485c-3.543-6.714-3.384-10.4.549-12.8a7.175,7.175,0,0,1,9.745,2.086C36.085,478.225,34.782,481.632,28.893,486.128Z" transform="translate(35.762 180.84)" fill="#0a558c"/><path d="M21.92,474.569c-6.454,3.784-10.074,3.7-12.754-.276a7.17,7.17,0,0,1,1.725-9.793c3.9-2.9,7.529-1.584,12.237,4.416,6.581-3.6,10.329-3.453,12.765.5a7.2,7.2,0,0,1-1.728,9.525C30.325,481.772,27.076,480.615,21.92,474.569Z" transform="translate(20.244 167.443)" fill="#0a558c"/><path d="M45.825,508.54c-6.2,4.026-10.27,3.885-12.924-.3a7.183,7.183,0,0,1,2.325-9.965c4.188-2.6,8.092-.847,11.6,5.217,5.857-4.068,10.053-4.143,12.722-.231a7.2,7.2,0,0,1-1.621,9.84C53.962,515.942,50.268,514.591,45.825,508.54Z" transform="translate(59.675 223.816)" fill="#0a558c"/><path d="M3.15,446.374A6.906,6.906,0,0,0-4.3,443.046v28.542a7.225,7.225,0,0,0,2.654-1.146c3.917-2.731,3.8-6.921-.361-12.722C4.174,453.619,5.679,450.309,3.15,446.374Z" transform="translate(0 134.106)" fill="#0a558c"/><path d="M19.543,466.576c4.395,5.175,4.6,9.74.751,12.587A7.166,7.166,0,0,1,10,477.335c-2.649-4.238-.929-8.123,4.381-11.122-.722-3.392-1.807-6.5-1.844-9.628-.016-1.33,1.932-3.052,3.386-3.952,3.137-1.937,7.2-.507,9.084,2.829C27.223,459.376,25.71,462.534,19.543,466.576Z" transform="translate(21.623 148.81)" fill="#0a558c"/><path d="M55.559,524.475a2.565,2.565,0,0,0,.512-1.42c-.125-3.129-1.436-6.21-2.338-9.591,5.032-3.657,6.329-7.123,3.665-10.939a6.783,6.783,0,0,0-9.694-1.744c-3.952,2.853-3.845,6.534.5,12.537-5.756,4.522-7.043,7.579-4.827,11.157Z" transform="translate(77.151 227.694)" fill="#0a558c"/><path d="M44.593,494.866c4.331,6.818,4.265,10.244-.257,13-3.283,2-7.29.878-9.487-2.662-2.434-3.922-.884-7.218,4.684-10.865-.852-3.137-2.081-6.014-2.227-8.943-.069-1.375,1.69-3.208,3.073-4.214,3.017-2.2,7.139-1.115,9.28,2.083C52.295,487.2,50.912,490.363,44.593,494.866Z" transform="translate(62.897 195.57)" fill="#0a558c"/><path d="M39.368,478.336c6.563-4.113,10.217-4.05,12.8.228A6.839,6.839,0,0,1,49.6,488.07c-3.978,2.335-7.457.693-10.607-4.575-3.317.836-6.4,2.1-9.517,2.179-1.414.034-3.256-2.049-4.251-3.593-1.982-3.068-.568-7.009,2.858-9.092C31.953,470.637,35.079,472.121,39.368,478.336Z" transform="translate(47.332 182.173)" fill="#0a558c"/><path d="M12.671,476.686c.231-4.148,3.352-6.889,7.622-6.7,4.286.191,7.11,3.484,6.77,7.9-.316,4.111-3.516,6.786-7.789,6.51C15.152,484.127,12.435,480.953,12.671,476.686Z" transform="translate(28.038 178.938)" fill="#0a558c"/><path d="M33.9,504.925a7.216,7.216,0,0,1,.035-14.431,7.216,7.216,0,1,1-.035,14.431Z" transform="translate(51.423 212.87)" fill="#0a558c"/><path d="M36.517,490.932a6.875,6.875,0,0,1-7.279,7.062,7.218,7.218,0,1,1,.316-14.431A6.873,6.873,0,0,1,36.517,490.932Z" transform="translate(43.623 201.404)" fill="#0a558c"/><path d="M42.172,492a7.116,7.116,0,1,1-6.749-7.287A7.092,7.092,0,0,1,42.172,492Z" transform="translate(53.318 203.302)" fill="#0a558c"/><path d="M39.918,491.364a7.112,7.112,0,1,1-7.258,6.781A7.057,7.057,0,0,1,39.918,491.364Z" transform="translate(61.108 214.308)" fill="#0a558c"/><path d="M5.38,449.505a7.1,7.1,0,1,1,.013,14.2,7.1,7.1,0,1,1-.013-14.2Z" transform="translate(4.269 145.083)" fill="#0a558c"/><path d="M39.216,516.776h8.856a7.107,7.107,0,1,0-8.856,0Z" transform="translate(67.532 235.393)" fill="#0a558c"/><path d="M9.92,470.663a7.117,7.117,0,1,1,7.293-6.749A7.1,7.1,0,0,1,9.92,470.663Z" transform="translate(12.055 156.537)" fill="#0a558c"/><path d="M30.36,492a7.111,7.111,0,1,1,7.094-7.317A7.083,7.083,0,0,1,30.36,492Z" transform="translate(45.526 191.843)" fill="#0a558c"/><path d="M43.256,485.929a7.493,7.493,0,0,1-6.945,7.16,7.1,7.1,0,1,1-.122-14.2A7.48,7.48,0,0,1,43.256,485.929Z" transform="translate(55.161 193.682)" fill="#0a558c"/><path d="M11.344,464.8a7.094,7.094,0,0,1-.464-14.18,7.094,7.094,0,1,1,.464,14.18Z" transform="translate(13.901 146.921)" fill="#0a558c"/><path d="M33.552,472.446a7.492,7.492,0,0,1-7.046,7.059,7.1,7.1,0,1,1,.077-14.2A7.5,7.5,0,0,1,33.552,472.446Z" transform="translate(39.114 171.219)" fill="#0a558c"/><path d="M45.48,492.479a7.09,7.09,0,1,1,.188,14.179,7.09,7.09,0,0,1-.188-14.179Z" transform="translate(70.76 216.154)" fill="#0a558c"/><path d="M28.825,465.559a7.476,7.476,0,0,1-7.184,7,7.088,7.088,0,1,1,.188-14.174A7.448,7.448,0,0,1,28.825,465.559Z" transform="translate(31.326 159.765)" fill="#0a558c"/><path d="M62.158,513.48c.005-.08.029-.156.032-.236a6.979,6.979,0,1,0-13.956-.141c0,.127.032.25.04.377Z" transform="translate(86.876 238.689)" fill="#0a558c"/><path d="M58.306,500.6a6.978,6.978,0,1,1-7.08-6.966A7.208,7.208,0,0,1,58.306,500.6Z" transform="translate(80.454 218.058)" fill="#0a558c"/><path d="M13.406,450.838a7.223,7.223,0,0,1-7.2,6.855,6.984,6.984,0,0,1,.255-13.964A7.218,7.218,0,0,1,13.406,450.838Z" transform="translate(6.176 135.529)" fill="#0a558c"/><path d="M19.217,451.872a7.214,7.214,0,0,1-7.126,6.919,6.976,6.976,0,0,1,.117-13.951A7.2,7.2,0,0,1,19.217,451.872Z" transform="translate(15.808 137.366)" fill="#0a558c"/><path d="M46.622,500.661a6.982,6.982,0,1,1,.173-13.962,6.982,6.982,0,0,1-.173,13.962Z" transform="translate(72.659 206.592)" fill="#0a558c"/><path d="M34.468,466.356a7.215,7.215,0,0,1-6.913,7.139,6.983,6.983,0,0,1-.316-13.962A7.222,7.222,0,0,1,34.468,466.356Z" transform="translate(41.025 161.659)" fill="#0a558c"/><path d="M22.6,452.6a6.978,6.978,0,1,1,.173,13.954A6.978,6.978,0,0,1,22.6,452.6Z" transform="translate(33.23 150.202)" fill="#0a558c"/><path d="M32.21,466.182a6.986,6.986,0,1,1-.2,13.97,6.986,6.986,0,0,1,.2-13.97Z" transform="translate(48.819 172.664)" fill="#0a558c"/><path d="M42.647,488.132a7.51,7.51,0,0,1-6.879-6.924c-.016-3.559,3.673-7.133,7.2-6.969,3.442.157,6.794,3.715,6.7,7.1C49.563,484.775,46.049,488.175,42.647,488.132Z" transform="translate(66.261 185.98)" fill="#0a558c"/><path d="M54.656,487.862a7.53,7.53,0,0,1-6.884,6.918,7.526,7.526,0,0,1-7.011-6.788c-.1-3.538,3.527-7.181,7.067-7.1A7.532,7.532,0,0,1,54.656,487.862Z" transform="translate(74.514 196.987)" fill="#0a558c"/><path d="M44.95,474.307a7.506,7.506,0,0,1-6.911,6.892,7.519,7.519,0,0,1-6.982-6.818c-.082-3.554,3.546-7.173,7.094-7.075A7.519,7.519,0,0,1,44.95,474.307Z" transform="translate(58.467 174.52)" fill="#0a558c"/><path d="M33.174,460.374c3.386-.074,6.929,3.309,7.062,6.741.13,3.376-3.211,6.966-6.645,7.149-3.524.186-7.232-3.354-7.248-6.918A7.54,7.54,0,0,1,33.174,460.374Z" transform="translate(50.673 163.056)" fill="#0a558c"/><path d="M.2,437.088a6.766,6.766,0,0,0-4.5,1.86v10.183a6.8,6.8,0,0,0,4.464,1.852,7.521,7.521,0,0,0,6.873-6.929A7.526,7.526,0,0,0,.2,437.088Z" transform="translate(0 124.545)" fill="#0a558c"/><path d="M59.1,494.6a6.785,6.785,0,1,1-6.847-6.722A6.934,6.934,0,0,1,59.1,494.6Z" transform="translate(82.407 208.547)" fill="#0a558c"/><path d="M14.2,444.72a6.952,6.952,0,0,1-6.741,6.836,6.789,6.789,0,1,1-.1-13.577A6.952,6.952,0,0,1,14.2,444.72Z" transform="translate(8.133 126.021)" fill="#0a558c"/><path d="M56.061,500.355a6.791,6.791,0,1,1-6.926,6.653A6.952,6.952,0,0,1,56.061,500.355Z" transform="translate(88.365 229.177)" fill="#0a558c"/><path d="M17.935,459.6a6.791,6.791,0,0,1,.021-13.582,6.791,6.791,0,0,1-.021,13.582Z" transform="translate(25.553 139.314)" fill="#0a558c"/><path d="M35.264,460.58a6.945,6.945,0,0,1-6.8,6.778,6.789,6.789,0,0,1,.024-13.577A6.946,6.946,0,0,1,35.264,460.58Z" transform="translate(42.978 152.155)" fill="#0a558c"/><path d="M48.386,475.241c4.052.061,6.507,2.686,6.359,6.8-.141,3.9-2.651,6.239-6.616,6.178-4.047-.058-6.512-2.694-6.361-6.8C41.908,477.52,44.416,475.18,48.386,475.241Z" transform="translate(76.171 187.643)" fill="#0a558c"/><path d="M23.29,459.95c-4.029-.143-6.42-2.837-6.189-6.969.218-3.861,2.8-6.154,6.778-6.016,4.023.141,6.42,2.837,6.186,6.972C29.851,457.8,27.268,460.091,23.29,459.95Z" transform="translate(35.364 140.872)" fill="#0a558c"/><path d="M8.714,438.038c-.053,3.968-2.513,6.377-6.5,6.369-4.108-.011-6.605-2.63-6.462-6.778.135-3.925,2.686-6.287,6.682-6.186C6.384,431.544,8.767,434.046,8.714,438.038Z" transform="translate(0.067 115.206)" fill="#0a558c"/><path d="M39,461.657c4.044.082,6.483,2.725,6.311,6.844-.162,3.891-2.686,6.213-6.658,6.133-4.042-.08-6.486-2.731-6.313-6.847C32.508,463.9,35.029,461.575,39,461.657Z" transform="translate(60.583 165.177)" fill="#0a558c"/><path d="M56.85,507.626c-3.954.008-6.409-2.375-6.494-6.306-.088-4.105,2.41-6.677,6.491-6.677,3.957,0,6.412,2.383,6.5,6.308C63.432,505.058,60.943,507.618,56.85,507.626Z" transform="translate(90.384 219.735)" fill="#0a558c"/><path d="M19.264,445.7c0,4.082-2.572,6.579-6.68,6.491-3.925-.088-6.316-2.548-6.308-6.5.011-4.087,2.58-6.581,6.682-6.491C16.883,439.285,19.267,441.743,19.264,445.7Z" transform="translate(17.486 128.037)" fill="#0a558c"/><path d="M18.732,440.314c3.962.069,6.356,2.54,6.332,6.534-.027,4.1-2.659,6.581-6.807,6.422-3.912-.149-6.263-2.715-6.152-6.714C12.217,442.615,14.73,440.247,18.732,440.314Z" transform="translate(27.12 129.88)" fill="#0a558c"/><path d="M59.449,488.734c-.034,3.975-2.484,6.4-6.47,6.406-4.113.008-6.627-2.6-6.5-6.743.119-3.933,2.641-6.292,6.656-6.223C57.085,482.24,59.486,484.735,59.449,488.734Z" transform="translate(83.969 199.109)" fill="#0a558c"/><path d="M66.29,511.346c-.828-2.431-2.911-3.88-5.9-3.949-3.161-.072-5.4,1.409-6.276,3.949Z" transform="translate(96.602 240.823)" fill="#0a558c"/><path d="M43.391,481.571c-4.047-.072-6.5-2.712-6.337-6.828.154-3.893,2.672-6.228,6.643-6.157,4.05.072,6.5,2.712,6.34,6.826C49.885,479.3,47.353,481.643,43.391,481.571Z" transform="translate(68.375 176.637)" fill="#0a558c"/><path d="M27.626,461.4c.04-3.973,2.495-6.393,6.483-6.393,4.1,0,6.619,2.619,6.486,6.762-.125,3.93-2.662,6.295-6.669,6.207C29.972,467.891,27.584,465.4,27.626,461.4Z" transform="translate(52.795 154.177)" fill="#0a558c"/><path d="M68.034,508.1c-.019,3.981-2.447,6.414-6.428,6.438-4.119.024-6.637-2.561-6.531-6.7.1-3.944,2.609-6.316,6.611-6.255C65.643,501.642,68.052,504.118,68.034,508.1Z" transform="translate(98.186 231.205)" fill="#0a558c"/><path d="M64.4,495.218a6.464,6.464,0,1,1-6.542-6.385A6.267,6.267,0,0,1,64.4,495.218Z" transform="translate(92.237 210.125)" fill="#0a558c"/><path d="M55.8,476.015a6.457,6.457,0,1,1-6.329-6.584A6.266,6.266,0,0,1,55.8,476.015Z" transform="translate(78.03 178.035)" fill="#0a558c"/><path d="M29.074,461.005a6.462,6.462,0,1,1,.064-12.924,6.462,6.462,0,1,1-.064,12.924Z" transform="translate(44.556 142.728)" fill="#0a558c"/><path d="M44.654,475.691a6.457,6.457,0,1,1,6.43-6.489A6.256,6.256,0,0,1,44.654,475.691Z" transform="translate(70.235 167.032)" fill="#0a558c"/><path d="M14.5,439.033A6.286,6.286,0,0,1,7.75,445.2a6.466,6.466,0,1,1,.579-12.919A6.282,6.282,0,0,1,14.5,439.033Z" transform="translate(9.709 116.593)" fill="#0a558c"/><path d="M62.784,495.769a6.456,6.456,0,1,1-6.589,6.4A6.47,6.47,0,0,1,62.784,495.769Z" transform="translate(100.042 221.593)" fill="#0a558c"/><path d="M30.843,447.779a6.456,6.456,0,1,1-6.369-6.621A6.473,6.473,0,0,1,30.843,447.779Z" transform="translate(36.766 131.276)" fill="#0a558c"/><path d="M40.018,455.849a6.457,6.457,0,1,1-6.558,6.436A6.46,6.46,0,0,1,40.018,455.849Z" transform="translate(62.444 155.572)" fill="#0a558c"/><path d="M54.19,476.363a6.456,6.456,0,1,1-6.589,6.4A6.47,6.47,0,0,1,54.19,476.363Z" transform="translate(85.829 189.499)" fill="#0a558c"/><path d="M59.993,477.508a6.363,6.363,0,1,1-6.534,6.093A6.43,6.43,0,0,1,59.993,477.508Z" transform="translate(95.511 191.39)" fill="#0a558c"/><path d="M55.094,470.573a6.368,6.368,0,1,1-6.353,6.284A6.436,6.436,0,0,1,55.094,470.573Z" transform="translate(87.716 179.926)" fill="#0a558c"/><path d="M-4.3,419.031v11.133A6.417,6.417,0,0,0-.919,424.88,6.426,6.426,0,0,0-4.3,419.031Z" transform="translate(0 94.684)" fill="#0a558c"/><path d="M70.07,496.18a6.37,6.37,0,1,1-6.446-6.2A6.449,6.449,0,0,1,70.07,496.18Z" transform="translate(101.924 212.018)" fill="#0a558c"/><path d="M56.763,470.2a6.37,6.37,0,1,1-6.356-6.284A6.438,6.438,0,0,1,56.763,470.2Z" transform="translate(79.917 168.923)" fill="#0a558c"/><path d="M13.76,446.182a6.382,6.382,0,1,1,.279-12.76,6.382,6.382,0,0,1-.279,12.76Z" transform="translate(19.391 118.478)" fill="#0a558c"/><path d="M64.7,496.873a6.357,6.357,0,1,1,6.189-6.436A6.447,6.447,0,0,1,64.7,496.873Z" transform="translate(103.305 202.398)" fill="#0a558c"/><path d="M26,440.78a6.372,6.372,0,1,1-6.4-6.247A6.443,6.443,0,0,1,26,440.78Z" transform="translate(29.023 120.322)" fill="#0a558c"/><path d="M65.093,489.669a6.377,6.377,0,1,1-6.316-6.348A6.443,6.443,0,0,1,65.093,489.669Z" transform="translate(93.667 201.009)" fill="#0a558c"/><path d="M21.259,433.926a6.357,6.357,0,1,1-12.712-.106,6.439,6.439,0,0,1,6.409-6.213A6.433,6.433,0,0,1,21.259,433.926Z" transform="translate(21.239 108.867)" fill="#0a558c"/><path d="M25.591,435.647a6.361,6.361,0,1,1-6.51,6.114A6.429,6.429,0,0,1,25.591,435.647Z" transform="translate(38.657 122.161)" fill="#0a558c"/><path d="M41.255,455.476a6.38,6.38,0,1,1-6.412-6.253A6.454,6.454,0,0,1,41.255,455.476Z" transform="translate(54.235 144.616)" fill="#0a558c"/><path d="M74.769,503.207a6.361,6.361,0,1,1-6.329-6.295A6.431,6.431,0,0,1,74.769,503.207Z" transform="translate(109.722 223.486)" fill="#0a558c"/><path d="M9,426.772a6.367,6.367,0,0,1,.35,12.728A6.367,6.367,0,1,1,9,426.772Z" transform="translate(11.607 107.486)" fill="#0a558c"/><path d="M45.348,456.989a6.367,6.367,0,1,1-6.311,6.329A6.436,6.436,0,0,1,45.348,456.989Z" transform="translate(71.667 157.46)" fill="#0a558c"/><path d="M9.641,432.171a6.44,6.44,0,0,1-6.417,6.237A6.374,6.374,0,1,1,3.5,425.663,6.448,6.448,0,0,1,9.641,432.171Z" transform="translate(1.971 105.646)" fill="#0a558c"/><path d="M36.527,448.622a6.37,6.37,0,1,1-6.321-6.327A6.433,6.433,0,0,1,36.527,448.622Z" transform="translate(46.447 133.159)" fill="#0a558c"/><path d="M47.05,456.392a6.362,6.362,0,1,1-6.3-6.332A6.436,6.436,0,0,1,47.05,456.392Z" transform="translate(63.875 146.001)" fill="#0a558c"/><path d="M29.615,449.765a6.357,6.357,0,1,1,6.266,6.351A6.431,6.431,0,0,1,29.615,449.765Z" transform="translate(56.085 135.001)" fill="#0a558c"/><path d="M73.677,509.036a6.372,6.372,0,1,1-6.34-6.305A6.433,6.433,0,0,1,73.677,509.036Z" transform="translate(107.881 233.108)" fill="#0a558c"/><path d="M52.687,457.378a6.249,6.249,0,1,1-6.425-6.165A6.241,6.241,0,0,1,52.687,457.378Z" transform="translate(73.573 147.904)" fill="#0a558c"/><path d="M57.4,464.269a6.249,6.249,0,1,1-6.465-6.125A6.232,6.232,0,0,1,57.4,464.269Z" transform="translate(81.368 159.365)" fill="#0a558c"/><path d="M56.031,464.8a6.249,6.249,0,1,1-6.136,6.451A6.231,6.231,0,0,1,56.031,464.8Z" transform="translate(89.619 170.371)" fill="#0a558c"/><path d="M31.029,449.017a6.25,6.25,0,1,1,6.412-6.181A6.245,6.245,0,0,1,31.029,449.017Z" transform="translate(48.355 123.605)" fill="#0a558c"/><path d="M79.3,509.746a6.248,6.248,0,1,1-6.449-6.136A6.236,6.236,0,0,1,79.3,509.746Z" transform="translate(117.589 234.558)" fill="#0a558c"/><path d="M26.9,434.926a6.245,6.245,0,1,1-6.412-6.167A6.21,6.21,0,0,1,26.9,434.926Z" transform="translate(30.933 110.768)" fill="#0a558c"/><path d="M10.549,426.05a6.249,6.249,0,1,1-6.425-6.162A6.24,6.24,0,0,1,10.549,426.05Z" transform="translate(3.884 96.096)" fill="#0a558c"/><path d="M60.72,484.223a6.249,6.249,0,1,1,6.382-6.2A6.24,6.24,0,0,1,60.72,484.223Z" transform="translate(97.413 181.832)" fill="#0a558c"/><path d="M69.007,491.134a6.248,6.248,0,1,1-6.08,6.5A6.23,6.23,0,0,1,69.007,491.134Z" transform="translate(111.167 213.927)" fill="#0a558c"/><path d="M80.353,503.836a6.215,6.215,0,1,1-6.2-6.037A6.529,6.529,0,0,1,80.353,503.836Z" transform="translate(119.443 224.953)" fill="#0a558c"/><path d="M36.948,450.065a6.211,6.211,0,1,1,.088-12.423,6.211,6.211,0,1,1-.088,12.423Z" transform="translate(58.005 125.463)" fill="#0a558c"/><path d="M41.972,444.3a6.22,6.22,0,0,1-.533,12.428,6.22,6.22,0,0,1,.533-12.428Z" transform="translate(65.8 136.464)" fill="#0a558c"/><path d="M32.672,435.972a6.53,6.53,0,0,1-6.279,6.335,6.214,6.214,0,1,1,.13-12.428A6.547,6.547,0,0,1,32.672,435.972Z" transform="translate(40.584 112.624)" fill="#0a558c"/><path d="M16.317,427.232a6.523,6.523,0,0,1-6.4,6.207,6.218,6.218,0,0,1,.377-12.431A6.555,6.555,0,0,1,16.317,427.232Z" transform="translate(13.533 97.95)" fill="#0a558c"/><path d="M71.766,484.569a6.218,6.218,0,1,1-6.075-6.175A6.521,6.521,0,0,1,71.766,484.569Z" transform="translate(105.228 192.856)" fill="#0a558c"/><path d="M70.316,497.749a6.213,6.213,0,1,1,6.154-6.451A6.567,6.567,0,0,1,70.316,497.749Z" transform="translate(113.023 204.321)" fill="#0a558c"/><path d="M15.963,421.9a6.056,6.056,0,1,1-6.194,5.915A6.067,6.067,0,0,1,15.963,421.9Z" transform="translate(23.26 99.426)" fill="#0a558c"/><path d="M-4.058,413.034c-.082-.005-.159.013-.239.013v12.064a6.064,6.064,0,0,0,6.027-5.769A6.05,6.05,0,0,0-4.058,413.034Z" transform="translate(0 84.764)" fill="#0a558c"/><path d="M62.909,465.122a6.056,6.056,0,1,1-6.037-6.075A6.049,6.049,0,0,1,62.909,465.122Z" transform="translate(91.116 160.864)" fill="#0a558c"/><path d="M52.164,464.5a6.056,6.056,0,1,1,6.032-6.08A6.05,6.05,0,0,1,52.164,464.5Z" transform="translate(83.322 149.859)" fill="#0a558c"/><path d="M61.495,465.977a6.056,6.056,0,1,1-5.982,6.122A6.058,6.058,0,0,1,61.495,465.977Z" transform="translate(98.915 172.324)" fill="#0a558c"/><path d="M66.391,472.636a6.046,6.046,0,0,1,.316,12.088,6.046,6.046,0,0,1-.316-12.088Z" transform="translate(107.171 183.334)" fill="#0a558c"/><path d="M75.354,515.649h6.741a6.3,6.3,0,0,0,2.691-4.668,6.53,6.53,0,0,0-5.714-6.178,6.473,6.473,0,0,0-6.367,5.892A6.322,6.322,0,0,0,75.354,515.649Z" transform="translate(127.345 236.52)" fill="#0a558c"/><path d="M26.138,436.555a6.447,6.447,0,0,1,6.475-5.762,6.514,6.514,0,0,1,5.594,6.282c-.162,3.118-3.437,6.03-6.483,5.759A6.49,6.49,0,0,1,26.138,436.555Z" transform="translate(50.324 114.109)" fill="#0a558c"/><path d="M74.881,504.406a6.044,6.044,0,1,1-.029-12.088,6.044,6.044,0,1,1,.029,12.088Z" transform="translate(120.923 215.888)" fill="#0a558c"/><path d="M27.4,428.895a6.47,6.47,0,0,1-6.067,6.2,6.04,6.04,0,1,1,.053-12.08A6.517,6.517,0,0,1,27.4,428.895Z" transform="translate(32.438 101.271)" fill="#0a558c"/><path d="M47.486,445.467a6.044,6.044,0,1,1-.122,12.088,6.044,6.044,0,1,1,.122-12.088Z" transform="translate(75.532 138.405)" fill="#0a558c"/><path d="M10.561,420.018A5.529,5.529,0,0,1,4.8,425.742a5.744,5.744,0,1,1,.04-11.489A5.527,5.527,0,0,1,10.561,420.018Z" transform="translate(5.573 86.784)" fill="#0a558c"/><path d="M58.769,452.36a5.727,5.727,0,1,1-5.878-5.663A5.5,5.5,0,0,1,58.769,452.36Z" transform="translate(85.36 140.436)" fill="#0a558c"/><path d="M48.264,444.638a5.53,5.53,0,0,1-5.711,5.777,5.744,5.744,0,1,1-.064-11.488A5.527,5.527,0,0,1,48.264,444.638Z" transform="translate(67.928 127.588)" fill="#0a558c"/><path d="M68.2,465.907a5.729,5.729,0,1,1-5.921-5.626A5.5,5.5,0,0,1,68.2,465.907Z" transform="translate(100.948 162.899)" fill="#0a558c"/><path d="M16.371,421.276a5.544,5.544,0,0,1-6,5.562,5.74,5.74,0,0,1,.348-11.472A5.531,5.531,0,0,1,16.371,421.276Z" transform="translate(15.207 88.622)" fill="#0a558c"/><path d="M72.912,472.825a5.729,5.729,0,1,1-5.942-5.613A5.505,5.505,0,0,1,72.912,472.825Z" transform="translate(108.742 174.362)" fill="#0a558c"/><path d="M43.251,437.772a5.5,5.5,0,0,1-5.86,5.687A5.729,5.729,0,0,1,37.474,432,5.506,5.506,0,0,1,43.251,437.772Z" transform="translate(59.683 116.136)" fill="#0a558c"/><path d="M76.82,485.253a5.747,5.747,0,1,1-5.91-5.57A5.532,5.532,0,0,1,76.82,485.253Z" transform="translate(115.15 194.987)" fill="#0a558c"/><path d="M57.673,464.808a5.732,5.732,0,1,1,5.817-5.735A5.51,5.51,0,0,1,57.673,464.808Z" transform="translate(93.152 151.435)" fill="#0a558c"/><path d="M32.716,430.021a5.5,5.5,0,0,1-5.868,5.682,5.733,5.733,0,0,1,.1-11.465A5.508,5.508,0,0,1,32.716,430.021Z" transform="translate(42.259 103.295)" fill="#0a558c"/><path d="M85.387,504.993a5.73,5.73,0,1,1-5.647-5.9A5.531,5.531,0,0,1,85.387,504.993Z" transform="translate(129.374 227.089)" fill="#0a558c"/><path d="M81.508,492.319a5.73,5.73,0,1,1-5.844-5.7A5.508,5.508,0,0,1,81.508,492.319Z" transform="translate(122.954 206.456)" fill="#0a558c"/><path d="M54.713,439.689a5.619,5.619,0,1,1-5.443-5.7A5.481,5.481,0,0,1,54.713,439.689Z" transform="translate(79.008 119.412)" fill="#0a558c"/><path d="M48.924,438.928a5.64,5.64,0,1,1-5.4-5.78A5.5,5.5,0,0,1,48.924,438.928Z" transform="translate(69.368 118.023)" fill="#0a558c"/><path d="M11.493,414.172a5.5,5.5,0,0,1-5.6,5.573,5.636,5.636,0,1,1,.122-11.271A5.505,5.505,0,0,1,11.493,414.172Z" transform="translate(7.476 77.222)" fill="#0a558c"/><path d="M-1.845,407.644a5.937,5.937,0,0,0-2.452.417V418.5a5.882,5.882,0,0,0,2.1.425,5.51,5.51,0,0,0,5.727-5.467A5.512,5.512,0,0,0-1.845,407.644Z" transform="translate(0 75.843)" fill="#0a558c"/><path d="M78.57,473.85a5.629,5.629,0,1,1-5.393-5.767A5.5,5.5,0,0,1,78.57,473.85Z" transform="translate(118.432 175.8)" fill="#0a558c"/><path d="M33.659,424a5.628,5.628,0,1,1-5.616-5.544A5.5,5.5,0,0,1,33.659,424Z" transform="translate(44.159 93.735)" fill="#0a558c"/><path d="M22.387,428.617a5.638,5.638,0,1,1-.154-11.274,5.638,5.638,0,0,1,.154,11.274Z" transform="translate(34.522 91.894)" fill="#0a558c"/><path d="M71.959,485.183a5.646,5.646,0,1,1,5.539-5.931A5.5,5.5,0,0,1,71.959,485.183Z" transform="translate(116.582 185.416)" fill="#0a558c"/><path d="M22.05,421.817a5.521,5.521,0,0,1-5.767,5.711,5.65,5.65,0,1,1,.239-11.3A5.51,5.51,0,0,1,22.05,421.817Z" transform="translate(24.89 90.051)" fill="#0a558c"/><path d="M83.268,480.726a5.621,5.621,0,1,1-5.43-5.711A5.477,5.477,0,0,1,83.268,480.726Z" transform="translate(126.228 187.267)" fill="#0a558c"/><path d="M89.636,513.561a5.949,5.949,0,0,0,.318-1.693,5.641,5.641,0,0,0-11.268-.533,5.951,5.951,0,0,0,.292,2.227Z" transform="translate(137.224 238.608)" fill="#0a558c"/><path d="M58.915,447.841a5.632,5.632,0,1,1-5.738,5.432A5.5,5.5,0,0,1,58.915,447.841Z" transform="translate(95.047 142.328)" fill="#0a558c"/><path d="M85.283,511.49a5.627,5.627,0,1,1,5.485-5.679A5.5,5.5,0,0,1,85.283,511.49Z" transform="translate(138.605 228.986)" fill="#0a558c"/><path d="M69.147,460.218A5.631,5.631,0,1,1,63.7,454.5,5.483,5.483,0,0,1,69.147,460.218Z" transform="translate(102.839 153.332)" fill="#0a558c"/><path d="M38.4,430.662a5.643,5.643,0,1,1-5.629-5.557A5.507,5.507,0,0,1,38.4,430.662Z" transform="translate(51.943 104.729)" fill="#0a558c"/><path d="M82.463,486.551A5.636,5.636,0,1,1,77,480.83,5.484,5.484,0,0,1,82.463,486.551Z" transform="translate(124.845 196.884)" fill="#0a558c"/><path d="M59.441,446.534a5.628,5.628,0,1,1-5.536-5.618A5.494,5.494,0,0,1,59.441,446.534Z" transform="translate(86.798 130.876)" fill="#0a558c"/><path d="M38.718,426.22a5.629,5.629,0,1,1-5.775,5.382A5.494,5.494,0,0,1,38.718,426.22Z" transform="translate(61.581 106.57)" fill="#0a558c"/><path d="M53.65,445.461A5.646,5.646,0,1,1,48.2,439.8,5.509,5.509,0,0,1,53.65,445.461Z" transform="translate(77.159 129.024)" fill="#0a558c"/><path d="M86.077,498.845a5.643,5.643,0,1,1-5.645-5.544A5.494,5.494,0,0,1,86.077,498.845Z" transform="translate(130.799 217.514)" fill="#0a558c"/><path d="M73.868,467.1a5.635,5.635,0,1,1-5.507-5.671A5.5,5.5,0,0,1,73.868,467.1Z" transform="translate(110.634 164.794)" fill="#0a558c"/><path d="M11.635,420.838a5.627,5.627,0,1,1,.257-11.25,5.627,5.627,0,0,1-.257,11.25Z" transform="translate(17.11 79.061)" fill="#0a558c"/><path d="M81.261,498.735a5.628,5.628,0,1,1,5.894-5.255A5.508,5.508,0,0,1,81.261,498.735Z" transform="translate(132.645 207.895)" fill="#0a558c"/><path d="M17.5,421.894a5.594,5.594,0,1,1,.141-11.186,5.594,5.594,0,0,1-.141,11.186Z" transform="translate(26.759 80.916)" fill="#0a558c"/><path d="M74.733,461.145a5.484,5.484,0,1,1-5.305-5.486A5.677,5.677,0,0,1,74.733,461.145Z" transform="translate(112.563 155.257)" fill="#0a558c"/><path d="M33.6,430.592a5.488,5.488,0,0,1,.337-10.971,5.488,5.488,0,0,1-.337,10.971Z" transform="translate(53.875 95.655)" fill="#0a558c"/><path d="M69.745,454.065a5.486,5.486,0,1,1-5.448-5.337A5.661,5.661,0,0,1,69.745,454.065Z" transform="translate(104.309 143.798)" fill="#0a558c"/><path d="M86.192,494.469a5.486,5.486,0,1,1-5.515,5.276A5.66,5.66,0,0,1,86.192,494.469Z" transform="translate(140.527 219.446)" fill="#0a558c"/><path d="M44.373,427.381a5.483,5.483,0,1,1-5.554,5.231A5.669,5.669,0,0,1,44.373,427.381Z" transform="translate(71.296 108.493)" fill="#0a558c"/><path d="M.96,401.878A5.684,5.684,0,0,0-4.3,405.559v3.649a5.708,5.708,0,0,0,4.992,3.638A5.486,5.486,0,1,0,.96,401.878Z" transform="translate(0 66.313)" fill="#0a558c"/><path d="M88.03,487.306a5.48,5.48,0,1,1-5.191-5.584A5.64,5.64,0,0,1,88.03,487.306Z" transform="translate(134.57 198.353)" fill="#0a558c"/><path d="M90.706,501.409a5.958,5.958,0,0,1,5.623,5.217,5.47,5.47,0,1,1-5.623-5.217Z" transform="translate(148.335 230.918)" fill="#0a558c"/><path d="M95.46,512.081a5.453,5.453,0,0,0-10.886,0Z" transform="translate(146.978 240.088)" fill="#0a558c"/><path d="M39.535,431.4A5.47,5.47,0,1,1,39.8,420.46a5.471,5.471,0,0,1-.263,10.936Z" transform="translate(63.515 97.039)" fill="#0a558c"/><path d="M23.186,422.54a5.48,5.48,0,1,1,.263-10.955,5.48,5.48,0,0,1-.263,10.955Z" transform="translate(36.459 82.362)" fill="#0a558c"/><path d="M60.3,440.757a5.942,5.942,0,0,1-5.512,5.334,5.893,5.893,0,0,1-5.424-5.783,5.957,5.957,0,0,1,5.69-5.156A5.961,5.961,0,0,1,60.3,440.757Z" transform="translate(88.727 121.337)" fill="#0a558c"/><path d="M65.02,447.6A5.936,5.936,0,0,1,59.6,453.03a5.887,5.887,0,0,1-5.528-5.7,5.954,5.954,0,0,1,5.608-5.255A5.944,5.944,0,0,1,65.02,447.6Z" transform="translate(96.518 132.797)" fill="#0a558c"/><path d="M79.435,467.882a5.938,5.938,0,0,1-5.472,5.385,5.9,5.9,0,0,1-5.477-5.746,5.975,5.975,0,0,1,5.658-5.2A5.948,5.948,0,0,1,79.435,467.882Z" transform="translate(120.358 166.267)" fill="#0a558c"/><path d="M7.043,402.715a5.945,5.945,0,0,1,5.3,5.552,5.89,5.89,0,0,1-5.825,5.382,5.474,5.474,0,0,1,.525-10.934Z" transform="translate(9.408 67.695)" fill="#0a558c"/><path d="M78.931,469.253A5.95,5.95,0,0,1,84.14,474.9a5.884,5.884,0,0,1-5.918,5.276,5.471,5.471,0,0,1,.709-10.918Z" transform="translate(128.158 177.732)" fill="#0a558c"/><path d="M92.718,494.384a5.949,5.949,0,0,1-5.637,5.207,5.47,5.47,0,1,1,.528-10.926A5.944,5.944,0,0,1,92.718,494.384Z" transform="translate(142.376 209.828)" fill="#0a558c"/><path d="M18.154,409.179a5.961,5.961,0,0,1-5.265,5.581,5.47,5.47,0,1,1-.223-10.936A5.95,5.95,0,0,1,18.154,409.179Z" transform="translate(19.042 69.532)" fill="#0a558c"/><path d="M55.323,433.8a5.311,5.311,0,1,1-5.47-5.241A5.458,5.458,0,0,1,55.323,433.8Z" transform="translate(81.035 110.435)" fill="#0a558c"/><path d="M70.553,448.281a5.3,5.3,0,1,1-5.385-5.3A5.445,5.445,0,0,1,70.553,448.281Z" transform="translate(106.258 134.284)" fill="#0a558c"/><path d="M23.711,410.424a5.467,5.467,0,0,1-5.52,5.177,5.306,5.306,0,0,1,.249-10.607A5.472,5.472,0,0,1,23.711,410.424Z" transform="translate(28.771 71.469)" fill="#0a558c"/><path d="M83.414,486.864a5.315,5.315,0,1,1,5.18-5.541A5.46,5.46,0,0,1,83.414,486.864Z" transform="translate(136.052 189.292)" fill="#0a558c"/><path d="M97.164,501.118a5.3,5.3,0,1,1-5.217-5.47A5.465,5.465,0,0,1,97.164,501.118Z" transform="translate(150.274 221.395)" fill="#0a558c"/><path d="M34.862,413.868a5.3,5.3,0,1,1-5.4,5.284A5.458,5.458,0,0,1,34.862,413.868Z" transform="translate(55.827 86.143)" fill="#0a558c"/><path d="M28.922,423.381a5.315,5.315,0,1,1,.226-10.626,5.315,5.315,0,0,1-.226,10.626Z" transform="translate(46.189 84.299)" fill="#0a558c"/><path d="M70,460.511a5.3,5.3,0,1,1,5.27-5.427A5.447,5.447,0,0,1,70,460.511Z" transform="translate(114.051 145.743)" fill="#0a558c"/><path d="M87.856,482.9a5.3,5.3,0,1,1-5.167,5.523A5.448,5.448,0,0,1,87.856,482.9Z" transform="translate(143.852 200.305)" fill="#0a558c"/><path d="M80.258,462.261a5.3,5.3,0,1,1-5.265-5.424A5.46,5.46,0,0,1,80.258,462.261Z" transform="translate(122.303 157.209)" fill="#0a558c"/><path d="M50.1,426.7a4.659,4.659,0,0,1-5.058,5.034,4.632,4.632,0,0,1-4.931-5.148c.117-3.084,1.778-4.732,4.862-4.841A4.639,4.639,0,0,1,50.1,426.7Z" transform="translate(73.438 99.171)" fill="#0a558c"/><path d="M60.46,446.43a5,5,0,1,1-.035-9.989c3.073.082,4.774,1.69,4.915,4.785A4.654,4.654,0,0,1,60.46,446.43Z" transform="translate(98.653 123.472)" fill="#0a558c"/><path d="M6.844,401.377a4.637,4.637,0,0,1-5.228,4.843c-3.092-.162-4.692-1.868-4.75-4.941a4.63,4.63,0,0,1,5.037-5.04A4.652,4.652,0,0,1,6.844,401.377Z" transform="translate(1.921 56.99)" fill="#0a558c"/><path d="M79.443,463.6a5,5,0,1,1-.119,9.989c-3.086-.119-4.729-1.781-4.833-4.867A4.617,4.617,0,0,1,79.443,463.6Z" transform="translate(130.294 168.398)" fill="#0a558c"/><path d="M50.68,434.175a4.916,4.916,0,1,1,4.541,5.18A4.692,4.692,0,0,1,50.68,434.175Z" transform="translate(90.909 112.057)" fill="#0a558c"/><path d="M70.785,454.036a4.9,4.9,0,1,1,4.939-4.769A4.655,4.655,0,0,1,70.785,454.036Z" transform="translate(116.137 136.364)" fill="#0a558c"/><path d="M12.263,401.949a4.68,4.68,0,0,1-4.756,4.973A4.911,4.911,0,1,1,7.38,397.1,4.674,4.674,0,0,1,12.263,401.949Z" transform="translate(11.133 58.419)" fill="#0a558c"/><path d="M13.317,398.217a4.9,4.9,0,1,1-.48,9.793,4.9,4.9,0,0,1,.48-9.793Z" transform="translate(20.769 60.258)" fill="#0a558c"/><path d="M89.049,475.563a4.912,4.912,0,0,1-9.822.021,4.912,4.912,0,1,1,9.822-.021Z" transform="translate(138.134 179.914)" fill="#0a558c"/><path d="M80.438,456.128a4.9,4.9,0,1,1-4.748-4.96A4.658,4.658,0,0,1,80.438,456.128Z" transform="translate(123.931 147.828)" fill="#0a558c"/><path d="M28.624,410.749A4.7,4.7,0,0,1,23.94,415.8a4.919,4.919,0,1,1-.281-9.832A4.7,4.7,0,0,1,28.624,410.749Z" transform="translate(38.184 73.086)" fill="#0a558c"/><path d="M34.428,412.142a4.67,4.67,0,0,1-4.96,4.753,4.906,4.906,0,1,1,.3-9.806A4.68,4.68,0,0,1,34.428,412.142Z" transform="translate(47.817 74.925)" fill="#0a558c"/><path d="M93.753,482.28a4.907,4.907,0,1,1-4.66-5.053A4.671,4.671,0,0,1,93.753,482.28Z" transform="translate(145.932 190.922)" fill="#0a558c"/><path d="M44.968,419.906a4.673,4.673,0,0,1-4.963,4.756,4.909,4.909,0,1,1,.3-9.811A4.684,4.684,0,0,1,44.968,419.906Z" transform="translate(65.237 87.761)" fill="#0a558c"/><path d="M101.238,507.531a4.907,4.907,0,1,1-4.636-5.074A4.668,4.668,0,0,1,101.238,507.531Z" transform="translate(158.312 232.646)" fill="#0a558c"/><path d="M85.147,462.705a4.9,4.9,0,1,1-4.814-4.883A4.662,4.662,0,0,1,85.147,462.705Z" transform="translate(131.726 158.837)" fill="#0a558c"/><path d="M92.831,499.783a4.906,4.906,0,1,1,4.806-4.907A4.658,4.658,0,0,1,92.831,499.783Z" transform="translate(152.35 212.008)" fill="#0a558c"/><path d="M55.771,427.739a4.9,4.9,0,1,1-4.862-4.851A4.668,4.668,0,0,1,55.771,427.739Z" transform="translate(83.122 101.063)" fill="#0a558c"/><path d="M70.951,442.321a5.024,5.024,0,0,1-5.109,4.708,4.91,4.91,0,0,1-4.583-5.194,4.707,4.707,0,0,1,4.888-4.506A4.924,4.924,0,0,1,70.951,442.321Z" transform="translate(108.368 124.943)" fill="#0a558c"/><path d="M18.8,409.057A5.016,5.016,0,0,1,14.1,403.94a4.908,4.908,0,0,1,5.2-4.567,4.7,4.7,0,0,1,4.49,4.9A4.909,4.909,0,0,1,18.8,409.057Z" transform="translate(30.421 62.12)" fill="#0a558c"/><path d="M97.276,496.648a5,5,0,0,1,4.989,4.817,4.891,4.891,0,0,1-4.907,4.87,4.7,4.7,0,0,1-4.78-4.612A4.9,4.9,0,0,1,97.276,496.648Z" transform="translate(160.183 223.047)" fill="#0a558c"/><path d="M98.378,489.095a4.9,4.9,0,0,1-5.013,4.764,4.694,4.694,0,0,1-4.673-4.713,4.9,4.9,0,0,1,4.806-4.973A4.993,4.993,0,0,1,98.378,489.095Z" transform="translate(153.77 202.416)" fill="#0a558c"/><path d="M66.229,435.407a4.9,4.9,0,0,1-4.827,4.952,4.7,4.7,0,0,1-4.857-4.527,4.923,4.923,0,0,1,4.615-5.162A5.018,5.018,0,0,1,66.229,435.407Z" transform="translate(100.577 113.925)" fill="#0a558c"/><path d="M40.17,413.2a5.016,5.016,0,0,1-5.093,4.713,4.9,4.9,0,0,1-4.588-5.178,4.7,4.7,0,0,1,4.875-4.511A4.915,4.915,0,0,1,40.17,413.2Z" transform="translate(57.48 76.805)" fill="#0a558c"/><path d="M45.708,425.687a5.018,5.018,0,0,1-4.713-5.093,4.9,4.9,0,0,1,5.18-4.588,4.7,4.7,0,0,1,4.509,4.875A4.911,4.911,0,0,1,45.708,425.687Z" transform="translate(74.895 89.631)" fill="#0a558c"/><path d="M85.075,474.481a5.019,5.019,0,0,1-4.716-5.1,4.9,4.9,0,0,1,5.183-4.588,4.7,4.7,0,0,1,4.512,4.878A4.91,4.91,0,0,1,85.075,474.481Z" transform="translate(139.998 170.323)" fill="#0a558c"/><path d="M94.632,476.429c-.549,2.741-2.075,4.445-4.955,4.466a4.7,4.7,0,0,1-4.517-5.162c.441-2.779,2.2-4.458,5.042-4.233C93.024,471.723,94.436,473.626,94.632,476.429Z" transform="translate(147.872 181.426)" fill="#0a558c"/><path d="M30.556,401.31c2.752.417,4.61,1.89,4.634,4.729.021,2.821-1.73,4.5-4.533,4.753a4.705,4.705,0,0,1-4.849-4.83C26.039,403.13,27.788,401.671,30.556,401.31Z" transform="translate(49.769 65.376)" fill="#0a558c"/><path d="M2.868,390.512a4.738,4.738,0,0,1-.552,9.458A4.58,4.58,0,0,1-2.2,395.151C-2.27,392.678.055,390.5,2.868,390.512Z" transform="translate(3.469 47.518)" fill="#0a558c"/><path d="M81.279,450.508c-.353,2.426-1.826,4.286-4.673,4.318-2.832.037-4.517-1.712-4.777-4.522a4.788,4.788,0,0,1,4.822-4.9A5,5,0,0,1,81.279,450.508Z" transform="translate(125.873 138.299)" fill="#0a558c"/><path d="M13.131,396.288c-.361,2.779-1.823,4.527-4.663,4.753a4.7,4.7,0,0,1-4.838-4.859c.252-2.81,1.94-4.559,4.769-4.538C11.244,391.668,12.722,393.528,13.131,396.288Z" transform="translate(13.086 49.39)" fill="#0a558c"/><path d="M45.84,413.962c-.494,2.733-1.993,4.453-4.854,4.543a4.7,4.7,0,0,1-4.626-5.05c.382-2.779,2.118-4.5,4.949-4.336C44.126,409.275,45.57,411.164,45.84,413.962Z" transform="translate(67.183 78.273)" fill="#0a558c"/><path d="M14.023,392.44c2.773.318,4.533,1.765,4.809,4.58a4.7,4.7,0,0,1-4.774,4.9c-2.813-.2-4.573-1.879-4.6-4.687C9.432,394.391,11.284,392.9,14.023,392.44Z" transform="translate(22.748 50.707)" fill="#0a558c"/><path d="M71.894,436.651c-.475,2.736-1.964,4.464-4.817,4.578a4.7,4.7,0,0,1-4.66-5.013c.364-2.779,2.094-4.5,4.915-4.366S71.594,433.87,71.894,436.651Z" transform="translate(110.283 115.873)" fill="#0a558c"/><path d="M81.247,452.04c2.768.385,4.631,1.855,4.681,4.695s-1.7,4.522-4.5,4.8a4.713,4.713,0,0,1-4.894-4.8C76.738,453.9,78.482,452.427,81.247,452.04Z" transform="translate(133.67 149.275)" fill="#0a558c"/><path d="M56.316,422.3a4.728,4.728,0,0,1-9.424-.762,4.6,4.6,0,0,1,4.918-4.4C54.265,417.129,56.4,419.544,56.316,422.3Z" transform="translate(84.607 91.557)" fill="#0a558c"/><path d="M90.7,464.1a4.729,4.729,0,0,1-9.434-.626A4.6,4.6,0,0,1,86.112,459C88.559,458.946,90.73,461.318,90.7,464.1Z" transform="translate(141.461 160.787)" fill="#0a558c"/><path d="M103.18,495.864a4.731,4.731,0,0,1-9.453-.379,4.593,4.593,0,0,1,4.729-4.6C100.9,490.758,103.135,493.07,103.18,495.864Z" transform="translate(162.096 213.507)" fill="#0a558c"/><path d="M102.157,513.13c-2.784-.313-4.543-1.762-4.822-4.586a4.7,4.7,0,0,1,4.777-4.9c2.818.2,4.583,1.868,4.61,4.687C106.745,511.171,104.9,512.663,102.157,513.13Z" transform="translate(168.053 234.597)" fill="#0a558c"/><path d="M72.055,438.461c2.733.555,4.437,2.078,4.458,4.949a4.694,4.694,0,0,1-5.151,4.509c-2.768-.44-4.453-2.2-4.228-5.034C67.357,440.075,69.26,438.663,72.055,438.461Z" transform="translate(118.102 126.818)" fill="#0a558c"/><path d="M94.66,478.378c2.741.475,4.466,1.964,4.581,4.819a4.7,4.7,0,0,1-5.016,4.663c-2.784-.361-4.5-2.091-4.368-4.918S91.876,478.675,94.66,478.378Z" transform="translate(155.702 192.834)" fill="#0a558c"/><path d="M56.171,423.761c2.789.311,4.554,1.76,4.825,4.594a4.7,4.7,0,0,1-4.79,4.915c-2.832-.2-4.588-1.874-4.615-4.7C51.564,425.709,53.413,424.217,56.171,423.761Z" transform="translate(92.427 102.507)" fill="#0a558c"/><path d="M62.46,424.894c2.42.342,4.281,1.81,4.334,4.636s-1.7,4.509-4.488,4.788a4.807,4.807,0,0,1-4.91-4.788A5.008,5.008,0,0,1,62.46,424.894Z" transform="translate(102.029 104.38)" fill="#0a558c"/><path d="M29.446,405.619a4.74,4.74,0,0,1-9.456-.634,4.6,4.6,0,0,1,4.862-4.482C27.309,400.452,29.48,402.822,29.446,405.619Z" transform="translate(40.129 64.04)" fill="#0a558c"/><path d="M95.421,470.155a4.546,4.546,0,0,1-4.543,4.689,4.476,4.476,0,0,1-4.581-4.631,4.334,4.334,0,0,1,4.347-4.49A4.475,4.475,0,0,1,95.421,470.155Z" transform="translate(149.819 171.878)" fill="#0a558c"/><path d="M103.74,489.993a4.545,4.545,0,0,1-4.708,4.52,4.474,4.474,0,0,1-4.408-4.8,4.313,4.313,0,0,1,4.5-4.315A4.468,4.468,0,0,1,103.74,489.993Z" transform="translate(163.57 204.443)" fill="#0a558c"/><path d="M102.8,506.983a4.55,4.55,0,0,1-4.3-4.907,4.481,4.481,0,0,1,4.995-4.172A4.319,4.319,0,0,1,107.6,502.6,4.464,4.464,0,0,1,102.8,506.983Z" transform="translate(169.985 225.065)" fill="#0a558c"/><path d="M19.908,393.628a4.544,4.544,0,0,1,4.538,4.689,4.476,4.476,0,0,1-4.777,4.427,4.332,4.332,0,0,1-4.339-4.49A4.471,4.471,0,0,1,19.908,393.628Z" transform="translate(32.449 52.671)" fill="#0a558c"/><path d="M40.8,407.027a4.545,4.545,0,0,1-4.623,4.6,4.477,4.477,0,0,1-4.488-4.713,4.33,4.33,0,0,1,4.429-4.395A4.465,4.465,0,0,1,40.8,407.027Z" transform="translate(59.498 67.353)" fill="#0a558c"/><path d="M51.337,414.924a4.477,4.477,0,0,1-4.75,4.456,4.324,4.324,0,0,1-4.366-4.458,4.475,4.475,0,0,1,4.546-4.66A4.556,4.556,0,0,1,51.337,414.924Z" transform="translate(76.922 80.18)" fill="#0a558c"/><path d="M57.256,418.029c2.587.419,4.254,1.818,4.456,4.485a4.544,4.544,0,0,1-4.676,4.543c-2.614-.31-4.312-1.921-4.243-4.583S54.658,418.422,57.256,418.029Z" transform="translate(94.413 93.027)" fill="#0a558c"/><path d="M94.464,472.555c3.734.748,5.39,2.166,5.5,4.854a4.535,4.535,0,0,1-4.811,4.395c-2.6-.4-4.543-2.144-4-4.679C91.534,475.294,93.506,473.8,94.464,472.555Z" transform="translate(157.695 183.204)" fill="#0a558c"/><path d="M72.433,441.213c-2.582-.1-4.172-1.343-4.278-3.973-.106-2.574,1.2-4.214,3.835-4.355,2.757-.143,4.408,1.279,4.453,4.1C76.488,439.6,75,440.969,72.433,441.213Z" transform="translate(119.813 117.58)" fill="#0a558c"/><path d="M86.187,450.51c-.1,2.556-1.348,4.14-3.981,4.241-2.574.1-4.212-1.218-4.344-3.848-.138-2.76,1.292-4.4,4.111-4.443C84.592,446.423,85.961,447.907,86.187,450.51Z" transform="translate(135.861 140.046)" fill="#0a558c"/><path d="M81.479,444.03c-.2,2.614-1.574,4.095-4.188,4.076-2.818-.024-4.27-1.656-4.145-4.421.119-2.625,1.741-3.965,4.323-3.877C80.1,439.9,81.367,441.466,81.479,444.03Z" transform="translate(128.065 129.038)" fill="#0a558c"/><path d="M90.9,457.532c-.162,2.582-1.473,4.121-4.1,4.145-2.8.026-4.312-1.542-4.233-4.323.074-2.619,1.629-4,4.23-3.962C89.433,453.432,90.738,454.953,90.9,457.532Z" transform="translate(143.658 151.511)" fill="#0a558c"/><path d="M25.473,394.875c2.725.252,4.174,1.656,4.119,4.265-.058,2.821-1.722,4.228-4.477,4.071-2.643-.151-3.914-1.823-3.811-4.381C21.412,396.178,23.06,395,25.473,394.875Z" transform="translate(42.329 54.734)" fill="#0a558c"/><path d="M51.731,408.716c-.284,2.566-1.637,4.135-4.259,4.058a4.075,4.075,0,0,1,.04-8.147C50.147,404.594,51.468,406.163,51.731,408.716Z" transform="translate(79.052 70.86)" fill="#0a558c"/><path d="M99.831,479.709c2.755.305,4.334,1.669,4.257,4.3a4.1,4.1,0,0,1-8.2-.04C95.845,481.3,97.493,480.046,99.831,479.709Z" transform="translate(165.692 195.035)" fill="#0a558c"/><path d="M56.477,415.534c-.2,2.569-1.5,4.177-4.137,4.212a3.742,3.742,0,0,1-4.121-3.792,3.79,3.79,0,0,1,3.883-4.4C54.72,411.417,56.137,412.951,56.477,415.534Z" transform="translate(86.832 82.306)" fill="#0a558c"/><path d="M31.276,395.721c2.577.3,4.137,1.672,4.044,4.3a3.771,3.771,0,0,1-4.312,3.952,3.742,3.742,0,0,1-3.867-4.042C27.128,397.295,28.707,395.968,31.276,395.721Z" transform="translate(51.993 56.133)" fill="#0a558c"/><path d="M67.6,426.212c2.582.3,4.148,1.677,4.055,4.307a3.782,3.782,0,0,1-4.323,3.962,3.752,3.752,0,0,1-3.875-4.052C63.441,427.791,65.025,426.459,67.6,426.212Z" transform="translate(112.049 106.56)" fill="#0a558c"/><path d="M82.9,440.915c2.558.17,4.2,1.433,4.246,4.06a4.078,4.078,0,0,1-8.147.353C78.85,442.719,80.331,441.286,82.9,440.915Z" transform="translate(137.736 130.876)" fill="#0a558c"/><path d="M45.962,407.8c-.329,2.733-1.72,4.27-4.35,4.188A3.737,3.737,0,0,1,37.674,408a3.8,3.8,0,0,1,4.076-4.22C44.412,403.753,45.668,405.422,45.962,407.8Z" transform="translate(69.413 69.468)" fill="#0a558c"/><path d="M108.846,490.5c-.284,2.569-1.64,4.14-4.265,4.063a4.079,4.079,0,0,1,.042-8.155C107.262,486.374,108.581,487.943,108.846,490.5Z" transform="translate(173.497 206.111)" fill="#0a558c"/><path d="M14.925,386.853c2.574.3,4.127,1.682,4.026,4.3a3.764,3.764,0,0,1-4.318,3.933,3.737,3.737,0,0,1-3.845-4.05C10.783,388.408,12.364,387.089,14.925,386.853Z" transform="translate(24.948 41.467)" fill="#0a558c"/><path d="M8.934,386.017c2.572.194,4.206,1.483,4.222,4.124a3.775,3.775,0,0,1-4.143,4.14,3.75,3.75,0,0,1-4.047-3.875C4.842,387.784,6.354,386.365,8.934,386.017Z" transform="translate(15.308 40.084)" fill="#0a558c"/><path d="M2.415,393.811C1.3,392.245-.454,390.8-.775,389.087c-.459-2.463,1.332-4.1,3.906-4.153s4.435,1.51,4.071,3.991c-.252,1.728-1.951,3.24-3,4.849Z" transform="translate(5.706 38.291)" fill="#0a558c"/><path d="M107.766,496.437c-.348,2.585-1.767,4.1-4.392,3.981a4.1,4.1,0,0,1,.255-8.2C106.277,492.231,107.556,493.879,107.766,496.437Z" transform="translate(171.653 215.726)" fill="#0a558c"/><path d="M62.716,427.559c-2.577-.345-4.082-1.76-3.965-4.376a3.733,3.733,0,0,1,4.031-3.869,3.764,3.764,0,0,1,4.14,4.122C66.911,426.076,65.269,427.35,62.716,427.559Z" transform="translate(104.26 95.152)" fill="#0a558c"/><path d="M100.276,471.091c-.348,2.7-1.767,4.2-4.384,4.084A4.092,4.092,0,0,1,96.131,467C98.793,466.991,100.021,468.676,100.276,471.091Z" transform="translate(159.279 174.01)" fill="#0a558c"/><path d="M91.259,460.312c2.572.186,4.214,1.473,4.238,4.113a4.1,4.1,0,0,1-8.2.292C87.167,462.1,88.68,460.668,91.259,460.312Z" transform="translate(151.476 162.956)" fill="#0a558c"/><path d="M107.163,504.941c2.768.218,4.373,1.513,4.411,4.151a3.74,3.74,0,0,1-3.792,4.116,3.8,3.8,0,0,1-4.4-3.877C103.233,506.685,104.844,505.352,107.163,504.941Z" transform="translate(178.07 236.765)" fill="#0a558c"/><path d="M107.43,507.719c-1-1.545-2.651-3.017-2.834-4.652-.284-2.526,1.608-4.047,4.2-3.848,2.4.186,4.039,1.879,3.506,4.175-.38,1.627-2.1,2.943-3.227,4.4Z" transform="translate(180.043 227.272)" fill="#0a558c"/><path d="M72.531,435.686c-1.091-1.478-2.834-2.842-3.118-4.461-.438-2.5,1.351-4.135,3.949-4.1,2.407.037,4.14,1.619,3.753,3.938-.276,1.645-1.916,3.065-2.946,4.583C73.622,435.662,73.075,435.673,72.531,435.686Z" transform="translate(121.795 108.073)" fill="#0a558c"/><path d="M108.436,501.9c-1.043-1.5-2.694-2.9-2.986-4.541-.411-2.309,1.306-3.906,3.7-3.967,2.585-.066,4.392,1.547,3.981,4.042-.265,1.619-2,3-3.073,4.482Z" transform="translate(181.402 217.657)" fill="#0a558c"/><path d="M73.178,425.056c-1.465,1.107-2.8,2.813-4.424,3.171-2.29.5-3.965-1.154-4.121-3.545-.17-2.58,1.369-4.458,3.883-4.145,1.629.2,3.078,1.876,4.607,2.89Q73.15,424.242,73.178,425.056Z" transform="translate(113.977 97.117)" fill="#0a558c"/><path d="M62.662,417.3c-1.468,1.109-2.8,2.824-4.432,3.185-2.3.507-3.983-1.144-4.135-3.548-.162-2.577,1.353-4.482,3.888-4.164,1.64.207,3.094,1.876,4.628,2.893C62.63,416.207,62.646,416.754,62.662,417.3Z" transform="translate(96.552 84.273)" fill="#0a558c"/><path d="M106.594,480.429c1.03,1.515,2.667,2.93,2.943,4.57.385,2.312-1.34,3.9-3.745,3.925-2.58.032-4.381-1.59-3.941-4.082.287-1.619,2.03-2.98,3.121-4.456Z" transform="translate(175.442 196.156)" fill="#0a558c"/><path d="M27.1,388.9c1.1,1.473,2.848,2.826,3.137,4.44.449,2.489-1.332,4.132-3.925,4.108-2.407-.021-4.137-1.606-3.763-3.914.265-1.645,1.9-3.068,2.922-4.589Z" transform="translate(44.321 44.856)" fill="#0a558c"/><path d="M97.035,459.163c-1.468,1.107-2.8,2.818-4.435,3.177-2.3.5-3.973-1.155-4.129-3.554-.17-2.587,1.367-4.469,3.891-4.153,1.635.2,3.086,1.876,4.618,2.893Z" transform="translate(153.401 153.506)" fill="#0a558c"/><path d="M25.2,392.87c-1.518,1.038-2.94,2.731-4.573,2.962-2.524.358-4.087-1.5-3.962-4.092.114-2.407,1.77-4.084,4.076-3.617,1.637.334,3,2.02,4.485,3.1C25.214,391.774,25.206,392.321,25.2,392.87Z" transform="translate(34.653 43.438)" fill="#0a558c"/><path d="M86.95,456.21c-1.093-1.481-2.837-2.848-3.124-4.469-.438-2.5,1.353-4.137,3.954-4.1,2.415.035,4.148,1.619,3.758,3.944-.276,1.648-1.916,3.068-2.946,4.588Z" transform="translate(145.632 141.998)" fill="#0a558c"/><path d="M41.556,401.7c-1.513,1.046-2.914,2.7-4.559,2.994-2.319.414-3.922-1.306-3.981-3.715-.066-2.6,1.547-4.413,4.055-4,1.627.271,3.009,2,4.5,3.081C41.567,400.609,41.562,401.156,41.556,401.7Z" transform="translate(61.706 58.124)" fill="#0a558c"/><path d="M8.827,383.886c-1.491,1.061-2.871,2.728-4.506,3.039-2.3.438-3.925-1.266-4.01-3.657-.093-2.582,1.5-4.411,4-4.026,1.621.249,3.015,1.964,4.512,3.023C8.824,382.8,8.827,383.345,8.827,383.886Z" transform="translate(7.613 28.795)" fill="#0a558c"/><path d="M42.1,406.566c-1.107-1.462-2.813-2.792-3.169-4.419-.5-2.285,1.157-3.957,3.54-4.113,2.572-.17,4.448,1.372,4.137,3.877-.2,1.632-1.879,3.079-2.9,4.607Z" transform="translate(71.35 59.937)" fill="#0a558c"/><path d="M.265,382.233c-.358-1.63-2.07-2.959-3.179-4.424l-1.383.05v8.466a5.627,5.627,0,0,0,1.022.035C-.879,386.206.769,384.523.265,382.233Z" transform="translate(0 26.51)" fill="#0a558c"/><path d="M100.323,482.556c-1.107-1.468-2.818-2.8-3.177-4.435-.5-2.3,1.152-3.978,3.554-4.135,2.59-.17,4.472,1.369,4.156,3.9-.2,1.635-1.876,3.086-2.893,4.62Q101.143,482.527,100.323,482.556Z" transform="translate(167.62 185.551)" fill="#0a558c"/><path d="M96.441,469.784c-1.107-1.465-2.816-2.8-3.171-4.424-.5-2.29,1.154-3.965,3.543-4.121,2.58-.17,4.458,1.369,4.145,3.883-.2,1.629-1.876,3.078-2.89,4.607Z" transform="translate(161.209 164.468)" fill="#0a558c"/><path d="M57.917,410.355c-1.46,1.1-2.789,2.813-4.416,3.169-2.285.5-3.957-1.157-4.113-3.54-.17-2.574,1.369-4.448,3.877-4.137,1.627.2,3.07,1.874,4.6,2.887C57.88,409.275,57.9,409.814,57.917,410.355Z" transform="translate(88.765 72.822)" fill="#0a558c"/><path d="M78.875,433.842c1.04,1.515,2.733,2.94,2.964,4.57.358,2.524-1.5,4.087-4.092,3.965-2.407-.117-4.084-1.773-3.617-4.079.334-1.64,2.025-3,3.108-4.49Z" transform="translate(129.575 119.123)" fill="#0a558c"/><path d="M107.369,471.645c-2.442,1.959-3.957,4.087-5.188,3.933-1.55-.194-2.866-2.253-4.283-3.506,1.2-1.353,2.306-3.678,3.617-3.8C103,468.139,104.67,469.978,107.369,471.645Z" transform="translate(169.012 176.112)" fill="#0a558c"/><path d="M15.608,384.3c-2.686,1.677-4.342,3.527-5.833,3.4-1.311-.109-2.434-2.431-3.638-3.776,1.409-1.263,2.715-3.333,4.262-3.535C11.632,380.233,13.158,382.356,15.608,384.3Z" transform="translate(17.254 30.768)" fill="#0a558c"/><path d="M83.313,432.568c-1.407,1.035-2.885,2.967-4.2,2.858-1.38-.117-2.6-2.179-3.888-3.391,1.213-1.29,2.3-3.424,3.673-3.623,1.3-.188,2.893,1.648,4.358,2.6C83.278,431.528,83.294,432.048,83.313,432.568Z" transform="translate(131.523 110.177)" fill="#0a558c"/><path d="M117.429,510.2c-1.407,1.038-2.89,2.978-4.2,2.869-1.385-.117-2.611-2.184-3.9-3.4,1.213-1.3,2.3-3.437,3.681-3.641,1.3-.191,2.9,1.653,4.371,2.6C117.394,509.154,117.41,509.677,117.429,510.2Z" transform="translate(187.91 238.544)" fill="#0a558c"/><path d="M68.084,417.885c-1.409,1.035-2.893,2.972-4.206,2.863-1.385-.117-2.606-2.187-3.9-3.4,1.218-1.292,2.314-3.437,3.684-3.63,1.314-.186,2.911,1.656,4.384,2.609Z" transform="translate(106.298 85.873)" fill="#0a558c"/><path d="M82.9,443.168c-1.035-1.406-2.975-2.887-2.864-4.2.114-1.385,2.15-3.588,3.4-3.628s3.426,2.027,3.628,3.4c.191,1.3-1.653,2.9-2.6,4.368Z" transform="translate(139.463 121.659)" fill="#0a558c"/><path d="M16.264,381.018c.945,1.468,2.784,3.065,2.593,4.363-.2,1.372-2.338,2.457-3.63,3.67-1.21-1.3-3.272-2.516-3.386-3.9-.109-1.308,1.828-2.787,2.863-4.188Z" transform="translate(26.68 31.729)" fill="#0a558c"/><path d="M27.944,392.739c1.47-.945,3.076-2.781,4.376-2.588,1.375.2,2.457,2.349,3.668,3.644-1.3,1.2-2.526,3.267-3.909,3.373-1.319.1-2.8-1.831-4.2-2.869Z" transform="translate(53.207 46.899)" fill="#0a558c"/><path d="M92.745,446.157c-1.407,1.035-2.887,2.97-4.2,2.858-1.383-.117-2.6-2.181-3.893-3.394,1.213-1.29,2.3-3.426,3.678-3.625,1.3-.191,2.9,1.651,4.363,2.6Q92.718,445.374,92.745,446.157Z" transform="translate(147.108 132.641)" fill="#0a558c"/><path d="M94.166,448.665c.942,1.468,2.776,3.068,2.585,4.368-.207,1.369-2.343,2.452-3.638,3.66-1.2-1.3-3.254-2.518-3.368-3.9-.1-1.311,1.823-2.784,2.858-4.185Z" transform="translate(155.522 143.598)" fill="#0a558c"/><path d="M73.121,428.7c-.865-1.33-2.447-2.694-2.388-3.981.05-1.16,2.043-3.238,2.927-3.113a4.84,4.84,0,0,1,3.421,3.063c.2,1.178-1.465,2.67-2.309,4.023Z" transform="translate(124.084 98.938)" fill="#0a558c"/><path d="M106.472,490.408c1.3-.924,2.683-2.675,3.864-2.548a4.849,4.849,0,0,1,3.275,3.224c.178.884-1.773,3.009-2.919,3.126-1.292.133-2.752-1.364-4.14-2.155Z" transform="translate(183.193 208.505)" fill="#0a558c"/><path d="M70.085,414.687c.828,1.348,2.476,2.845,2.266,4a4.853,4.853,0,0,1-3.423,3.044c-.884.117-2.858-1.964-2.9-3.121-.053-1.285,1.529-2.635,2.4-3.954C68.979,414.669,69.531,414.677,70.085,414.687Z" transform="translate(116.298 87.457)" fill="#0a558c"/><path d="M25.769,390.63c-.786-1.372-2.386-2.919-2.139-4.071a4.855,4.855,0,0,1,3.522-2.922c.878-.093,2.787,2.051,2.792,3.2.005,1.284-1.616,2.58-2.529,3.869Z" transform="translate(46.144 36.143)" fill="#0a558c"/><path d="M114.932,486.091c-1.348.828-2.84,2.471-4,2.261a4.828,4.828,0,0,1-3.033-3.415c-.119-.881,1.959-2.85,3.113-2.9,1.279-.053,2.627,1.526,3.946,2.4Q114.942,485.263,114.932,486.091Z" transform="translate(185.545 198.886)" fill="#0a558c"/><path d="M59.515,406.907c.847,1.346,2.513,2.832,2.314,4a4.867,4.867,0,0,1-3.4,3.086c-.876.13-2.877-1.943-2.935-3.1-.066-1.287,1.5-2.656,2.359-3.991Z" transform="translate(98.873 74.615)" fill="#0a558c"/><path d="M21.869,382.26c.825,1.353,2.362,2.76,2.269,4.047-.085,1.152-2.144,3.166-3.017,3.012a4.861,4.861,0,0,1-3.325-3.166c-.167-1.173,1.539-2.614,2.418-3.936Q21.041,382.238,21.869,382.26Z" transform="translate(36.518 33.801)" fill="#0a558c"/><path d="M110.273,479.089c-1.335.862-2.8,2.548-3.967,2.362a4.861,4.861,0,0,1-3.126-3.365c-.138-.881,1.9-2.917,3.052-2.983,1.3-.074,2.68,1.483,4.029,2.33Q110.264,478.261,110.273,479.089Z" transform="translate(177.736 187.412)" fill="#0a558c"/><path d="M48.731,398.874c.841,1.351,2.5,2.845,2.3,4.013a4.863,4.863,0,0,1-3.423,3.071c-.886.125-2.879-1.959-2.932-3.121-.058-1.287,1.526-2.651,2.394-3.983Z" transform="translate(80.985 61.313)" fill="#0a558c"/><path d="M106.347,466.707c-1.351.825-2.755,2.357-4.039,2.261-1.149-.085-3.158-2.136-3-3.009a4.853,4.853,0,0,1,3.158-3.317c1.165-.17,2.6,1.531,3.92,2.407Z" transform="translate(171.325 166.789)" fill="#0a558c"/><path d="M101.658,459.769c-1.353.833-2.856,2.487-4.018,2.277a4.856,4.856,0,0,1-3.055-3.437c-.119-.886,1.972-2.869,3.132-2.914,1.287-.053,2.643,1.536,3.967,2.412Z" transform="translate(163.526 155.319)" fill="#0a558c"/><path d="M41.253,395.269c-1.311.894-2.638,2.5-3.928,2.471-1.157-.027-3.283-1.98-3.174-2.853a4.877,4.877,0,0,1,3-3.49c1.165-.226,2.691,1.407,4.06,2.221C41.224,394.168,41.237,394.72,41.253,395.269Z" transform="translate(63.581 48.947)" fill="#0a558c"/><path d="M117.712,504.487c-1.372.8-2.808,2.312-4.095,2.192-1.146-.106-3.116-2.2-2.948-3.084a4.824,4.824,0,0,1,3.222-3.256c1.184-.138,2.587,1.592,3.893,2.5C117.759,503.391,117.735,503.937,117.712,504.487Z" transform="translate(190.116 229.141)" fill="#0a558c"/><path d="M119.234,497.758c-2.256,1.454-3.638,3.047-4.756,2.877-1.189-.18-2.967-2.057-2.93-3.142s1.943-2.837,3.137-2.93C115.818,494.475,117.09,496.158,119.234,497.758Z" transform="translate(191.588 219.596)" fill="#0a558c"/><path d="M89.106,444.038c-1.545-2.189-3.19-3.506-3.068-4.626.13-1.194,1.927-3.049,3.009-3.06s2.911,1.818,3.06,3.007C92.245,440.482,90.621,441.823,89.106,444.038Z" transform="translate(149.388 123.332)" fill="#0a558c"/><path d="M84.5,437.374c-1.59-2.142-3.264-3.416-3.171-4.546.1-1.191,1.852-3.092,2.932-3.126s2.964,1.752,3.129,2.93C87.546,433.759,85.951,435.136,84.5,437.374Z" transform="translate(141.599 112.33)" fill="#0a558c"/><path d="M98.431,446.476c-2.245,1.444-3.628,3.033-4.748,2.866-1.184-.178-2.962-2.054-2.925-3.137s1.94-2.837,3.132-2.927C95.023,443.19,96.289,444.873,98.431,446.476Z" transform="translate(157.205 134.779)" fill="#0a558c"/><path d="M10.371,382.48c-1.542-2.184-3.185-3.495-3.063-4.615.13-1.191,1.924-3.044,3-3.055s2.909,1.815,3.055,3C13.5,378.932,11.883,380.27,10.371,382.48Z" transform="translate(19.182 21.552)" fill="#0a558c"/><path d="M107.344,477.294c-1.643-2.1-3.354-3.339-3.288-4.472.069-1.2,1.781-3.139,2.863-3.2s3,1.68,3.2,2.858C110.311,473.6,108.748,475.017,107.344,477.294Z" transform="translate(179.195 178.35)" fill="#0a558c"/><path d="M4.678,373.073c1.452,2.25,3.041,3.633,2.874,4.756-.178,1.184-2.028,2.12-3.145,3.166-1.046-1.12-2.829-2.182-2.925-3.378C1.393,376.488,3.075,375.217,4.678,373.073Z" transform="translate(9.554 18.677)" fill="#0a558c"/><path d="M68.768,411.262c-2.25,1.452-3.633,3.041-4.748,2.872-1.186-.178-2.962-2.054-2.925-3.137s1.94-2.834,3.132-2.927C65.36,407.982,66.629,409.665,68.768,411.262Z" transform="translate(108.147 76.551)" fill="#0a558c"/><path d="M58.254,403.4c-2.224,1.5-3.572,3.121-4.7,2.978-1.192-.154-3.012-1.993-3-3.076s1.882-2.879,3.073-3C54.762,400.193,56.067,401.847,58.254,403.4Z" transform="translate(90.721 63.709)" fill="#0a558c"/><path d="M98.654,449.314c1.449,2.242,3.036,3.625,2.869,4.745-.175,1.181-2.022,2.118-3.139,3.161-1.043-1.12-2.826-2.181-2.919-3.373C95.376,452.716,97.059,451.448,98.654,449.314Z" transform="translate(164.982 144.767)" fill="#0a558c"/><path d="M47.717,395.534c-2.184,1.553-3.5,3.2-4.626,3.086-1.192-.122-3.057-1.921-3.068-3s1.813-2.922,3-3.07C44.151,392.406,45.5,394.03,47.717,395.534Z" transform="translate(73.299 50.869)" fill="#0a558c"/><path d="M37.149,388.083c-2.272,1.393-3.689,2.951-4.8,2.76-1.181-.207-2.917-2.123-2.856-3.2s2.006-2.792,3.2-2.855C33.827,384.723,35.055,386.437,37.149,388.083Z" transform="translate(55.88 38.042)" fill="#0a558c"/><path d="M115.433,488.438c1.59,2.107,3.283,3.381,3.182,4.49-.106,1.168-1.8,2.795-3.041,3.049-.815.167-2.834-1.7-2.9-2.741C112.593,492.013,114.045,490.688,115.433,488.438Z" transform="translate(193.443 209.471)" fill="#0a558c"/><path d="M111.611,483.824c-1.414-2.232-3-3.641-2.81-4.734.2-1.16,2.022-2.633,3.285-2.794.817-.1,2.683,1.927,2.662,2.97C114.722,480.5,113.169,481.7,111.611,483.824Z" transform="translate(187.018 189.383)" fill="#0a558c"/><path d="M79.821,430.321c-1.59-2.112-3.161-3.3-3.2-4.522-.027-1.051,1.807-3.1,2.635-3.007,1.263.138,3.118,1.6,3.328,2.752C82.791,426.645,81.215,428.073,79.821,430.321Z" transform="translate(133.833 100.899)" fill="#0a558c"/><path d="M79.17,419.276c-2.237,1.415-3.649,3-4.737,2.805a4.553,4.553,0,0,1-2.781-3.3c-.1-.823,1.927-2.672,2.978-2.657C75.85,416.147,77.046,417.708,79.17,419.276Z" transform="translate(125.6 89.88)" fill="#0a558c"/><path d="M59.279,409.059c-1.468-2.325-2.962-3.657-2.882-4.888a4.082,4.082,0,0,1,3.031-2.731,4.07,4.07,0,0,1,2.909,2.848C62.365,405.522,60.829,406.8,59.279,409.059Z" transform="translate(100.372 65.591)" fill="#0a558c"/><path d="M103.6,456.28c1.414,2.232,2.887,3.538,2.824,4.761-.053,1.046-2.051,2.935-2.871,2.776a4.535,4.535,0,0,1-3.078-3.015C100.362,459.7,102.042,458.406,103.6,456.28Z" transform="translate(173.272 156.287)" fill="#0a558c"/><path d="M53.485,396.362c-2.123,1.47-3.389,3.017-4.623,2.993-1.046-.021-2.057-1.858-3.081-2.893,1.1-1.088,2.065-2.8,3.331-3.057C50.072,393.212,51.407,394.873,53.485,396.362Z" transform="translate(82.821 52.278)" fill="#0a558c"/><path d="M20.692,379.065c-2.229,1.414-3.535,2.887-4.761,2.824-1.046-.053-2.932-2.051-2.776-2.872a4.544,4.544,0,0,1,3.015-3.081C17.273,375.822,18.569,377.5,20.692,379.065Z" transform="translate(28.847 23.404)" fill="#0a558c"/><path d="M90.06,430.043c1.393,2.025,2.9,3.259,2.779,4.3-.13,1.1-1.815,2.014-2.824,3.009-.993-1.008-2.667-1.948-2.779-3.044C87.13,433.259,88.648,432.044,90.06,430.043Z" transform="translate(151.372 112.896)" fill="#0a558c"/><path d="M38.383,392.957c-1.5-1.964-3.07-3.132-3-4.182.08-1.109,1.728-2.11,2.691-3.156,1.046.961,2.771,1.821,2.94,2.917C41.175,389.581,39.708,390.874,38.383,392.957Z" transform="translate(65.623 39.426)" fill="#0a558c"/><path d="M21.932,376.256c1.369,2.051,2.866,3.309,2.728,4.352-.143,1.1-1.85,2-2.871,2.98-.985-1.024-2.654-1.985-2.757-3.092C18.934,379.451,20.481,378.252,21.932,376.256Z" transform="translate(38.574 23.941)" fill="#0a558c"/><path d="M119.335,508.845c-1.5-1.969-3.073-3.137-3-4.188.077-1.112,1.73-2.112,2.694-3.161,1.046.966,2.779,1.826,2.94,2.922C122.124,505.47,120.657,506.765,119.335,508.845Z" transform="translate(199.498 231.069)" fill="#0a558c"/><path d="M94.772,436.973c1.4,2.028,2.906,3.262,2.781,4.3-.13,1.1-1.818,2.014-2.824,3.009-.993-1.006-2.67-1.945-2.781-3.041C91.842,440.192,93.363,438.977,94.772,436.973Z" transform="translate(159.165 124.357)" fill="#0a558c"/><path d="M108.241,463.306c1.324,2.086,2.792,3.381,2.63,4.419-.172,1.1-1.9,1.951-2.948,2.911-.955-1.048-2.6-2.051-2.67-3.161C105.183,466.424,106.749,465.264,108.241,463.306Z" transform="translate(181.172 167.907)" fill="#0a558c"/><path d="M69.786,408.692c1.422,2.014,2.948,3.235,2.837,4.283-.117,1.1-1.8,2.821-2.8,2.824s-2.707-1.7-2.832-2.8C66.875,411.948,68.391,410.712,69.786,408.692Z" transform="translate(117.889 77.585)" fill="#0a558c"/><path d="M64.8,408.784c-1.207-1.768-2.468-2.8-2.378-3.7.1-.955,1.473-1.786,2.29-2.67.918.908,2.338,1.7,2.58,2.763C67.462,405.933,66.058,407.053,64.8,408.784Z" transform="translate(110.331 67.194)" fill="#0a558c"/><path d="M27.473,384.4c-1.258-1.741-2.55-2.747-2.481-3.646.074-.966,1.43-1.831,2.227-2.741.942.889,2.375,1.645,2.654,2.707C30.068,381.466,28.7,382.626,27.473,384.4Z" transform="translate(48.434 26.844)" fill="#0a558c"/><path d="M107.815,453.851c-1.794,1.162-2.986,2.5-3.731,2.282-1.054-.305-1.775-1.754-2.638-2.715.926-.775,1.831-2.118,2.789-2.155C105.148,451.226,106.117,452.548,107.815,453.851Z" transform="translate(174.881 147.99)" fill="#0a558c"/><path d="M3.312,369.77c-1.767,1.208-2.805,2.471-3.707,2.381-.958-.1-1.789-1.475-2.675-2.3.91-.918,1.7-2.338,2.768-2.582C.454,367.1,1.577,368.5,3.312,369.77Z" transform="translate(2.029 9.061)" fill="#0a558c"/><path d="M99.571,444.056c1.08,2.014,2.216,3.179,2.094,4.193-.1.863-1.935,2.346-2.505,2.147A4.13,4.13,0,0,1,96.8,447.62C96.692,446.835,98.117,445.831,99.571,444.056Z" transform="translate(167.189 136.071)" fill="#0a558c"/><path d="M116.516,489.76c-1.332-1.855-2.691-2.946-2.529-3.721a4.123,4.123,0,0,1,2.526-2.611c.584-.162,2.317,1.43,2.359,2.29C118.923,486.745,117.718,487.831,116.516,489.76Z" transform="translate(195.6 201.167)" fill="#0a558c"/><path d="M47.672,389.548c-1.81,1.165-3.012,2.5-3.755,2.277-1.054-.31-1.77-1.765-2.63-2.733.934-.77,1.844-2.1,2.81-2.147C45,386.9,45.968,388.232,47.672,389.548Z" transform="translate(75.388 41.617)" fill="#0a558c"/><path d="M85.007,430.536c-1.239-1.916-2.54-3.068-2.343-3.832.271-1.046,1.68-1.8,2.6-2.675.82.86,2.288,1.72,2.288,2.58C87.552,427.638,86.3,428.668,85.007,430.536Z" transform="translate(143.785 102.95)" fill="#0a558c"/><path d="M123.905,498.4c-1.767,1.208-2.805,2.471-3.707,2.381-.961-.1-1.789-1.475-2.675-2.293.908-.918,1.7-2.338,2.768-2.585C121.047,495.73,122.17,497.137,123.905,498.4Z" transform="translate(201.47 221.796)" fill="#0a558c"/><path d="M109.589,473.092c1.773-1.229,2.927-2.606,3.678-2.412,1.064.271,1.829,1.7,2.723,2.638-.908.8-1.767,2.158-2.731,2.232C112.354,475.621,111.343,474.339,109.589,473.092Z" transform="translate(188.348 180.071)" fill="#0a558c"/><path d="M54.468,401.046c-1.356-1.834-2.731-2.906-2.58-3.681a4.111,4.111,0,0,1,2.489-2.648c.584-.17,2.341,1.4,2.4,2.258C56.838,398,55.646,399.1,54.468,401.046Z" transform="translate(92.902 54.451)" fill="#0a558c"/><path d="M83.984,419.618c-1.757,1.231-2.776,2.505-3.678,2.428-.958-.085-1.807-1.452-2.7-2.256.9-.929,1.68-2.349,2.747-2.614C81.1,416.988,82.238,418.376,83.984,419.618Z" transform="translate(135.45 91.589)" fill="#0a558c"/><path d="M14.467,371.824c-1.712.982-2.771,2.073-3.734,1.993-.788-.061-2.213-1.789-2.028-2.3a3.908,3.908,0,0,1,2.58-2.248C12,369.16,12.936,370.529,14.467,371.824Z" transform="translate(21.476 12.376)" fill="#0a558c"/><path d="M74.03,406.061c-1.651,1.04-2.656,2.163-3.62,2.128-.778-.029-2.258-1.688-2.1-2.205a3.9,3.9,0,0,1,2.468-2.335C71.474,403.51,72.464,404.834,74.03,406.061Z" transform="translate(120.065 69.227)" fill="#0a558c"/><path d="M78.789,412.971c-1.661,1.064-2.667,2.2-3.636,2.171-.788-.024-2.293-1.683-2.134-2.2a3.923,3.923,0,0,1,2.465-2.367C76.188,410.429,77.194,411.751,78.789,412.971Z" transform="translate(127.849 80.681)" fill="#0a558c"/><path d="M33.422,385.005c-1.29-1.531-2.656-2.476-2.542-3.185a3.9,3.9,0,0,1,2.25-2.569c.52-.183,2.245,1.245,2.3,2.028C35.5,382.248,34.409,383.3,33.422,385.005Z" transform="translate(58.164 28.87)" fill="#0a558c"/><path d="M20.26,372.382c-1.526,1.284-2.465,2.646-3.171,2.532a3.875,3.875,0,0,1-2.558-2.243c-.183-.52,1.239-2.237,2.02-2.293C17.516,370.306,18.567,371.4,20.26,372.382Z" transform="translate(31.11 14.215)" fill="#0a558c"/><path d="M8.912,370.705c-2.028,1.061-3.129,2.11-4.092,2a3.111,3.111,0,0,1-1.945-2.426,3.1,3.1,0,0,1,2.261-2.123C6.114,368.184,7.059,369.373,8.912,370.705Z" transform="translate(11.857 10.538)" fill="#0a558c"/><path d="M112.318,460.683c-1.664,1.048-2.675,2.176-3.644,2.139-.783-.029-2.272-1.7-2.107-2.216a3.92,3.92,0,0,1,2.479-2.349C109.746,458.117,110.739,459.449,112.318,460.683Z" transform="translate(183.329 159.541)" fill="#0a558c"/><path d="M63.773,398.236c-1.953,1.157-3,2.258-3.962,2.192a2.282,2.282,0,0,1,.1-4.549C60.883,395.858,61.875,397,63.773,398.236Z" transform="translate(102.643 56.394)" fill="#0a558c"/><path d="M124.4,492.579c-1.433,1.008-2.489,2.282-3.179,2.107-.982-.247-1.7-1.558-2.524-2.415.916-.762,1.767-1.993,2.768-2.128C122.174,490.045,123.087,491.427,124.4,492.579Z" transform="translate(203.408 212.283)" fill="#0a558c"/><path d="M128.1,505.153c-1.608,1.115-2.561,2.28-3.524,2.285-.783.008-2.341-1.579-2.2-2.1a3.9,3.9,0,0,1,2.354-2.444C125.418,502.728,126.464,504,128.1,505.153Z" transform="translate(209.474 233.36)" fill="#0a558c"/><path d="M117.255,467.443c-2,1.051-3.094,2.091-4.05,1.977a2.267,2.267,0,0,1,.316-4.509C114.485,464.938,115.419,466.119,117.255,467.443Z" transform="translate(191.135 170.561)" fill="#0a558c"/><path d="M117.068,483.666c-1.157-1.953-2.256-3-2.192-3.96a3.109,3.109,0,0,1,2.33-2.046,3.091,3.091,0,0,1,2.219,2.147C119.446,480.776,118.3,481.768,117.068,483.666Z" transform="translate(197.087 191.646)" fill="#0a558c"/><path d="M94.24,427.617c-1.943,1.149-2.978,2.245-3.938,2.181a2.273,2.273,0,0,1,.1-4.53C91.371,425.255,92.361,426.391,94.24,427.617Z" transform="translate(153.083 104.999)" fill="#0a558c"/><path d="M99.088,434.245c-1.645,1.133-2.7,2.394-3.4,2.216-.974-.25-1.677-1.563-2.5-2.42.8-.762,1.608-2.139,2.388-2.12C96.554,431.941,97.5,433.117,99.088,434.245Z" transform="translate(161.234 116)" fill="#0a558c"/><path d="M49.659,387.664c1.046,1.661,2.173,2.672,2.136,3.638-.029.783-1.7,2.269-2.213,2.1a3.912,3.912,0,0,1-2.346-2.476C47.1,390.233,48.425,389.24,49.659,387.664Z" transform="translate(85.211 42.808)" fill="#0a558c"/><path d="M22.5,370.854c1.048,1.537,2.208,2.5,2.091,3.27a3.3,3.3,0,0,1-2.293,2.027c-.523.106-1.9-1.3-1.892-2C20.424,373.258,21.464,372.385,22.5,370.854Z" transform="translate(40.858 15.007)" fill="#0a558c"/><path d="M124.93,486.359c-1.484,1.1-2.312,2.165-3.2,2.213-.7.04-2.15-1.276-2.067-1.8a3.3,3.3,0,0,1,1.919-2.378C122.351,484.247,123.357,485.372,124.93,486.359Z" transform="translate(205.007 202.76)" fill="#0a558c"/><path d="M100.372,444.2c-1.154-1.454-2.258-2.248-2.343-3.137-.066-.7,1.2-2.2,1.738-2.136a3.3,3.3,0,0,1,2.455,1.839C102.394,441.533,101.3,442.587,100.372,444.2Z" transform="translate(169.225 127.586)" fill="#0a558c"/><path d="M88.915,420.592c-1.568,1.006-2.569,2.144-3.331,2a3.334,3.334,0,0,1-1.964-2.359c-.09-.525,1.348-1.868,2.054-1.839C86.561,418.437,87.4,419.5,88.915,420.592Z" transform="translate(145.394 93.635)" fill="#0a558c"/><path d="M38.779,385.448c-1.008-1.571-2.147-2.572-2.006-3.336a3.326,3.326,0,0,1,2.365-1.964c.523-.093,1.868,1.348,1.839,2.054C40.936,383.092,39.869,383.936,38.779,385.448Z" transform="translate(67.902 30.372)" fill="#0a558c"/><path d="M104.963,450.862c-1.1-1.491-2.171-2.322-2.221-3.211-.04-.706,1.282-2.158,1.807-2.075a3.316,3.316,0,0,1,2.388,1.927C107.083,448.27,105.955,449.283,104.963,450.862Z" transform="translate(177.022 138.58)" fill="#0a558c"/><path d="M121.123,473.829c-1.247,1.027-2.009,2.147-2.757,2.139-.783-.011-1.552-1.1-2.327-1.725.706-.809,1.287-2.009,2.163-2.293C118.771,471.767,119.775,472.911,121.123,473.829Z" transform="translate(199.014 182.171)" fill="#0a558c"/><path d="M58.193,390.936c-1.247,1.03-2.009,2.15-2.757,2.142-.783-.011-1.552-1.1-2.327-1.725.706-.809,1.287-2.014,2.16-2.293C55.849,388.877,56.85,390.026,58.193,390.936Z" transform="translate(94.938 45.085)" fill="#0a558c"/><path d="M109.507,452.175c.969,1.306,2.155,2.256,2,2.837-.247.889-1.417,1.523-2.195,2.266-.65-.748-1.767-1.47-1.815-2.256C107.45,454.28,108.533,453.47,109.507,452.175Z" transform="translate(184.879 149.498)" fill="#0a558c"/><path d="M68.727,398.976c-1.247,1.03-2.009,2.15-2.755,2.139-.783-.008-1.552-1.1-2.33-1.722.706-.812,1.287-2.017,2.163-2.293C66.383,396.917,67.384,398.063,68.727,398.976Z" transform="translate(112.36 58.382)" fill="#0a558c"/><path d="M83.97,413.622c-1.338.926-2.33,2.078-2.9,1.9-.878-.273-1.468-1.468-2.176-2.272.77-.626,1.529-1.73,2.312-1.746C81.948,411.486,82.718,412.6,83.97,413.622Z" transform="translate(137.579 82.232)" fill="#0a558c"/><path d="M60.536,394.159c-.69-1.12-1.473-1.834-1.372-2.386a2.179,2.179,0,0,1,1.614-1.428,2.173,2.173,0,0,1,1.428,1.611C62.234,392.522,61.366,393.129,60.536,394.159Z" transform="translate(104.938 47.242)" fill="#0a558c"/><path d="M78.254,406.58c-.985.738-1.595,1.558-2.16,1.526-.6-.035-1.154-.87-1.73-1.359.573-.605,1.059-1.484,1.757-1.709C76.521,404.905,77.266,405.829,78.254,406.58Z" transform="translate(130.09 71.521)" fill="#0a558c"/><path d="M127.621,498.957c-1.022.714-1.8,1.606-2.205,1.46-.693-.249-1.152-1.149-1.706-1.775.594-.467,1.186-1.287,1.789-1.3C126.071,497.341,126.655,498.179,127.621,498.957Z" transform="translate(211.7 224.204)" fill="#0a558c"/><path d="M116.234,460.915c-.985.74-1.6,1.558-2.16,1.526-.6-.035-1.157-.873-1.73-1.359.573-.605,1.059-1.486,1.757-1.709C114.5,459.244,115.249,460.167,116.234,460.915Z" transform="translate(192.903 161.384)" fill="#0a558c"/><path d="M98.2,427.965c-1.1.732-1.783,1.539-2.341,1.46a1.522,1.522,0,0,1,.069-3.044C96.49,426.333,97.129,427.177,98.2,427.965Z" transform="translate(163.182 106.837)" fill="#0a558c"/><path d="M103.244,434.624c-.993.849-1.576,1.738-2.144,1.73-.6-.008-1.189-.873-1.783-1.367.491-.592.91-1.553,1.494-1.669C101.373,433.207,102.108,433.972,103.244,434.624Z" transform="translate(171.358 118.296)" fill="#0a558c"/><path d="M124.8,480.462c-1.03.807-1.648,1.667-2.213,1.635a2.184,2.184,0,0,1-1.6-1.438,2.158,2.158,0,0,1,1.43-1.6C122.987,478.971,123.69,479.761,124.8,480.462Z" transform="translate(207.195 193.948)" fill="#0a558c"/><path d="M2.3,363.187c-.945.8-1.64,1.775-2.051,1.667-.711-.188-1.245-1.046-1.85-1.622.549-.517,1.059-1.385,1.656-1.449C.623,361.722,1.281,362.5,2.3,363.187Z" transform="translate(4.464)" fill="#0a558c"/><path d="M8.117,364.219c-1.016.706-1.791,1.6-2.192,1.449-.687-.249-1.144-1.141-1.7-1.765.592-.462,1.178-1.276,1.775-1.284C6.575,362.611,7.156,363.447,8.117,364.219Z" transform="translate(14.101 1.388)" fill="#0a558c"/><path d="M13.912,365.136c-1.03.81-1.648,1.669-2.213,1.635a1.522,1.522,0,0,1-.172-3.039C12.091,363.645,12.8,364.433,13.912,365.136Z" transform="translate(23.801 3.218)" fill="#0a558c"/><path d="M28.179,376.417c-.831-.9-1.709-1.436-1.736-2.006-.029-.594.767-1.229,1.2-1.847.655.515,1.587.913,1.866,1.584C29.679,374.549,28.827,375.374,28.179,376.417Z" transform="translate(50.838 17.835)" fill="#0a558c"/><path d="M36.192,375.281c-1.109.738-1.791,1.547-2.357,1.47-.594-.08-1.077-1-1.608-1.558.56-.531,1.083-1.428,1.685-1.483C34.475,373.656,35.12,374.495,36.192,375.281Z" transform="translate(60.405 19.726)" fill="#0a558c"/><path d="M44.409,381.186c.711,1.022,1.6,1.8,1.457,2.2-.249.693-1.149,1.149-1.773,1.706-.464-.6-1.284-1.186-1.292-1.786C42.793,382.736,43.632,382.152,44.409,381.186Z" transform="translate(77.892 32.095)" fill="#0a558c"/></g></svg>