<svg xmlns="http://www.w3.org/2000/svg" width="266.738" height="92.649" viewBox="0 0 266.738 92.649"><g transform="translate(0 0)"><circle cx="2.264" cy="2.264" r="2.264" fill="#fce588"/><circle cx="2.264" cy="2.264" r="2.264" transform="translate(32.776)" fill="#cb6e17"/><circle cx="2.264" cy="2.264" r="2.264" transform="translate(65.552)" fill="#cb6e17"/><path d="M57.509,2.264A2.264,2.264,0,1,1,55.244,0,2.264,2.264,0,0,1,57.509,2.264Z" transform="translate(45.349 0)" fill="#fce588"/><circle cx="2.264" cy="2.264" r="2.264" transform="translate(131.105)" fill="#cb6e17"/><circle cx="2.264" cy="2.264" r="2.264" transform="translate(163.881)" fill="#cb6e17"/><circle cx="2.264" cy="2.264" r="2.264" transform="translate(196.657)" fill="#cb6e17"/><circle cx="2.264" cy="2.264" r="2.264" transform="translate(229.433)" fill="#cb6e17"/><circle cx="2.264" cy="2.264" r="2.264" transform="translate(262.209)" fill="#cb6e17"/><circle cx="2.264" cy="2.264" r="2.264" transform="translate(0 22.03)" fill="#cb6e17"/><circle cx="2.264" cy="2.264" r="2.264" transform="translate(32.776 22.03)" fill="#cb6e17"/><circle cx="2.264" cy="2.264" r="2.264" transform="translate(65.552 22.03)" fill="#cb6e17"/><path d="M57.509,14.134a2.264,2.264,0,1,1-2.264-2.264A2.264,2.264,0,0,1,57.509,14.134Z" transform="translate(45.349 10.16)" fill="#cb6e17"/><circle cx="2.264" cy="2.264" r="2.264" transform="translate(131.105 22.03)" fill="#cb6e17"/><circle cx="2.264" cy="2.264" r="2.264" transform="translate(163.881 22.03)" fill="#fce588"/><circle cx="2.264" cy="2.264" r="2.264" transform="translate(196.657 22.03)" fill="#cb6e17"/><circle cx="2.264" cy="2.264" r="2.264" transform="translate(229.433 22.03)" fill="#cb6e17"/><circle cx="2.264" cy="2.264" r="2.264" transform="translate(262.209 22.03)" fill="#fce588"/><circle cx="2.264" cy="2.264" r="2.264" transform="translate(0 44.06)" fill="#cb6e17"/><circle cx="2.264" cy="2.264" r="2.264" transform="translate(32.776 44.06)" fill="#fce588"/><circle cx="2.264" cy="2.264" r="2.264" transform="translate(65.552 44.06)" fill="#cb6e17"/><path d="M57.509,26.044a2.264,2.264,0,1,1-2.264-2.264A2.264,2.264,0,0,1,57.509,26.044Z" transform="translate(45.349 20.355)" fill="#cb6e17"/><circle cx="2.264" cy="2.264" r="2.264" transform="translate(131.105 44.06)" fill="#cb6e17"/><circle cx="2.264" cy="2.264" r="2.264" transform="translate(163.881 44.06)" fill="#cb6e17"/><circle cx="2.264" cy="2.264" r="2.264" transform="translate(196.657 44.06)" fill="#fce588"/><circle cx="2.264" cy="2.264" r="2.264" transform="translate(229.433 44.06)" fill="#cb6e17"/><circle cx="2.264" cy="2.264" r="2.264" transform="translate(262.209 44.06)" fill="#cb6e17"/><circle cx="2.264" cy="2.264" r="2.264" transform="translate(0 66.091)" fill="#cb6e17"/><circle cx="2.264" cy="2.264" r="2.264" transform="translate(32.776 66.091)" fill="#cb6e17"/><circle cx="2.264" cy="2.264" r="2.264" transform="translate(65.552 66.091)" fill="#fce588"/><path d="M57.509,37.874a2.264,2.264,0,1,1-2.264-2.264,2.264,2.264,0,0,1,2.264,2.264Z" transform="translate(45.349 30.481)" fill="#cb6e17"/><circle cx="2.264" cy="2.264" r="2.264" transform="translate(131.105 66.091)" fill="#fce588"/><circle cx="2.264" cy="2.264" r="2.264" transform="translate(163.881 66.091)" fill="#cb6e17"/><circle cx="2.264" cy="2.264" r="2.264" transform="translate(196.657 66.091)" fill="#cb6e17"/><circle cx="2.264" cy="2.264" r="2.264" transform="translate(229.433 66.091)" fill="#cb6e17"/><circle cx="2.264" cy="2.264" r="2.264" transform="translate(262.209 66.091)" fill="#cb6e17"/><circle cx="2.264" cy="2.264" r="2.264" transform="translate(0 88.121)" fill="#cb6e17"/><circle cx="2.264" cy="2.264" r="2.264" transform="translate(32.776 88.121)" fill="#cb6e17"/><circle cx="2.264" cy="2.264" r="2.264" transform="translate(65.552 88.121)" fill="#cb6e17"/><path d="M57.509,49.744a2.264,2.264,0,1,1-2.264-2.264A2.264,2.264,0,0,1,57.509,49.744Z" transform="translate(45.349 40.641)" fill="#cb6e17"/><circle cx="2.264" cy="2.264" r="2.264" transform="translate(131.105 88.121)" fill="#cb6e17"/><circle cx="2.264" cy="2.264" r="2.264" transform="translate(163.881 88.121)" fill="#cb6e17"/><circle cx="2.264" cy="2.264" r="2.264" transform="translate(196.657 88.121)" fill="#cb6e17"/><circle cx="2.264" cy="2.264" r="2.264" transform="translate(229.433 88.121)" fill="#fce588"/><circle cx="2.264" cy="2.264" r="2.264" transform="translate(262.209 88.121)" fill="#fce588"/></g></svg>