<svg xmlns="http://www.w3.org/2000/svg" width="295.593" height="260.178" viewBox="0 0 295.593 260.178"><g transform="translate(0 260.178) rotate(-90)" opacity="0.3"><path d="M0,9.46A22.657,22.657,0,0,0,2.385,7.915c2.687,4.294,5.622,5.518,8.737,3.792a5.435,5.435,0,0,0,2.1-7.268c-.591-1.055-1.78-2.454-2.739-2.486a51.394,51.394,0,0,0-7.859.864A9.3,9.3,0,0,0,0,0Z" transform="translate(0 186.44)" fill="#dceefb"/><path d="M0,95.533H6.8a.28.28,0,0,1-.008-.07c.2-.9,1.073-1.648,2.036-2.96.76,1.278,1.65,2.126,1.495,2.677a1.5,1.5,0,0,1-.189.354H20.842a1.848,1.848,0,0,1,.271-.113.627.627,0,0,1,.426.113H66.684l-1.571-2.488a31.526,31.526,0,0,0,2.562-1.929c.766-.709,1.409-1.551,2.188-2.429,1.411,4.963,4.073,6.816,7.766,5.608a5.319,5.319,0,0,0,3.159-7.266,6.4,6.4,0,0,0-2.775-2.9c-2.966-1.463-5.46.2-7.825,2.154l-2.582-4.5c4.143-3.279,5.245-6.2,3.3-9.02-.685-.989-2-2.214-2.994-2.18a49.413,49.413,0,0,0-7.6,1.392,19.143,19.143,0,0,0-1.1-1.736c-.593-.8-1.286-1.525-2.066-2.433.705-.426,1.244-.738,1.768-1.073a5.746,5.746,0,0,0,2.253-7.507,5.578,5.578,0,0,0-6.926-2.59c-3.689,1.2-4.372.872-5.938-2.811,4.009-3.307,4.989-6.219,3.066-9.109-1.955-2.94-4.959-2.944-10.1.052q-1.86-2.113-3.776-4.284c4.782-2.048,6.4-4.913,4.8-8.417-1.606-3.528-4.859-3.772-10.413-.776-1.272-1.61-2.544-3.217-3.844-4.859,4.561-1.646,6.354-4.455,4.861-7.907a6.215,6.215,0,0,0-2.761-2.91c-2.96-1.441-5.488.092-7.817,2.178-1.025-1.758-1.841-3.155-2.632-4.511C23.9,9.894,24.887,6.888,22.9,4a5.726,5.726,0,0,0-7.234-1.638c-3.06,1.607-3.336,4.272-.971,10.105-1.28.942-2.59,1.9-3.985,2.93-1.258-1.561-2.385-2.958-3.537-4.385,4.62-2.409,6.139-5.315,4.362-8.56C10.961,1.4,9.72,0,8.781,0a55.562,55.562,0,0,0-8.1,1.113C.482.88.247.611,0,.325V5.494l.641-.6L3.42,10.461,0,12.734v7.69c.307.45.617.9.914,1.332-.332.316-.627.575-.914.82V68.123c.356-.287.719-.494.842-.432a18.331,18.331,0,0,1,2.984,2.3q-.163.582-.326,1.165c-1.037.219-2.22.84-3.064.53A1.118,1.118,0,0,1,0,71.342v8.464c.571.412,1.21,1.2,2.048,1.917C1.206,82.267.559,82.872,0,83.176ZM9.189,84.918c-.752-1.121-.852-2.015.5-2.669,2.2-1.069,2.568.772,3.5,2.186C11.727,85.6,10.658,87.1,9.189,84.918ZM14.5,73.386c-1.208,1.139-2.526.792-3.418-.673-1.384-2.267.812-2.441,2.2-3.928C13.716,70.812,16.566,71.441,14.5,73.386ZM17.365,60.75c-.289.985-1.975,2.415-2.668,2.226-1.141-.313-1.969-1.772-3.581-3.414,2.1-.8,3.41-1.728,4.6-1.593C16.415,58.05,17.588,59.995,17.365,60.75Zm4.971,28.126c-.924-1.294-2.112-2.226-2.068-3.1S21.6,84.124,22.343,83.3c.834.852,2.186,1.622,2.337,2.582C24.794,86.622,23.4,87.6,22.337,88.876Zm4.5-14.665c-.526,1.017-1.845,2.257-2.811,2.234S22.148,74.965,20.6,73.6c2.074-.894,3.364-1.722,4.732-1.883C25.779,71.67,27.091,73.725,26.84,74.212ZM28.729,62.25A4.793,4.793,0,0,1,26.018,64.8c-.478.163-2.379-1.77-2.212-2.2.468-1.194,1.674-2.1,3.006-3.589C27.7,60.437,28.96,61.613,28.729,62.25Zm5.317,28.065a4.363,4.363,0,0,1-2.466-2.863c-.123-.705,1.81-2.582,2.243-2.417,1.184.454,2.062,1.708,3.508,3.062C35.922,89.1,34.682,90.544,34.045,90.315Zm9.547.41c-1.821-2.763,1.2-2.789,2.265-4.475,1.079,1.535,1.979,2.813,3,4.266C46.875,92.091,45.3,93.325,43.592,90.725ZM60.284,75.91c.79,1.64,1.563,3.249,2.4,5-1.346,1-2.644,1.965-4.119,3.058l-2.727-4.127C57.455,78.409,58.825,77.2,60.284,75.91ZM58.046,88.263l2.787,3.629c-3.75,4.087-4.567,4.041-7.113-.52ZM50.133,63c1.147,1.5,2.136,2.793,3.33,4.35l-4.1,2.815-3.109-4.334ZM48.421,74.66c.991,1.411,1.869,2.664,2.924,4.166l-4.391,2.861c-.975-1.423-1.841-2.689-2.849-4.16C45.575,76.548,46.916,75.66,48.421,74.66ZM40.556,49.013l3.183,4.105c-3.784,3.914-4.348,3.84-6.858-.961ZM39,61.305c.874,1.041,1.774,2.116,2.938,3.5-1.716,1.131-3,1.975-4.258,2.809C34.881,64.187,34.924,63.974,39,61.305Zm.456,15.153c-3.85,2.952-3.973,2.878-5.689.645-1.513-1.967-.018-2.6,1.226-3.326C38.167,71.923,37.749,75.576,39.457,76.458ZM29.472,36.421c.571-.585,1.055-1.25,1.64-1.955l2.912,5.289c-3.543,3.308-3.75,3.273-6.689-1.395C28.126,37.65,28.837,37.072,29.472,36.421ZM27.079,48.971c2.118-1.636,3.034-.143,3.854,1.25,1.792,3.05-1.915,2.5-2.853,3.949C27.694,52.371,23.936,51.4,27.079,48.971Zm-5.263-28.5c.884,1.784,1.8,3.641,2.817,5.689l-4.358,2.829-2.93-4.3C18.9,23.217,20.4,21.8,21.816,20.468Zm-2.6,13.039c3.748,4.153,3.748,4.153-.713,6.884l-2.944-4.208C16.837,35.251,18.036,34.373,19.218,33.507ZM17.207,44.386c1.471,2.293,2.251,3.506,3.277,5.106-1.477.691-2.823,1.788-4.145,1.76-.758-.016-2.224-2.017-2.048-2.837C14.578,47.088,15.959,46,17.207,44.386Zm-7.141-24.83c1.089,1.477,2,2.713,3.04,4.123l-4.744,2.97c-.884-1.167-1.74-2.3-2.733-3.6C7.109,21.878,8.448,20.825,10.065,19.556Zm-2.4,11.93c1.081,1.545,1.935,2.769,2.873,4.109-2.09,1.551-3.641,3.362-5.4.492C3.293,33.079,6.665,33.278,7.664,31.485ZM3.117,46.656c.462-1.071,1.841-1.744,2.835-2.586.707.89,2.074,1.867,1.969,2.648-.157,1.2-1.328,2.261-2.07,3.38-.408-.2-.814-.4-1.22-.6C4.077,48.527,2.851,47.269,3.117,46.656ZM2.339,60.188C1.71,60.116.731,58.383.88,57.58c.155-.828,1.843-2.192,2.232-2.007,1.188.567,2.072,1.766,3.677,3.3C4.758,59.537,3.5,60.32,2.339,60.188Z" transform="translate(0 200.059)" fill="#dceefb"/><path d="M8.758,11.359c2.942,4.268,2.9,7.7.008,9.7a5.739,5.739,0,0,1-7.714-1.272q-3.225-4.569,3.434-9.277C1.8,5.423,1.924,2.636,4.9.814A5.433,5.433,0,0,1,12.28,2.393C14.2,5.375,13.217,7.955,8.758,11.359Z" transform="translate(43.451 219.722)" fill="#dceefb"/><path d="M10.583,8.741C5.7,11.606,2.955,11.546.926,8.532A5.429,5.429,0,0,1,2.232,1.117c2.95-2.192,5.7-1.2,9.265,3.344,4.983-2.725,7.821-2.614,9.665.378a5.448,5.448,0,0,1-1.308,7.212C16.947,14.194,14.487,13.318,10.583,8.741Z" transform="translate(24.596 203.443)" fill="#dceefb"/><path d="M10.63,8.653C5.936,11.7,2.854,11.6.845,8.428A5.438,5.438,0,0,1,2.6.883C5.776-1.086,8.731.242,11.39,4.833,15.825,1.753,19,1.7,21.023,4.659A5.449,5.449,0,0,1,19.8,12.11C16.791,14.258,13.994,13.235,10.63,8.653Z" transform="translate(72.505 271.937)" fill="#dceefb"/><path d="M5.638,2.655A5.229,5.229,0,0,0,0,.135V21.746a5.47,5.47,0,0,0,2.009-.868c2.966-2.068,2.875-5.241-.273-9.633C6.414,8.14,7.553,5.635,5.638,2.655Z" transform="translate(0 162.939)" fill="#dceefb"/><path d="M8.151,11.22c3.328,3.918,3.484,7.374.569,9.531a5.426,5.426,0,0,1-7.79-1.384c-2.005-3.209-.7-6.151,3.318-8.421C3.7,8.376,2.878,6.019,2.85,3.654,2.838,2.647,4.313,1.343,5.414.662A4.99,4.99,0,0,1,12.292,2.8C13.966,5.768,12.821,8.159,8.151,11.22Z" transform="translate(26.272 180.804)" fill="#dceefb"/><path d="M10,18.944a1.942,1.942,0,0,0,.388-1.075c-.094-2.369-1.087-4.7-1.77-7.262,3.81-2.769,4.792-5.393,2.775-8.283A5.136,5.136,0,0,0,4.052,1C1.06,3.164,1.14,5.951,4.429,10.5.071,13.92-.9,16.235.774,18.944Z" transform="translate(93.738 276.649)" fill="#dceefb"/><path d="M8.222,11.232c3.279,5.162,3.229,7.756-.195,9.846-2.486,1.517-5.52.665-7.184-2.015C-1,16.093.174,13.6,4.39,10.836,3.745,8.461,2.815,6.283,2.7,4.064,2.652,3.023,3.984,1.635,5.031.873a4.956,4.956,0,0,1,7.027,1.577C14.053,5.425,13.006,7.822,8.222,11.232Z" transform="translate(76.42 237.618)" fill="#dceefb"/><path d="M11.392,4.849c4.969-3.115,7.736-3.066,9.691.173a5.178,5.178,0,0,1-1.941,7.2c-3.012,1.768-5.646.524-8.032-3.464C8.6,9.388,6.262,10.349,3.9,10.405,2.834,10.431,1.439,8.854.686,7.684-.815,5.361.256,2.377,2.85.8,5.778-.98,8.145.143,11.392,4.849Z" transform="translate(57.509 221.341)" fill="#dceefb"/><path d="M.011,5.081A5.229,5.229,0,0,1,5.782.007a5.252,5.252,0,0,1,5.126,5.982,5.243,5.243,0,0,1-5.9,4.929A5.238,5.238,0,0,1,.011,5.081Z" transform="translate(34.067 217.41)" fill="#dceefb"/><path d="M5.379,10.928A5.218,5.218,0,0,1,0,5.446,5.2,5.2,0,0,1,5.405,0a5.225,5.225,0,0,1,5.52,5.612A5.222,5.222,0,0,1,5.379,10.928Z" transform="translate(62.479 258.637)" fill="#dceefb"/><path d="M10.931,5.582A5.205,5.205,0,0,1,5.42,10.929,5.247,5.247,0,0,1,0,5.207,5.231,5.231,0,0,1,5.659,0,5.2,5.2,0,0,1,10.931,5.582Z" transform="translate(53.002 244.706)" fill="#dceefb"/><path d="M10.774,5.525A5.388,5.388,0,1,1,5.664.007,5.369,5.369,0,0,1,10.774,5.525Z" transform="translate(64.782 247.012)" fill="#dceefb"/><path d="M5.5,0a5.343,5.343,0,0,1,5.273,5.351A5.387,5.387,0,1,1,5.5,0Z" transform="translate(74.246 260.385)" fill="#dceefb"/><path d="M5.373,0a5.345,5.345,0,0,1,5.381,5.51A5.378,5.378,0,1,1,0,5.243,5.34,5.34,0,0,1,5.373,0Z" transform="translate(5.187 176.276)" fill="#dceefb"/><path d="M2.029,9.589H8.734A5.374,5.374,0,0,0,5.65.006,5.381,5.381,0,0,0,2.029,9.589Z" transform="translate(82.051 286.004)" fill="#dceefb"/><path d="M5.246,10.776a5.389,5.389,0,1,1,5.522-5.11A5.375,5.375,0,0,1,5.246,10.776Z" transform="translate(14.647 190.194)" fill="#dceefb"/><path d="M5.4,10.768A5.363,5.363,0,0,1,0,5.257,5.347,5.347,0,0,1,5.372,0,5.384,5.384,0,1,1,5.4,10.768Z" transform="translate(55.314 233.09)" fill="#dceefb"/><path d="M10.751,5.329A5.673,5.673,0,0,1,5.492,10.75,5.65,5.65,0,0,1,0,5.285,5.682,5.682,0,0,1,5.4,0,5.664,5.664,0,0,1,10.751,5.329Z" transform="translate(67.021 235.325)" fill="#dceefb"/><path d="M5.479,10.742A5.671,5.671,0,0,1,0,5.548,5.664,5.664,0,0,1,5.127.006a5.635,5.635,0,0,1,5.616,5.329A5.674,5.674,0,0,1,5.479,10.742Z" transform="translate(16.89 178.509)" fill="#dceefb"/><path d="M10.751,5.4a5.673,5.673,0,0,1-5.335,5.345A5.651,5.651,0,0,1,0,5.205,5.674,5.674,0,0,1,5.474,0,5.68,5.68,0,0,1,10.751,5.4Z" transform="translate(47.524 208.032)" fill="#dceefb"/><path d="M5.293,0a5.657,5.657,0,0,1,5.439,5.3,5.659,5.659,0,0,1-5.3,5.439A5.646,5.646,0,0,1,0,5.438,5.645,5.645,0,0,1,5.293,0Z" transform="translate(85.974 262.628)" fill="#dceefb"/><path d="M10.737,5.434a5.661,5.661,0,0,1-5.439,5.3A5.664,5.664,0,0,1,0,5.291,5.646,5.646,0,0,1,5.44,0,5.639,5.639,0,0,1,10.737,5.434Z" transform="translate(38.062 194.115)" fill="#dceefb"/><path d="M10.543,5.584c0-.06.022-.118.024-.179A5.471,5.471,0,0,0,5.335,0,5.456,5.456,0,0,0,0,5.3c0,.1.024.189.03.285Z" transform="translate(105.554 290.008)" fill="#dceefb"/><path d="M10.567,5.275a5.458,5.458,0,0,1-5.343,5.291A5.465,5.465,0,0,1,0,5.155,5.483,5.483,0,0,1,5.206,0,5.464,5.464,0,0,1,10.567,5.275Z" transform="translate(97.752 264.941)" fill="#dceefb"/><path d="M10.577,5.383a5.469,5.469,0,0,1-5.454,5.19A5.468,5.468,0,0,1,.006,5.052,5.48,5.48,0,0,1,5.317,0,5.465,5.465,0,0,1,10.577,5.383Z" transform="translate(7.504 164.668)" fill="#dceefb"/><path d="M10.567,5.325a5.462,5.462,0,0,1-5.4,5.239A5.467,5.467,0,0,1,0,5.1,5.486,5.486,0,0,1,5.26,0,5.454,5.454,0,0,1,10.567,5.325Z" transform="translate(19.206 166.9)" fill="#dceefb"/><path d="M5.289,10.573A5.457,5.457,0,0,1,0,5.222,5.462,5.462,0,0,1,5.42,0a5.479,5.479,0,0,1,5.15,5.212A5.456,5.456,0,0,1,5.289,10.573Z" transform="translate(88.281 251.01)" fill="#dceefb"/><path d="M10.57,5.17a5.463,5.463,0,0,1-5.235,5.405A5.454,5.454,0,0,1,0,5.273,5.485,5.485,0,0,1,5.1,0,5.469,5.469,0,0,1,10.57,5.17Z" transform="translate(49.845 196.417)" fill="#dceefb"/><path d="M5.151,0A5.466,5.466,0,0,1,10.568,5.22a5.459,5.459,0,0,1-5.287,5.347A5.482,5.482,0,0,1,0,5.488,5.466,5.466,0,0,1,5.151,0Z" transform="translate(40.375 182.495)" fill="#dceefb"/><path d="M5.291,0a5.454,5.454,0,0,1,5.281,5.365,5.465,5.465,0,0,1-5.433,5.212A5.467,5.467,0,0,1,0,5.351,5.445,5.445,0,0,1,5.291,0Z" transform="translate(59.315 209.787)" fill="#dceefb"/><path d="M5.208,10.523A5.687,5.687,0,0,1,0,5.281,5.66,5.66,0,0,1,5.452,0a5.7,5.7,0,0,1,5.07,5.379A5.7,5.7,0,0,1,5.208,10.523Z" transform="translate(80.507 225.967)" fill="#dceefb"/><path d="M10.523,5.28A5.7,5.7,0,0,1,5.31,10.518,5.7,5.7,0,0,1,0,5.378,5.665,5.665,0,0,1,5.353,0,5.7,5.7,0,0,1,10.523,5.28Z" transform="translate(90.534 239.34)" fill="#dceefb"/><path d="M10.52,5.3a5.683,5.683,0,0,1-5.233,5.218A5.693,5.693,0,0,1,0,5.359,5.651,5.651,0,0,1,5.372,0,5.693,5.693,0,0,1,10.52,5.3Z" transform="translate(71.038 212.042)" fill="#dceefb"/><path d="M5.172,0a5.709,5.709,0,0,1,5.347,5.1,5.705,5.705,0,0,1-5.032,5.413A5.664,5.664,0,0,1,0,5.28,5.709,5.709,0,0,1,5.172,0Z" transform="translate(61.568 198.113)" fill="#dceefb"/><path d="M3.406,0A5.123,5.123,0,0,0,0,1.409v7.71a5.145,5.145,0,0,0,3.38,1.4,5.7,5.7,0,0,0,5.2-5.247A5.7,5.7,0,0,0,3.406,0Z" transform="translate(0 151.323)" fill="#dceefb"/><path d="M10.274,5.09a5.25,5.25,0,0,1-5.084,5.19A5.261,5.261,0,0,1,0,5.191,5.264,5.264,0,0,1,5.09,0,5.25,5.25,0,0,1,10.274,5.09Z" transform="translate(100.125 253.385)" fill="#dceefb"/><path d="M10.28,5.1a5.264,5.264,0,0,1-5.1,5.176A5.261,5.261,0,0,1,0,5.176,5.267,5.267,0,0,1,5.1,0,5.264,5.264,0,0,1,10.28,5.1Z" transform="translate(9.882 153.116)" fill="#dceefb"/><path d="M5.246,0a5.264,5.264,0,0,1,5.04,5.245,5.264,5.264,0,0,1-5.245,5.038A5.261,5.261,0,0,1,0,5.039,5.264,5.264,0,0,1,5.246,0Z" transform="translate(107.364 278.451)" fill="#dceefb"/><path d="M5.134,10.284A5.261,5.261,0,0,1,0,5.134,5.265,5.265,0,0,1,5.15,0a5.263,5.263,0,0,1,5.134,5.15A5.261,5.261,0,0,1,5.134,10.284Z" transform="translate(31.047 169.267)" fill="#dceefb"/><path d="M10.278,5.148A5.258,5.258,0,0,1,5.13,10.28,5.261,5.261,0,0,1,0,5.132,5.26,5.26,0,0,1,5.148,0,5.259,5.259,0,0,1,10.278,5.148Z" transform="translate(52.218 184.868)" fill="#dceefb"/><path d="M5.016,0C8.085.047,9.944,2.034,9.831,5.149A4.54,4.54,0,0,1,4.822,9.827C1.757,9.783-.11,7.787,0,4.677.111,1.727,2.01-.045,5.016,0Z" transform="translate(92.548 227.987)" fill="#dceefb"/><path d="M4.7,9.837C1.647,9.728-.163,7.688.012,4.56.176,1.636,2.132-.1,5.144,0,8.19.111,10,2.153,9.828,5.283,9.665,8.207,7.71,9.943,4.7,9.837Z" transform="translate(42.968 171.16)" fill="#dceefb"/><path d="M9.82,5A4.532,4.532,0,0,1,4.9,9.818C1.787,9.81-.1,7.827,0,4.686.107,1.714,2.038-.074,5.064,0A4.542,4.542,0,0,1,9.82,5Z" transform="translate(0.082 139.976)" fill="#dceefb"/><path d="M5.05,0C8.112.064,9.959,2.065,9.828,5.184c-.123,2.946-2.034,4.7-5.042,4.644C1.727,9.767-.124,7.76.006,4.643.131,1.7,2.04-.061,5.05,0Z" transform="translate(73.608 200.691)" fill="#dceefb"/><path d="M4.919,9.83A4.529,4.529,0,0,1,0,5.056,4.571,4.571,0,0,1,4.917,0,4.536,4.536,0,0,1,9.836,4.776,4.57,4.57,0,0,1,4.919,9.83Z" transform="translate(109.817 266.979)" fill="#dceefb"/><path d="M9.834,4.921A4.573,4.573,0,0,1,4.776,9.836,4.537,4.537,0,0,1,0,4.917,4.576,4.576,0,0,1,5.06,0,4.535,4.535,0,0,1,9.834,4.921Z" transform="translate(21.245 155.565)" fill="#dceefb"/><path d="M5.02,0A4.529,4.529,0,0,1,9.815,4.948c-.02,3.1-2.013,4.983-5.154,4.863C1.7,9.7-.082,7.755,0,4.727.087,1.743,1.99-.049,5.02,0Z" transform="translate(32.951 157.805)" fill="#dceefb"/><path d="M9.823,4.968a4.531,4.531,0,0,1-4.9,4.851C1.81,9.825-.093,7.852,0,4.713.094,1.735,2-.051,5.043,0A4.531,4.531,0,0,1,9.823,4.968Z" transform="translate(102.022 241.918)" fill="#dceefb"/><path d="M9.219,2.992A4.461,4.461,0,0,0,4.752,0,4.525,4.525,0,0,0,0,2.992Z" transform="translate(117.372 292.601)" fill="#dceefb"/><path d="M4.8,9.833C1.74,9.779-.117,7.78.006,4.663.122,1.715,2.029-.053,5.035,0,8.1.055,9.958,2.055,9.836,5.169A4.552,4.552,0,0,1,4.8,9.833Z" transform="translate(83.075 214.614)" fill="#dceefb"/><path d="M0,4.841A4.531,4.531,0,0,1,4.909,0C8.016,0,9.921,1.983,9.82,5.12,9.726,8.1,7.8,9.886,4.771,9.82A4.535,4.535,0,0,1,0,4.841Z" transform="translate(64.146 187.326)" fill="#dceefb"/><path d="M9.814,4.938A4.525,4.525,0,0,1,4.948,9.813,4.568,4.568,0,0,1,0,4.737,4.534,4.534,0,0,1,5.008,0,4.536,4.536,0,0,1,9.814,4.938Z" transform="translate(119.296 280.915)" fill="#dceefb"/><path d="M9.788,4.835A4.745,4.745,0,0,1,4.956,9.788,4.748,4.748,0,0,1,0,4.958,4.762,4.762,0,0,1,4.835,0,4.749,4.749,0,0,1,9.788,4.835Z" transform="translate(112.068 255.302)" fill="#dceefb"/><path d="M9.777,4.986A4.744,4.744,0,0,1,4.792,9.779,4.741,4.741,0,0,1,0,4.8,4.743,4.743,0,0,1,4.984,0,4.744,4.744,0,0,1,9.777,4.986Z" transform="translate(94.807 216.313)" fill="#dceefb"/><path d="M4.869,9.786A4.739,4.739,0,0,1,0,4.871,4.745,4.745,0,0,1,4.917,0,4.745,4.745,0,0,1,9.788,4.917,4.743,4.743,0,0,1,4.869,9.786Z" transform="translate(54.135 173.415)" fill="#dceefb"/><path d="M4.909,9.778A4.737,4.737,0,0,1,0,4.911,4.736,4.736,0,0,1,4.867,0,4.738,4.738,0,0,1,9.778,4.865,4.743,4.743,0,0,1,4.909,9.778Z" transform="translate(85.336 202.945)" fill="#dceefb"/><path d="M9.784,5.114A4.76,4.76,0,0,1,4.676,9.786,4.761,4.761,0,0,1,0,4.676,4.762,4.762,0,0,1,5.114,0,4.757,4.757,0,0,1,9.784,5.114Z" transform="translate(11.797 141.662)" fill="#dceefb"/><path d="M4.989,0A4.889,4.889,0,1,1,0,4.848,4.9,4.9,0,0,1,4.989,0Z" transform="translate(121.551 269.236)" fill="#dceefb"/><path d="M9.775,5.014A4.889,4.889,0,1,1,4.952,0,4.9,4.9,0,0,1,9.775,5.014Z" transform="translate(44.67 159.501)" fill="#dceefb"/><path d="M4.965,0A4.889,4.889,0,1,1,0,4.874,4.892,4.892,0,0,1,4.965,0Z" transform="translate(75.869 189.021)" fill="#dceefb"/><path d="M4.989,0A4.889,4.889,0,1,1,0,4.848,4.9,4.9,0,0,1,4.989,0Z" transform="translate(104.282 230.242)" fill="#dceefb"/><path d="M4.951,0A4.869,4.869,0,0,1,9.633,4.881,4.865,4.865,0,0,1,4.547,9.629,4.877,4.877,0,0,1,0,4.616,4.869,4.869,0,0,1,4.951,0Z" transform="translate(116.046 232.54)" fill="#dceefb"/><path d="M4.811,0A4.873,4.873,0,0,1,9.639,4.744a4.868,4.868,0,0,1-4.951,4.9A4.871,4.871,0,0,1,0,4.758,4.865,4.865,0,0,1,4.811,0Z" transform="translate(106.575 218.61)" fill="#dceefb"/><path d="M0,0V8.429a4.859,4.859,0,0,0,2.558-4A4.866,4.866,0,0,0,0,0Z" transform="translate(0 115.041)" fill="#dceefb"/><path d="M9.645,4.7A4.883,4.883,0,0,1,5.02,9.645,4.875,4.875,0,0,1,0,4.813,4.872,4.872,0,0,1,4.764,0,4.88,4.88,0,0,1,9.645,4.7Z" transform="translate(123.838 257.603)" fill="#dceefb"/><path d="M9.645,4.758a4.875,4.875,0,0,1-4.69,4.883A4.884,4.884,0,0,1,0,5.022,4.873,4.873,0,0,1,4.832,0,4.872,4.872,0,0,1,9.645,4.758Z" transform="translate(97.099 205.242)" fill="#dceefb"/><path d="M4.795,9.664A4.883,4.883,0,0,1,0,4.868,4.882,4.882,0,0,1,5.006,0,4.892,4.892,0,0,1,9.661,4.938,4.887,4.887,0,0,1,4.795,9.664Z" transform="translate(23.56 143.952)" fill="#dceefb"/><path d="M4.943,9.625A4.882,4.882,0,0,1,0,5.009,4.87,4.87,0,0,1,4.827,0a4.868,4.868,0,0,1,4.8,4.752A4.877,4.877,0,0,1,4.943,9.625Z" transform="translate(125.516 245.914)" fill="#dceefb"/><path d="M9.649,4.73a4.879,4.879,0,0,1-4.66,4.915A4.886,4.886,0,0,1,.006,5.056,4.873,4.873,0,0,1,4.8,0,4.882,4.882,0,0,1,9.649,4.73Z" transform="translate(35.263 146.191)" fill="#dceefb"/><path d="M9.657,4.807A4.878,4.878,0,0,1,4.922,9.657,4.872,4.872,0,0,1,0,4.714,4.882,4.882,0,0,1,4.874,0,4.88,4.88,0,0,1,9.657,4.807Z" transform="translate(113.805 244.226)" fill="#dceefb"/><path d="M9.626,4.785A4.871,4.871,0,0,1,4.912,9.627,4.865,4.865,0,0,1,0,4.7,4.876,4.876,0,0,1,4.854,0,4.871,4.871,0,0,1,9.626,4.785Z" transform="translate(25.806 132.274)" fill="#dceefb"/><path d="M4.932,0a4.868,4.868,0,0,1,4.7,4.859A4.871,4.871,0,0,1,4.567,9.626,4.889,4.889,0,0,1,0,4.631,4.881,4.881,0,0,1,4.932,0Z" transform="translate(46.969 148.426)" fill="#dceefb"/><path d="M9.661,4.734A4.887,4.887,0,0,1,4.995,9.657a4.893,4.893,0,0,1-4.989-4.6A4.882,4.882,0,0,1,4.806,0,4.886,4.886,0,0,1,9.661,4.734Z" transform="translate(65.895 175.709)" fill="#dceefb"/><path d="M9.633,4.766A4.869,4.869,0,0,1,4.939,9.631,4.881,4.881,0,0,1,0,5.006,4.879,4.879,0,0,1,4.84,0,4.869,4.869,0,0,1,9.633,4.766Z" transform="translate(133.313 271.536)" fill="#dceefb"/><path d="M4.756,0A4.873,4.873,0,0,1,9.637,4.688,4.881,4.881,0,0,1,5.022,9.638,4.874,4.874,0,0,1,0,4.811,4.873,4.873,0,0,1,4.756,0Z" transform="translate(14.102 130.596)" fill="#dceefb"/><path d="M4.778,0A4.873,4.873,0,0,1,9.641,4.71,4.868,4.868,0,0,1,4.724,9.641,4.877,4.877,0,0,1,0,4.793,4.871,4.871,0,0,1,4.778,0Z" transform="translate(87.076 191.314)" fill="#dceefb"/><path d="M9.651,4.93A4.876,4.876,0,0,1,4.792,9.652,4.877,4.877,0,0,1,.006,4.585,4.889,4.889,0,0,1,5,0,4.882,4.882,0,0,1,9.651,4.93Z" transform="translate(2.395 128.361)" fill="#dceefb"/><path d="M9.646,4.79a4.871,4.871,0,0,1-4.72,4.855A4.869,4.869,0,0,1,0,4.718,4.877,4.877,0,0,1,4.86,0,4.875,4.875,0,0,1,9.646,4.79Z" transform="translate(56.433 161.788)" fill="#dceefb"/><path d="M9.635,4.795A4.873,4.873,0,0,1,4.91,9.635,4.864,4.864,0,0,1,0,4.7,4.872,4.872,0,0,1,4.864,0,4.873,4.873,0,0,1,9.635,4.795Z" transform="translate(77.608 177.391)" fill="#dceefb"/><path d="M0,4.813A4.869,4.869,0,0,1,4.742,0,4.865,4.865,0,0,1,9.625,4.952a4.867,4.867,0,0,1-4.881,4.67A4.859,4.859,0,0,1,0,4.813Z" transform="translate(68.143 164.026)" fill="#dceefb"/><path d="M9.649,4.774a4.871,4.871,0,0,1-4.7,4.871A4.884,4.884,0,0,1,0,5.014,4.881,4.881,0,0,1,4.848,0,4.872,4.872,0,0,1,9.649,4.774Z" transform="translate(131.076 283.227)" fill="#dceefb"/><path d="M9.463,4.67A4.732,4.732,0,1,1,4.6,0,4.725,4.725,0,0,1,9.463,4.67Z" transform="translate(89.392 179.704)" fill="#dceefb"/><path d="M9.463,4.641A4.732,4.732,0,1,1,4.568,0,4.719,4.719,0,0,1,9.463,4.641Z" transform="translate(98.863 193.628)" fill="#dceefb"/><path d="M4.648,0A4.732,4.732,0,1,1,0,4.886,4.718,4.718,0,0,1,4.648,0Z" transform="translate(108.887 207.001)" fill="#dceefb"/><path d="M4.61,9.464a4.733,4.733,0,1,1,4.855-4.68A4.729,4.729,0,0,1,4.61,9.464Z" transform="translate(58.751 150.181)" fill="#dceefb"/><path d="M9.461,4.648A4.731,4.731,0,1,1,4.578,0,4.721,4.721,0,0,1,9.461,4.648Z" transform="translate(142.871 284.989)" fill="#dceefb"/><path d="M9.457,4.672A4.729,4.729,0,1,1,4.6,0,4.7,4.7,0,0,1,9.457,4.672Z" transform="translate(37.583 134.583)" fill="#dceefb"/><path d="M9.463,4.668A4.732,4.732,0,1,1,4.6,0,4.725,4.725,0,0,1,9.463,4.668Z" transform="translate(4.719 116.757)" fill="#dceefb"/><path d="M4.631,9.463a4.732,4.732,0,1,1,4.833-4.7A4.725,4.725,0,0,1,4.631,9.463Z" transform="translate(118.357 220.927)" fill="#dceefb"/><path d="M4.608,0A4.731,4.731,0,1,1,0,4.927,4.717,4.717,0,0,1,4.608,0Z" transform="translate(135.068 259.922)" fill="#dceefb"/><path d="M9.41,4.571A4.943,4.943,0,0,1,4.7,9.408,4.962,4.962,0,0,1,0,4.839,4.95,4.95,0,0,1,4.712,0,4.964,4.964,0,0,1,9.41,4.571Z" transform="translate(145.123 273.319)" fill="#dceefb"/><path d="M4.673,9.406A4.944,4.944,0,0,1,0,4.531,4.971,4.971,0,0,1,4.74,0a4.942,4.942,0,0,1,4.67,4.873A4.971,4.971,0,0,1,4.673,9.406Z" transform="translate(70.477 152.438)" fill="#dceefb"/><path d="M4.908.005A4.915,4.915,0,0,1,9.4,5.047,4.955,4.955,0,0,1,4.5,9.415,4.927,4.927,0,0,1,.013,4.368,4.943,4.943,0,0,1,4.908.005Z" transform="translate(79.947 165.804)" fill="#dceefb"/><path d="M9.411,4.614a4.944,4.944,0,0,1-4.754,4.8A4.956,4.956,0,0,1,0,4.795,4.944,4.944,0,0,1,4.755,0,4.957,4.957,0,0,1,9.411,4.614Z" transform="translate(49.31 136.839)" fill="#dceefb"/><path d="M9.412,4.715a4.939,4.939,0,0,1-4.849,4.7A4.958,4.958,0,0,1,0,4.7,4.938,4.938,0,0,1,4.849,0,4.964,4.964,0,0,1,9.412,4.715Z" transform="translate(16.443 119.009)" fill="#dceefb"/><path d="M9.416,4.677A4.938,4.938,0,0,1,4.6,9.415,4.952,4.952,0,0,1,0,4.739,4.941,4.941,0,0,1,4.817,0,4.952,4.952,0,0,1,9.416,4.677Z" transform="translate(127.853 234.321)" fill="#dceefb"/><path d="M4.75,9.408A4.973,4.973,0,0,1,0,4.885,4.945,4.945,0,0,1,4.664,0,4.971,4.971,0,0,1,9.41,4.523,4.937,4.937,0,0,1,4.75,9.408Z" transform="translate(137.323 248.251)" fill="#dceefb"/><path d="M4.691,0A4.586,4.586,0,1,1,0,4.48,4.594,4.594,0,0,1,4.691,0Z" transform="translate(28.261 120.803)" fill="#dceefb"/><path d="M.181,0C.119,0,.06.011,0,.011V9.146A4.592,4.592,0,0,0,4.563,4.777,4.581,4.581,0,0,0,.181,0Z" transform="translate(0 102.988)" fill="#dceefb"/><path d="M9.171,4.6A4.585,4.585,0,1,1,4.6,0,4.58,4.58,0,0,1,9.171,4.6Z" transform="translate(110.706 195.45)" fill="#dceefb"/><path d="M4.6,9.171a4.585,4.585,0,1,1,4.567-4.6A4.581,4.581,0,0,1,4.6,9.171Z" transform="translate(101.236 182.079)" fill="#dceefb"/><path d="M4.53,0A4.586,4.586,0,1,1,0,4.636,4.587,4.587,0,0,1,4.53,0Z" transform="translate(120.182 209.375)" fill="#dceefb"/><path d="M4.457,0A4.9,4.9,0,0,1,9.151,4.6,4.941,4.941,0,0,1,4.7,9.154,4.9,4.9,0,0,1,0,4.559,4.941,4.941,0,0,1,4.457,0Z" transform="translate(130.214 222.752)" fill="#dceefb"/><path d="M2.007,8.22h5.1A4.772,4.772,0,0,0,9.148,4.685,4.944,4.944,0,0,0,4.822.007,4.9,4.9,0,0,0,0,4.468,4.787,4.787,0,0,0,2.007,8.22Z" transform="translate(154.725 287.373)" fill="#dceefb"/><path d="M0,4.376A4.882,4.882,0,0,1,4.908.013,4.932,4.932,0,0,1,9.144,4.77,4.9,4.9,0,0,1,4.235,9.13,4.914,4.914,0,0,1,0,4.376Z" transform="translate(61.143 138.643)" fill="#dceefb"/><path d="M4.589,9.153A4.9,4.9,0,0,1,0,4.449,4.944,4.944,0,0,1,4.567,0,4.9,4.9,0,0,1,9.155,4.7,4.948,4.948,0,0,1,4.589,9.153Z" transform="translate(146.922 262.305)" fill="#dceefb"/><path d="M9.149,4.453A4.9,4.9,0,0,1,4.555,9.147,4.94,4.94,0,0,1,0,4.692,4.9,4.9,0,0,1,4.6,0,4.935,4.935,0,0,1,9.149,4.453Z" transform="translate(39.413 123.045)" fill="#dceefb"/><path d="M4.627,0A4.909,4.909,0,0,1,9.157,4.763,4.946,4.946,0,0,1,4.535,9.153,4.913,4.913,0,0,1,0,4.389,4.947,4.947,0,0,1,4.627,0Z" transform="translate(91.772 168.162)" fill="#dceefb"/><path d="M8.7,4.364A4.186,4.186,0,0,1,4.336,8.7,4.189,4.189,0,0,1,0,4.336,4.2,4.2,0,0,1,4.366,0,4.185,4.185,0,0,1,8.7,4.364Z" transform="translate(6.772 105.442)" fill="#dceefb"/><path d="M8.672,4.289A4.164,4.164,0,0,1,4.316,8.672,4.153,4.153,0,0,1,0,4.525,4.185,4.185,0,0,1,4.221,0,4.166,4.166,0,0,1,8.672,4.289Z" transform="translate(103.712 170.63)" fill="#dceefb"/><path d="M8.7,4.324A4.187,4.187,0,0,1,4.374,8.7,4.186,4.186,0,0,1,0,4.375,4.193,4.193,0,0,1,4.326,0,4.185,4.185,0,0,1,8.7,4.324Z" transform="translate(82.532 155.021)" fill="#dceefb"/><path d="M8.675,4.262a4.168,4.168,0,0,1-4.33,4.415A4.167,4.167,0,0,1,0,4.278,4.163,4.163,0,0,1,4.192,0,4.174,4.174,0,0,1,8.675,4.262Z" transform="translate(122.652 197.923)" fill="#dceefb"/><path d="M8.687,4.475A4.2,4.2,0,0,1,4.141,8.687,4.171,4.171,0,0,1,0,4.351,4.178,4.178,0,0,1,4.4,0,4.188,4.188,0,0,1,8.687,4.475Z" transform="translate(18.477 107.676)" fill="#dceefb"/><path d="M8.675,4.252A4.168,4.168,0,0,1,4.357,8.677,4.168,4.168,0,0,1,0,4.291,4.154,4.154,0,0,1,4.176,0,4.187,4.187,0,0,1,8.675,4.252Z" transform="translate(132.122 211.85)" fill="#dceefb"/><path d="M8.678,4.369A4.168,4.168,0,0,1,4.241,8.675,4.18,4.18,0,0,1,0,4.168,4.163,4.163,0,0,1,4.3,0,4.169,4.169,0,0,1,8.678,4.369Z" transform="translate(72.515 141.105)" fill="#dceefb"/><path d="M8.7,4.22A4.189,4.189,0,0,1,4.481,8.7,4.19,4.19,0,0,1,0,4.477,4.2,4.2,0,0,1,4.226,0,4.187,4.187,0,0,1,8.7,4.22Z" transform="translate(139.907 236.91)" fill="#dceefb"/><path d="M4.274,8.679A4.172,4.172,0,0,1,0,4.208,4.189,4.189,0,0,1,4.543,0,4.162,4.162,0,0,1,8.679,4.337,4.183,4.183,0,0,1,4.274,8.679Z" transform="translate(113.18 183.994)" fill="#dceefb"/><path d="M8.678,4.379a4.166,4.166,0,0,1-4.443,4.3A4.165,4.165,0,0,1,0,4.443,4.175,4.175,0,0,1,4.307,0,4.171,4.171,0,0,1,8.678,4.379Z" transform="translate(51.345 125.504)" fill="#dceefb"/><path d="M8.675,4.469A4.188,4.188,0,0,1,4.135,8.675,4.159,4.159,0,0,1,0,4.345,4.167,4.167,0,0,1,4.4,0,4.178,4.178,0,0,1,8.675,4.469Z" transform="translate(157.19 275.914)" fill="#dceefb"/><path d="M8.677,4.319A4.171,4.171,0,0,1,4.29,8.678,4.16,4.16,0,0,1,0,4.5,4.192,4.192,0,0,1,4.252,0,4.169,4.169,0,0,1,8.677,4.319Z" transform="translate(149.389 250.845)" fill="#dceefb"/><path d="M8.509,4.32A4.15,4.15,0,0,1,4.263,8.512,4.161,4.161,0,0,1,0,4.332,4.171,4.171,0,0,1,4.387,0,4.161,4.161,0,0,1,8.509,4.32Z" transform="translate(95.995 145.086)" fill="#dceefb"/><path d="M8.539,4.38a4.161,4.161,0,0,1-4.3,4.161A4.181,4.181,0,0,1,.007,4.028,4.182,4.182,0,0,1,4.448,0,4.17,4.17,0,0,1,8.539,4.38Z" transform="translate(84.282 143.399)" fill="#dceefb"/><path d="M8.533,4.316a4.162,4.162,0,0,1-4.244,4.22A4.162,4.162,0,0,1,0,4.362,4.176,4.176,0,0,1,4.381,0,4.168,4.168,0,0,1,8.533,4.316Z" transform="translate(9.084 93.824)" fill="#dceefb"/><path d="M1.857,0A4.5,4.5,0,0,0,0,.32v7.9a4.454,4.454,0,0,0,1.589.321A4.172,4.172,0,0,0,5.926,4.4,4.174,4.174,0,0,0,1.857,0Z" transform="translate(0 92.15)" fill="#dceefb"/><path d="M8.523,4.37a4.161,4.161,0,0,1-4.3,4.153,4.176,4.176,0,0,1-4.22-4.5A4.178,4.178,0,0,1,4.44,0,4.167,4.167,0,0,1,8.523,4.37Z" transform="translate(143.895 213.597)" fill="#dceefb"/><path d="M8.522,4.2A4.164,4.164,0,0,1,4.393,8.52,4.17,4.17,0,0,1,0,4.461,4.176,4.176,0,0,1,4.27,0,4.16,4.16,0,0,1,8.522,4.2Z" transform="translate(53.653 113.888)" fill="#dceefb"/><path d="M4.4,8.536A4.174,4.174,0,0,1,0,4.465,4.18,4.18,0,0,1,4.283,0,4.16,4.16,0,0,1,8.54,4.208,4.173,4.173,0,0,1,4.4,8.536Z" transform="translate(41.944 111.651)" fill="#dceefb"/><path d="M4.364,8.549A4.167,4.167,0,0,1,.005,4.5,4.19,4.19,0,0,1,4.2,0,4.176,4.176,0,0,1,8.558,4.058,4.179,4.179,0,0,1,4.364,8.549Z" transform="translate(141.648 225.281)" fill="#dceefb"/><path d="M8.554,4.231A4.18,4.18,0,0,1,4.188,8.555,4.168,4.168,0,0,1,0,4.327,4.189,4.189,0,0,1,4.369,0,4.172,4.172,0,0,1,8.554,4.231Z" transform="translate(30.241 109.412)" fill="#dceefb"/><path d="M8.511,4.326a4.147,4.147,0,0,1-4.25,4.186A4.179,4.179,0,0,1,0,4.049,4.174,4.174,0,0,1,4.4,0,4.151,4.151,0,0,1,8.511,4.326Z" transform="translate(153.367 227.53)" fill="#dceefb"/><path d="M8.3,5.683A4.5,4.5,0,0,0,8.54,4.4,4.167,4.167,0,0,0,4.475,0,4.172,4.172,0,0,0,.008,4,4.506,4.506,0,0,0,.229,5.683Z" transform="translate(166.727 289.91)" fill="#dceefb"/><path d="M4.347,0A4.163,4.163,0,0,1,8.531,4.277a4.158,4.158,0,0,1-4.2,4.252A4.183,4.183,0,0,1,0,4.114,4.166,4.166,0,0,1,4.347,0Z" transform="translate(115.482 172.93)" fill="#dceefb"/><path d="M4.37,8.52A4.168,4.168,0,0,1,0,4.437,4.177,4.177,0,0,1,4.3,0,4.157,4.157,0,0,1,8.523,4.22,4.167,4.167,0,0,1,4.37,8.52Z" transform="translate(168.405 278.219)" fill="#dceefb"/><path d="M8.527,4.335a4.151,4.151,0,0,1-4.258,4.2A4.18,4.18,0,0,1,.005,4.057,4.173,4.173,0,0,1,4.406,0,4.154,4.154,0,0,1,8.527,4.335Z" transform="translate(124.95 186.299)" fill="#dceefb"/><path d="M8.544,4.208A4.17,4.17,0,0,1,4.4,8.54,4.173,4.173,0,0,1,0,4.473,4.183,4.183,0,0,1,4.282,0,4.164,4.164,0,0,1,8.544,4.208Z" transform="translate(63.111 127.247)" fill="#dceefb"/><path d="M8.535,4.334a4.152,4.152,0,0,1-4.258,4.2A4.162,4.162,0,0,1,0,4.348,4.178,4.178,0,0,1,4.4,0,4.167,4.167,0,0,1,8.535,4.334Z" transform="translate(151.688 239.215)" fill="#dceefb"/><path d="M8.522,4.255A4.16,4.16,0,0,1,4.33,8.515,4.174,4.174,0,0,1,0,4.116,4.153,4.153,0,0,1,4.33,0,4.147,4.147,0,0,1,8.522,4.255Z" transform="translate(105.46 159.015)" fill="#dceefb"/><path d="M4.376,0a4.16,4.16,0,0,1,4.145,4.3A4.176,4.176,0,0,1,4.01,8.517,4.179,4.179,0,0,1,0,4.077,4.167,4.167,0,0,1,4.376,0Z" transform="translate(74.821 129.483)" fill="#dceefb"/><path d="M8.55,4.291A4.172,4.172,0,0,1,4.4,8.551,4.179,4.179,0,0,1,0,4.265,4.181,4.181,0,0,1,4.423,0,4.176,4.176,0,0,1,8.55,4.291Z" transform="translate(93.749 156.764)" fill="#dceefb"/><path d="M8.545,4.2A4.16,4.16,0,0,1,4.422,8.546,4.181,4.181,0,0,1,.005,4.487,4.187,4.187,0,0,1,4.271,0,4.157,4.157,0,0,1,8.545,4.2Z" transform="translate(158.921 264.28)" fill="#dceefb"/><path d="M8.533,4.3A4.162,4.162,0,0,1,4.309,8.531,4.181,4.181,0,0,1,0,4.1,4.171,4.171,0,0,1,4.364,0,4.172,4.172,0,0,1,8.533,4.3Z" transform="translate(134.42 200.225)" fill="#dceefb"/><path d="M4.23,8.521A4.156,4.156,0,0,1,0,4.3,4.175,4.175,0,0,1,4.425,0a4.166,4.166,0,0,1,4.1,4.354A4.168,4.168,0,0,1,4.23,8.521Z" transform="translate(20.789 96.059)" fill="#dceefb"/><path d="M4.053,8.518A4.17,4.17,0,0,1,0,4.119,4.179,4.179,0,0,1,4.612.014a4.17,4.17,0,0,1,3.9,4.525A4.169,4.169,0,0,1,4.053,8.518Z" transform="translate(161.164 252.593)" fill="#dceefb"/><path d="M4.25,8.471A4.4,4.4,0,0,1,0,4.183,4.4,4.4,0,0,1,4.357,0,4.424,4.424,0,0,1,8.468,4.147,4.411,4.411,0,0,1,4.25,8.471Z" transform="translate(32.512 98.313)" fill="#dceefb"/><path d="M8.3,4.156A4.3,4.3,0,0,1,4.29,8.307,4.283,4.283,0,0,1,0,4.156,4.286,4.286,0,0,1,4.288,0,4.319,4.319,0,0,1,8.3,4.156Z" transform="translate(136.764 188.638)" fill="#dceefb"/><path d="M4.028,8.309A4.29,4.29,0,0,1,.009,3.89,4.3,4.3,0,0,1,4.283,0,4.284,4.284,0,0,1,8.3,4.419,4.3,4.3,0,0,1,4.028,8.309Z" transform="translate(65.458 116.221)" fill="#dceefb"/><path d="M8.306,4.041A4.286,4.286,0,0,1,4.127,8.3,4.3,4.3,0,0,1,0,4.264,4.3,4.3,0,0,1,4.181,0,4.3,4.3,0,0,1,8.306,4.041Z" transform="translate(126.736 174.715)" fill="#dceefb"/><path d="M4.179,0A4.285,4.285,0,0,1,8.31,4.312,4.3,4.3,0,0,1,4.137,8.307,4.291,4.291,0,0,1,0,3.995,4.3,4.3,0,0,1,4.179,0Z" transform="translate(170.74 266.627)" fill="#dceefb"/><path d="M4.21,0a4.293,4.293,0,0,1,4.1,4.344A4.3,4.3,0,0,1,4.1,8.3,4.29,4.29,0,0,1,0,3.961,4.309,4.309,0,0,1,4.21,0Z" transform="translate(86.625 131.82)" fill="#dceefb"/><path d="M3.981,0A4.3,4.3,0,0,0,0,2.788V5.551A4.322,4.322,0,0,0,3.78,8.306,4.3,4.3,0,0,0,8.028,4.39,4.285,4.285,0,0,0,3.981,0Z" transform="translate(0 80.571)" fill="#dceefb"/><path d="M8.3,4.234a4.271,4.271,0,0,1-4.36,4.073A4.305,4.305,0,0,1,0,4.081,4.286,4.286,0,0,1,4.367.006,4.285,4.285,0,0,1,8.3,4.234Z" transform="translate(163.503 240.999)" fill="#dceefb"/><path d="M4.021,0a4.511,4.511,0,0,1,4.258,3.95,4.465,4.465,0,0,1-4.157,4.33A4.5,4.5,0,0,1,0,4.191,4.5,4.5,0,0,1,4.021,0Z" transform="translate(180.228 280.567)" fill="#dceefb"/><path d="M8.243,3.884A4.491,4.491,0,0,0,4.079,0,4.5,4.5,0,0,0,0,3.884Z" transform="translate(178.578 291.708)" fill="#dceefb"/><path d="M4.109,8.284A4.5,4.5,0,0,1,0,4.183,4.46,4.46,0,0,1,4.308,0,4.513,4.513,0,0,1,8.281,4.242,4.513,4.513,0,0,1,4.109,8.284Z" transform="translate(77.171 117.903)" fill="#dceefb"/><path d="M4.117,8.3A4.5,4.5,0,0,1,0,4.189,4.461,4.461,0,0,1,4.316,0,4.513,4.513,0,0,1,8.3,4.249,4.5,4.5,0,0,1,4.117,8.3Z" transform="translate(44.297 100.07)" fill="#dceefb"/><path d="M8.288,4.248A4.5,4.5,0,0,1,4.114,8.287,4.462,4.462,0,0,1,.007,3.908,4.51,4.51,0,0,1,4.315,0,4.514,4.514,0,0,1,8.288,4.248Z" transform="translate(107.804 147.425)" fill="#dceefb"/><path d="M8.3,4.179A4.5,4.5,0,0,1,4.189,8.294,4.458,4.458,0,0,1,0,3.98,4.508,4.508,0,0,1,4.249,0,4.5,4.5,0,0,1,8.3,4.179Z" transform="translate(117.27 161.349)" fill="#dceefb"/><path d="M8.3,4.216A4.5,4.5,0,0,1,4.153,8.293,4.464,4.464,0,0,1,.005,3.942,4.524,4.524,0,0,1,4.289,0,4.5,4.5,0,0,1,8.3,4.216Z" transform="translate(146.236 202.015)" fill="#dceefb"/><path d="M4.279,0a4.5,4.5,0,0,1,4.013,4.2A4.46,4.46,0,0,1,3.881,8.281,4.52,4.52,0,0,1,0,3.945,4.514,4.514,0,0,1,4.279,0Z" transform="translate(11.431 82.25)" fill="#dceefb"/><path d="M4.343.005A4.505,4.505,0,0,1,8.288,4.277,4.455,4.455,0,0,1,3.807,8.272a4.488,4.488,0,0,1-3.8-4.395A4.5,4.5,0,0,1,4.343.005Z" transform="translate(155.712 215.945)" fill="#dceefb"/><path d="M8.273,4.339A4.5,4.5,0,0,1,4.005,8.282,4.455,4.455,0,0,1,.014,3.8,4.489,4.489,0,0,1,4.4.009,4.5,4.5,0,0,1,8.273,4.339Z" transform="translate(172.988 254.942)" fill="#dceefb"/><path d="M8.281,4.055A4.513,4.513,0,0,1,4.294,8.281,4.461,4.461,0,0,1,0,4.089,4.5,4.5,0,0,1,4.126,0,4.505,4.505,0,0,1,8.281,4.055Z" transform="translate(23.136 84.482)" fill="#dceefb"/><path d="M8.043,3.97A4.133,4.133,0,0,1,4,8.044,4.135,4.135,0,0,1,0,3.934,4.154,4.154,0,0,1,3.9,0,4.134,4.134,0,0,1,8.043,3.97Z" transform="translate(98.458 134.179)" fill="#dceefb"/><path d="M8.026,4.017A4.123,4.123,0,0,1,3.941,8.024,4.13,4.13,0,0,1,0,3.871,4.152,4.152,0,0,1,3.949,0,4.122,4.122,0,0,1,8.026,4.017Z" transform="translate(129.104 163.156)" fill="#dceefb"/><path d="M8.035,4.111a4.14,4.14,0,0,1-4.18,3.92A4.144,4.144,0,0,1,.007,3.784,4.149,4.149,0,0,1,4.044,0,4.143,4.143,0,0,1,8.035,4.111Z" transform="translate(34.957 86.835)" fill="#dceefb"/><path d="M4.123,8.047A4.134,4.134,0,0,1,0,4.059,4.153,4.153,0,0,1,3.782.008,4.147,4.147,0,0,1,8.046,3.852,4.15,4.15,0,0,1,4.123,8.047Z" transform="translate(165.304 229.99)" fill="#dceefb"/><path d="M8.024,4.142A4.138,4.138,0,0,1,3.816,8.026,4.151,4.151,0,0,1,0,4.023,4.128,4.128,0,0,1,4.073,0,4.128,4.128,0,0,1,8.024,4.142Z" transform="translate(182.583 268.996)" fill="#dceefb"/><path d="M4.091,0A4.133,4.133,0,0,1,8.024,4.162,4.141,4.141,0,0,1,3.8,8.024,4.15,4.15,0,0,1,0,4,4.123,4.123,0,0,1,4.091,0Z" transform="translate(67.83 104.664)" fill="#dceefb"/><path d="M4.006,8.049A4.134,4.134,0,0,1,0,3.939,4.142,4.142,0,0,1,4.177,0a4.159,4.159,0,0,1,3.87,3.969A4.145,4.145,0,0,1,4.006,8.049Z" transform="translate(56.12 102.423)" fill="#dceefb"/><path d="M4.039,8.031A4.124,4.124,0,0,1,0,3.972,4.13,4.13,0,0,1,4.128,0a4.146,4.146,0,0,1,3.9,3.92A4.133,4.133,0,0,1,4.039,8.031Z" transform="translate(138.573 177.078)" fill="#dceefb"/><path d="M3.916,0A4.125,4.125,0,0,1,8.027,3.982,4.137,4.137,0,0,1,4.254,8.019,4.137,4.137,0,0,1,0,4.183,4.136,4.136,0,0,1,3.916,0Z" transform="translate(174.781 243.371)" fill="#dceefb"/><path d="M8.028,4.107A4.134,4.134,0,0,1,3.853,8.024,4.14,4.14,0,0,1,.007,3.78,4.145,4.145,0,0,1,4.042,0,4.138,4.138,0,0,1,8.028,4.107Z" transform="translate(148.599 191.009)" fill="#dceefb"/><path d="M7.567,3.755a3.527,3.527,0,0,1-3.83,3.812A3.507,3.507,0,0,1,0,3.668,3.424,3.424,0,0,1,3.685,0,3.512,3.512,0,0,1,7.567,3.755Z" transform="translate(89.228 120.494)" fill="#dceefb"/><path d="M3.866,7.565A3.527,3.527,0,0,1,0,3.792,3.5,3.5,0,0,1,3.84,0,3.422,3.422,0,0,1,7.561,3.625,3.524,3.524,0,0,1,3.866,7.565Z" transform="translate(119.863 150.019)" fill="#dceefb"/><path d="M7.556,3.89A3.511,3.511,0,0,1,3.6,7.558,3.417,3.417,0,0,1,0,3.816,3.506,3.506,0,0,1,3.815,0,3.523,3.523,0,0,1,7.556,3.89Z" transform="translate(2.334 69.243)" fill="#dceefb"/><path d="M3.753,0a3.528,3.528,0,0,1,3.81,3.832,3.507,3.507,0,0,1-3.9,3.731A3.419,3.419,0,0,1,0,3.878,3.5,3.5,0,0,1,3.753,0Z" transform="translate(158.308 204.605)" fill="#dceefb"/><path d="M.006,3.513A3.552,3.552,0,0,1,3.864,0,3.572,3.572,0,0,1,7.429,4.072,3.557,3.557,0,0,1,3.444,7.435,3.55,3.55,0,0,1,.006,3.513Z" transform="translate(110.455 136.15)" fill="#dceefb"/><path d="M3.679,7.422A3.524,3.524,0,0,1,0,3.753,3.555,3.555,0,0,1,3.876,0,3.538,3.538,0,0,1,7.419,3.812,3.54,3.54,0,0,1,3.679,7.422Z" transform="translate(141.106 165.683)" fill="#dceefb"/><path d="M7.441,3.669a3.544,3.544,0,0,1-3.6,3.766A3.552,3.552,0,0,1,0,3.906,3.571,3.571,0,0,1,3.744,0,3.539,3.539,0,0,1,7.441,3.669Z" transform="translate(13.527 70.979)" fill="#dceefb"/><path d="M3.828,0A3.529,3.529,0,0,1,7.423,3.753,3.553,3.553,0,0,1,3.464,7.416,3.553,3.553,0,0,1,0,3.526,3.54,3.54,0,0,1,3.828,0Z" transform="translate(25.234 73.214)" fill="#dceefb"/><path d="M7.438,3.784A3.533,3.533,0,0,1,3.73,7.441,3.545,3.545,0,0,1,0,3.8,3.57,3.57,0,0,1,3.851,0,3.544,3.544,0,0,1,7.438,3.784Z" transform="translate(167.833 218.596)" fill="#dceefb"/><path d="M7.42,3.757A3.527,3.527,0,0,1,3.735,7.421,3.53,3.53,0,0,1,0,3.8,3.553,3.553,0,0,1,3.825,0,3.533,3.533,0,0,1,7.42,3.757Z" transform="translate(150.576 179.612)" fill="#dceefb"/><path d="M7.445,3.617A3.556,3.556,0,0,1,3.9,7.445,3.575,3.575,0,0,1,0,3.69,3.543,3.543,0,0,1,3.685,0,3.557,3.557,0,0,1,7.445,3.617Z" transform="translate(46.393 88.8)" fill="#dceefb"/><path d="M7.429,3.83a3.536,3.536,0,0,1-3.756,3.6A3.558,3.558,0,0,1,.008,3.466,3.555,3.555,0,0,1,3.9,0,3.543,3.543,0,0,1,7.429,3.83Z" transform="translate(58.098 91.035)" fill="#dceefb"/><path d="M7.429,3.83a3.537,3.537,0,0,1-3.756,3.6A3.559,3.559,0,0,1,.008,3.466,3.554,3.554,0,0,1,3.9,0,3.543,3.543,0,0,1,7.429,3.83Z" transform="translate(177.308 231.971)" fill="#dceefb"/><path d="M7.435,3.832a3.538,3.538,0,0,1-3.758,3.6A3.562,3.562,0,0,1,.008,3.469,3.558,3.558,0,0,1,3.9,0,3.547,3.547,0,0,1,7.435,3.832Z" transform="translate(79.263 106.63)" fill="#dceefb"/><path d="M7.428,3.847A3.535,3.535,0,0,1,3.655,7.426,3.56,3.56,0,0,1,.01,3.443,3.542,3.542,0,0,1,3.918.005,3.538,3.538,0,0,1,7.428,3.847Z" transform="translate(192.349 282.665)" fill="#dceefb"/><path d="M7.417,3.7A3.53,3.53,0,0,1,3.786,7.413,3.555,3.555,0,0,1,0,3.575,3.531,3.531,0,0,1,3.772,0,3.521,3.521,0,0,1,7.417,3.7Z" transform="translate(160.047 192.988)" fill="#dceefb"/><path d="M3.793,7.429A3.527,3.527,0,0,1,0,3.866,3.55,3.55,0,0,1,3.5.006a3.561,3.561,0,0,1,3.93,3.707A3.523,3.523,0,0,1,3.793,7.429Z" transform="translate(185.106 257.591)" fill="#dceefb"/><path d="M7.426,3.673a3.535,3.535,0,0,1-3.6,3.752A3.559,3.559,0,0,1,0,3.613,3.544,3.544,0,0,1,3.745,0,3.527,3.527,0,0,1,7.426,3.673Z" transform="translate(100.994 122.792)" fill="#dceefb"/><path d="M7.362,3.781A3.8,3.8,0,0,1,3.494,7.346,3.718,3.718,0,0,1,.023,3.414,3.564,3.564,0,0,1,3.725,0,3.729,3.729,0,0,1,7.362,3.781Z" transform="translate(131.667 151.806)" fill="#dceefb"/><path d="M3.558,7.357A3.8,3.8,0,0,1,.005,3.482,3.716,3.716,0,0,1,3.944.024a3.559,3.559,0,0,1,3.4,3.707A3.717,3.717,0,0,1,3.558,7.357Z" transform="translate(36.962 75.476)" fill="#dceefb"/><path d="M3.572,0A3.784,3.784,0,0,1,7.349,3.649,3.7,3.7,0,0,1,3.634,7.336,3.562,3.562,0,0,1,.015,3.843,3.712,3.712,0,0,1,3.572,0Z" transform="translate(194.622 271.002)" fill="#dceefb"/><path d="M7.342,3.727a3.71,3.71,0,0,1-3.8,3.607A3.554,3.554,0,0,1,.008,3.766,3.71,3.71,0,0,1,3.647,0,3.781,3.781,0,0,1,7.342,3.727Z" transform="translate(186.831 245.936)" fill="#dceefb"/><path d="M7.353,3.59A3.711,3.711,0,0,1,3.7,7.34,3.561,3.561,0,0,1,.021,3.912,3.728,3.728,0,0,1,3.515,0,3.8,3.8,0,0,1,7.353,3.59Z" transform="translate(122.201 138.419)" fill="#dceefb"/><path d="M7.353,3.77A3.8,3.8,0,0,1,3.5,7.338,3.71,3.71,0,0,1,.023,3.418,3.561,3.561,0,0,1,3.714,0,3.721,3.721,0,0,1,7.353,3.77Z" transform="translate(69.838 93.318)" fill="#dceefb"/><path d="M3.573,7.353A3.8,3.8,0,0,1,0,3.5,3.712,3.712,0,0,1,3.927.023,3.558,3.558,0,0,1,7.341,3.714,3.719,3.719,0,0,1,3.573,7.353Z" transform="translate(90.998 108.902)" fill="#dceefb"/><path d="M3.575,7.355A3.8,3.8,0,0,1,0,3.5,3.712,3.712,0,0,1,3.929.023,3.559,3.559,0,0,1,7.345,3.716,3.718,3.718,0,0,1,3.575,7.355Z" transform="translate(170.098 206.943)" fill="#dceefb"/><path d="M7.206,3.747C6.79,5.822,5.635,7.112,3.455,7.129A3.559,3.559,0,0,1,.035,3.22C.368,1.116,1.7-.155,3.853.015,5.989.184,7.058,1.625,7.206,3.747Z" transform="translate(179.665 220.434)" fill="#dceefb"/><path d="M3.6,0c2.084.316,3.49,1.431,3.508,3.581A3.393,3.393,0,0,1,3.68,7.18,3.563,3.563,0,0,1,.009,3.523C.184,1.378,1.508.273,3.6,0Z" transform="translate(60.47 79.433)" fill="#dceefb"/><path d="M3.837,0a3.549,3.549,0,0,1,3.3,3.535A3.559,3.559,0,0,1,3.419,7.162,3.468,3.468,0,0,1,0,3.513,3.683,3.683,0,0,1,3.837,0Z" transform="translate(4.215 57.735)" fill="#dceefb"/><path d="M7.168,3.865A3.449,3.449,0,0,1,3.629,7.135,3.391,3.391,0,0,1,.012,3.71,3.626,3.626,0,0,1,3.663,0,3.788,3.788,0,0,1,7.168,3.865Z" transform="translate(152.936 168.034)" fill="#dceefb"/><path d="M7.2,3.517c-.273,2.1-1.38,3.428-3.531,3.6A3.558,3.558,0,0,1,.011,3.436,3.4,3.4,0,0,1,3.622,0C5.776.018,6.9,1.427,7.2,3.517Z" transform="translate(15.899 60.009)" fill="#dceefb"/><path d="M7.2,3.675c-.374,2.07-1.509,3.372-3.675,3.44a3.555,3.555,0,0,1-3.5-3.824c.289-2.1,1.6-3.4,3.748-3.283S7,1.557,7.2,3.675Z" transform="translate(81.628 95.102)" fill="#dceefb"/><path d="M3.456,0C5.556.241,6.888,1.336,7.1,3.468A3.561,3.561,0,0,1,3.483,7.178,3.4,3.4,0,0,1,0,3.629C-.02,1.477,1.383.352,3.456,0Z" transform="translate(27.639 61.609)" fill="#dceefb"/><path d="M7.2,3.641c-.36,2.072-1.487,3.38-3.647,3.466a3.562,3.562,0,0,1-3.529-3.8A3.4,3.4,0,0,1,3.745.006C5.877.106,6.972,1.535,7.2,3.641Z" transform="translate(133.994 140.786)" fill="#dceefb"/><path d="M3.574,0c2.1.291,3.506,1.4,3.545,3.555A3.4,3.4,0,0,1,3.712,7.19,3.569,3.569,0,0,1,.007,3.557C.16,1.4,1.48.293,3.574,0Z" transform="translate(162.41 181.37)" fill="#dceefb"/><path d="M7.159,3.906A3.552,3.552,0,0,1,3.55,7.129,3.56,3.56,0,0,1,.023,3.33,3.481,3.481,0,0,1,3.747,0,3.7,3.7,0,0,1,7.159,3.906Z" transform="translate(102.798 111.242)" fill="#dceefb"/><path d="M7.161,3.863A3.551,3.551,0,0,1,3.606,7.13,3.562,3.562,0,0,1,.017,3.389,3.483,3.483,0,0,1,3.691,0,3.7,3.7,0,0,1,7.161,3.863Z" transform="translate(171.875 195.357)" fill="#dceefb"/><path d="M7.167,3.775A3.553,3.553,0,0,1,3.7,7.137,3.559,3.559,0,0,1,.009,3.488,3.478,3.478,0,0,1,3.59,0,3.7,3.7,0,0,1,7.167,3.775Z" transform="translate(196.947 259.412)" fill="#dceefb"/><path d="M3.664,7.193C1.557,6.956.224,5.859.013,3.72A3.561,3.561,0,0,1,3.63.007a3.394,3.394,0,0,1,3.49,3.549C7.139,5.71,5.738,6.839,3.664,7.193Z" transform="translate(204.185 285.036)" fill="#dceefb"/><path d="M3.741,0C5.81.42,7.1,1.573,7.116,3.748a3.554,3.554,0,0,1-3.9,3.414C1.12,6.828-.156,5.5.015,3.35.184,1.222,1.625.153,3.741,0Z" transform="translate(143.495 154.084)" fill="#dceefb"/><path d="M3.643,0C5.718.36,7.025,1.487,7.111,3.649a3.561,3.561,0,0,1-3.8,3.53A3.4,3.4,0,0,1,.006,3.456C.106,1.32,1.535.225,3.643,0Z" transform="translate(189.178 234.294)" fill="#dceefb"/><path d="M3.468,0C5.58.235,6.917,1.332,7.122,3.478A3.561,3.561,0,0,1,3.495,7.2,3.4,3.4,0,0,1,0,3.641C-.02,1.475,1.381.346,3.468,0Z" transform="translate(112.3 124.546)" fill="#dceefb"/><path d="M3.835,0A3.453,3.453,0,0,1,7.116,3.51a3.394,3.394,0,0,1-3.4,3.625A3.64,3.64,0,0,1,0,3.51,3.792,3.792,0,0,1,3.835,0Z" transform="translate(123.966 126.823)" fill="#dceefb"/><path d="M7.177,3.875A3.547,3.547,0,0,1,3.612,7.146,3.563,3.563,0,0,1,.017,3.394,3.485,3.485,0,0,1,3.7,0,3.7,3.7,0,0,1,7.177,3.875Z" transform="translate(48.757 77.808)" fill="#dceefb"/><path d="M6.913,3.368a3.442,3.442,0,0,1-3.44,3.551A3.389,3.389,0,0,1,0,3.412,3.282,3.282,0,0,1,3.3.012,3.388,3.388,0,0,1,6.913,3.368Z" transform="translate(182.03 208.833)" fill="#dceefb"/><path d="M6.915,3.48A3.442,3.442,0,0,1,3.351,6.9,3.388,3.388,0,0,1,.013,3.271,3.266,3.266,0,0,1,3.423,0,3.383,3.383,0,0,1,6.915,3.48Z" transform="translate(198.738 248.399)" fill="#dceefb"/><path d="M3.264,6.9A3.445,3.445,0,0,1,.01,3.188,3.393,3.393,0,0,1,3.792.029,3.27,3.27,0,0,1,6.9,3.581,3.38,3.38,0,0,1,3.264,6.9Z" transform="translate(206.533 273.455)" fill="#dceefb"/><path d="M3.471,0A3.44,3.44,0,0,1,6.907,3.551,3.389,3.389,0,0,1,3.29,6.9,3.28,3.28,0,0,1,0,3.5,3.385,3.385,0,0,1,3.471,0Z" transform="translate(39.426 63.996)" fill="#dceefb"/><path d="M6.906,3.424a3.441,3.441,0,0,1-3.5,3.48,3.39,3.39,0,0,1-3.4-3.569A3.279,3.279,0,0,1,3.361.008,3.381,3.381,0,0,1,6.906,3.424Z" transform="translate(72.291 81.834)" fill="#dceefb"/><path d="M6.908,3.531A3.39,3.39,0,0,1,3.311,6.9,3.274,3.274,0,0,1,.005,3.529,3.388,3.388,0,0,1,3.448,0,3.45,3.45,0,0,1,6.908,3.531Z" transform="translate(93.46 97.419)" fill="#dceefb"/><path d="M3.381,0C5.341.318,6.6,1.376,6.755,3.4a3.441,3.441,0,0,1-3.541,3.44A3.267,3.267,0,0,1,0,3.366C.054,1.354,1.414.3,3.381,0Z" transform="translate(114.712 113.028)" fill="#dceefb"/><path d="M2.582,0C5.409.567,6.663,1.64,6.743,3.675A3.434,3.434,0,0,1,3.1,7C1.135,6.7-.34,5.379.068,3.46.364,2.074,1.857.942,2.582,0Z" transform="translate(191.599 222.593)" fill="#dceefb"/><path d="M3.244,6.313C1.289,6.239.085,5.3,0,3.3a2.84,2.84,0,0,1,2.9-3.3A2.872,2.872,0,0,1,6.28,3.11C6.314,5.091,5.187,6.128,3.244,6.313Z" transform="translate(145.573 142.86)" fill="#dceefb"/><path d="M6.31,3.067C6.236,5,5.29,6.2,3.3,6.278A2.842,2.842,0,0,1,.007,3.364,2.872,2.872,0,0,1,3.119,0C5.1-.028,6.14,1.1,6.31,3.067Z" transform="translate(165.072 170.157)" fill="#dceefb"/><path d="M6.315,3.2C6.164,5.179,5.124,6.3,3.144,6.287A2.876,2.876,0,0,1,.006,2.939,2.843,2.843,0,0,1,3.279,0C5.272.069,6.231,1.259,6.315,3.2Z" transform="translate(155.599 156.782)" fill="#dceefb"/><path d="M6.31,3.135c-.123,1.955-1.115,3.121-3.1,3.139A2.867,2.867,0,0,1,0,3a2.832,2.832,0,0,1,3.2-3C5.2.031,6.187,1.182,6.31,3.135Z" transform="translate(174.545 184.086)" fill="#dceefb"/><path d="M3.161,0C5.225.191,6.322,1.254,6.28,3.229c-.044,2.136-1.3,3.2-3.39,3.082C.889,6.2-.074,4.931,0,2.994.087.987,1.335.092,3.161,0Z" transform="translate(51.43 66.502)" fill="#dceefb"/><path d="M6.231,3.1C6.016,5.04,4.991,6.227,3.005,6.169A2.846,2.846,0,0,1,0,2.934,2.82,2.82,0,0,1,3.036,0C5.031-.024,6.032,1.164,6.231,3.1Z" transform="translate(96.048 86.095)" fill="#dceefb"/><path d="M2.985,0C5.07.231,6.266,1.264,6.208,3.257a2.864,2.864,0,0,1-3.255,3.02A2.844,2.844,0,0,1,0,3.227C-.033,1.2,1.214.255,2.985,0Z" transform="translate(201.316 236.968)" fill="#dceefb"/><path d="M6.262,3.019C6.109,4.964,5.129,6.181,3.129,6.208A2.834,2.834,0,0,1,.009,3.336,2.87,2.87,0,0,1,2.948.007C4.932-.1,6,1.063,6.262,3.019Z" transform="translate(105.501 100.002)" fill="#dceefb"/><path d="M3.131,0C5.082.225,6.263,1.266,6.193,3.255A2.855,2.855,0,0,1,2.928,6.247,2.834,2.834,0,0,1,0,3.187C-.01,1.192,1.186.187,3.131,0Z" transform="translate(63.172 68.202)" fill="#dceefb"/><path d="M3.137,0c1.955.225,3.141,1.27,3.07,3.261a2.864,2.864,0,0,1-3.273,3A2.841,2.841,0,0,1,0,3.193C-.01,1.2,1.19.187,3.137,0Z" transform="translate(136.139 129.471)" fill="#dceefb"/><path d="M2.961,0C4.9.129,6.144,1.085,6.176,3.074a2.847,2.847,0,0,1-3.09,3.153A2.82,2.82,0,0,1,.007,3.342C-.1,1.366,1.018.281,2.961,0Z" transform="translate(167.35 159.015)" fill="#dceefb"/><path d="M6.276,3.039c-.249,2.07-1.3,3.233-3.293,3.171A2.83,2.83,0,0,1,0,3.2,2.875,2.875,0,0,1,3.087,0C5.1-.024,6.053,1.24,6.276,3.039Z" transform="translate(84.337 84.403)" fill="#dceefb"/><path d="M6.237,3.1C6.022,5.044,4.995,6.234,3.007,6.175A2.85,2.85,0,0,1,0,2.936,2.823,2.823,0,0,1,3.04,0C5.037-.024,6.036,1.164,6.237,3.1Z" transform="translate(210.8 250.425)" fill="#dceefb"/><path d="M3.133,0C5.082.229,6.257,1.274,6.181,3.257A2.85,2.85,0,0,1,2.912,6.235,2.829,2.829,0,0,1,0,3.169C0,1.177,1.194.179,3.133,0Z" transform="translate(30.312 50.383)" fill="#dceefb"/><path d="M3.009,0c1.947.147,3.185,1.123,3.2,3.123A2.858,2.858,0,0,1,3.07,6.257,2.839,2.839,0,0,1,.005,3.324C-.089,1.338,1.056.263,3.009,0Z" transform="translate(18.6 48.703)" fill="#dceefb"/><path d="M2.47,6.722C1.626,5.537.3,4.444.054,3.146-.293,1.281,1.063.039,3.012,0S6.37,1.144,6.095,3.023C5.9,4.331,4.618,5.477,3.822,6.694Z" transform="translate(6.932 46.524)" fill="#dceefb"/><path d="M6.263,3.193C6,5.15,4.925,6.3,2.938,6.207A2.837,2.837,0,0,1,0,3.145,2.86,2.86,0,0,1,3.131,0C5.136.008,6.1,1.256,6.263,3.193Z" transform="translate(208.559 262.108)" fill="#dceefb"/><path d="M3.007,6.243C1.056,5.982-.084,4.911,0,2.93A2.827,2.827,0,0,1,3.057,0,2.85,2.85,0,0,1,6.192,3.121C6.184,5.12,4.94,6.085,3.007,6.243Z" transform="translate(126.676 115.61)" fill="#dceefb"/><path d="M6.257,3.1c-.263,2.042-1.338,3.177-3.32,3.092A2.831,2.831,0,0,1,0,3.143,2.857,2.857,0,0,1,3.119,0C5.134,0,6.064,1.272,6.257,3.1Z" transform="translate(193.524 211.423)" fill="#dceefb"/><path d="M3,0C4.95.141,6.193,1.115,6.211,3.115A2.86,2.86,0,0,1,3.083,6.261,2.84,2.84,0,0,1,.006,3.336C-.1,1.35,1.049.269,3,0Z" transform="translate(184.043 197.992)" fill="#dceefb"/><path d="M2.869,0c2.1.165,3.311,1.145,3.34,3.143A2.832,2.832,0,0,1,3.337,6.259,2.873,2.873,0,0,1,.007,3.324C-.107,1.32,1.113.312,2.869,0Z" transform="translate(216.356 287.67)" fill="#dceefb"/><path d="M2.167,6.449C1.414,5.28.16,4.165.021,2.927-.194,1.014,1.239-.138,3.2.013,5.021.154,6.259,1.436,5.855,3.174,5.567,4.406,4.261,5.4,3.411,6.506Z" transform="translate(218.753 276.137)" fill="#dceefb"/><path d="M2.411,6.481C1.585,5.362.265,4.329.05,3.1-.282,1.21,1.073-.028,3.04,0,4.863.029,6.175,1.226,5.881,2.982,5.672,4.228,4.43,5.3,3.651,6.453Z" transform="translate(147.981 131.309)" fill="#dceefb"/><path d="M2.307,6.444C1.517,5.3.267,4.247.046,3.006c-.311-1.748.989-2.958,2.8-3,1.957-.05,3.326,1.172,3.014,3.06C5.662,4.288,4.35,5.33,3.537,6.456Z" transform="translate(220.404 264.454)" fill="#dceefb"/><path d="M6.48,3.448c-1.109.838-2.118,2.13-3.35,2.4C1.4,6.229.128,4.975.01,3.165-.119,1.211,1.047-.211,2.949.026,4.183.181,5.28,1.446,6.438,2.214Q6.459,2.832,6.48,3.448Z" transform="translate(138.483 117.998)" fill="#dceefb"/><path d="M6.5,3.454c-1.111.84-2.12,2.138-3.356,2.411C1.4,6.25.123,5,.009,3.179-.114,1.228,1.034-.215,2.953.026c1.242.157,2.343,1.421,3.5,2.19C6.471,2.629,6.483,3.043,6.5,3.454Z" transform="translate(117.31 102.392)" fill="#dceefb"/><path d="M3.641.032c.78,1.147,2.019,2.218,2.228,3.46.291,1.75-1.015,2.95-2.835,2.972C1.081,6.488-.283,5.261.05,3.374.267,2.148,1.587,1.117,2.413,0Z" transform="translate(213.162 238.331)" fill="#dceefb"/><path d="M3.485,0c.83,1.115,2.156,2.14,2.375,3.362C6.2,5.247,4.851,6.49,2.888,6.472,1.065,6.456-.245,5.257.039,3.508.24,2.263,1.475,1.186,2.251.034Z" transform="translate(53.85 54.5)" fill="#dceefb"/><path d="M6.494,3.456C5.383,4.294,4.372,5.59,3.136,5.862,1.4,6.243.128,4.987.01,3.171-.119,1.212,1.045-.213,2.955.026c1.238.155,2.337,1.421,3.5,2.19Z" transform="translate(186.383 186.51)" fill="#dceefb"/><path d="M6.468,3.654C5.318,4.44,4.241,5.722,3.005,5.9c-1.911.271-3.094-1.137-3-3.1C.092.976,1.346-.294,3.092.059c1.24.253,2.271,1.529,3.4,2.349C6.48,2.824,6.474,3.238,6.468,3.654Z" transform="translate(42.104 52.777)" fill="#dceefb"/><path d="M2.415,6.489C1.587,5.368.267,4.333.05,3.1-.282,1.21,1.075-.028,3.044,0,4.872.027,6.185,1.226,5.889,2.986,5.68,4.234,4.438,5.309,3.659,6.461Z" transform="translate(176.943 172.528)" fill="#dceefb"/><path d="M6.468,3.618C5.322,4.41,4.261,5.661,3.016,5.885,1.259,6.2.046,4.9,0,3.071-.049,1.1,1.173-.27,3.072.045,4.3.25,5.351,1.562,6.48,2.378,6.476,2.79,6.472,3.2,6.468,3.618Z" transform="translate(74.974 70.62)" fill="#dceefb"/><path d="M6.451,3.555c-1.129.8-2.174,2.066-3.412,2.3C1.295,6.188.067,4.9,0,3.087-.067,1.132,1.136-.253,3.031.039,4.259.228,5.314,1.526,6.447,2.328,6.449,2.735,6.451,3.145,6.451,3.555Z" transform="translate(9.25 34.986)" fill="#dceefb"/><path d="M2.467,6.47C1.629,5.363.337,4.356.068,3.124c-.38-1.73.876-3,2.681-3.115C4.7-.119,6.116,1.049,5.881,2.945,5.726,4.181,4.458,5.276,3.689,6.434Z" transform="translate(86.69 72.824)" fill="#dceefb"/><path d="M3.454,3.35C3.183,2.116,1.887,1.109,1.047,0L0,.038v6.41a4.26,4.26,0,0,0,.774.026C2.588,6.358,3.836,5.084,3.454,3.35Z" transform="translate(0 32.209)" fill="#dceefb"/><path d="M2.474,6.5C1.636,5.387.34,4.376.069,3.14-.313,1.4.941.128,2.759.01,4.72-.119,6.145,1.046,5.906,2.959,5.751,4.2,4.485,5.3,3.716,6.458Q3.095,6.476,2.474,6.5Z" transform="translate(203.659 225.445)" fill="#dceefb"/><path d="M2.47,6.48C1.632,5.371.338,4.362.069,3.13-.313,1.4.943.128,2.751.01,4.7-.119,6.127,1.046,5.89,2.949,5.737,4.183,4.469,5.28,3.7,6.438Z" transform="translate(195.869 199.829)" fill="#dceefb"/><path d="M6.468,3.439c-1.105.836-2.112,2.13-3.344,2.4-1.73.378-3-.876-3.115-2.681C-.119,1.209,1.047-.21,2.945.025,4.177.176,5.27,1.444,6.428,2.212,6.44,2.622,6.454,3.03,6.468,3.439Z" transform="translate(107.849 88.48)" fill="#dceefb"/><path d="M3.652.026C4.44,1.173,5.722,2.252,5.9,3.486c.271,1.911-1.137,3.094-3.1,3C.976,6.4-.294,5.146.059,3.4.312,2.158,1.592,1.125,2.412,0Z" transform="translate(157.434 144.734)" fill="#dceefb"/><path d="M7.172,2.557c-1.849,1.483-3,3.094-3.928,2.978C2.07,5.389,1.073,3.829,0,2.881.908,1.856,1.746.1,2.739.005,3.866-.1,5.128,1.3,7.172,2.557Z" transform="translate(205.35 213.977)" fill="#dceefb"/><path d="M7.172,2.968C5.138,4.238,3.884,5.639,2.755,5.542,1.762,5.46.912,3.7,0,2.683,1.067,1.727,2.056.159,3.227.006,4.161-.114,5.317,1.493,7.172,2.968Z" transform="translate(20.964 37.383)" fill="#dceefb"/><path d="M6.121,3.157C5.056,3.941,3.936,5.4,2.944,5.321,1.9,5.233.977,3.671,0,2.753.918,1.776,1.742.161,2.781.01c.985-.143,2.19,1.248,3.3,1.965C6.095,2.369,6.107,2.763,6.121,3.157Z" transform="translate(159.8 133.865)" fill="#dceefb"/><path d="M6.137,3.167c-1.065.786-2.188,2.255-3.181,2.172C1.907,5.251.979,3.686,0,2.767.918,1.787,1.744.165,2.787.01c.985-.145,2.2,1.252,3.309,1.971C6.111,2.376,6.123,2.771,6.137,3.167Z" transform="translate(228.311 289.832)" fill="#dceefb"/><path d="M6.139,3.167c-1.067.784-2.19,2.251-3.185,2.168C1.9,5.246.981,3.679,0,2.759.922,1.78,1.752.157,2.789.01c.995-.141,2.2,1.254,3.32,1.975Z" transform="translate(129.153 104.335)" fill="#dceefb"/><path d="M2.172,5.926C1.388,4.861-.081,3.74,0,2.747.09,1.7,1.631.031,2.58,0S5.174,1.536,5.326,2.576c.145.985-1.252,2.2-1.971,3.307Z" transform="translate(169.448 147.816)" fill="#dceefb"/><path d="M3.353.04c.715,1.111,2.108,2.321,1.963,3.3C5.163,4.383,3.546,5.2,2.567,6.123,1.651,5.142.09,4.218,0,3.171-.079,2.18,1.388,1.061,2.171,0Z" transform="translate(32.416 38.551)" fill="#dceefb"/><path d="M.052,1.97C1.165,1.255,2.381-.136,3.366.011,4.407.165,5.226,1.789,6.143,2.77c-.981.912-1.913,2.474-2.96,2.554C2.184,5.4,1.065,3.937,0,3.151Z" transform="translate(64.647 56.983)" fill="#dceefb"/><path d="M6.127,3.161C5.062,3.945,3.94,5.41,2.948,5.325,1.9,5.237.977,3.674,0,2.755.918,1.779,1.744.161,2.785.01c.985-.145,2.192,1.25,3.3,1.967Q6.107,2.568,6.127,3.161Z" transform="translate(178.737 161.159)" fill="#dceefb"/><path d="M3.351.044c.713,1.111,2.1,2.323,1.957,3.307C5.151,4.389,3.534,5.208,2.553,6.123,1.641,5.142.089,4.216,0,3.169-.075,2.176,1.384,1.061,2.167,0Z" transform="translate(188.96 174.472)" fill="#dceefb"/><path d="M1.81,5.375C1.155,4.369-.043,3.336,0,2.361.039,1.483,1.548-.09,2.218,0a3.664,3.664,0,0,1,2.59,2.319c.151.892-1.109,2.022-1.748,3.046Z" transform="translate(150.763 120.21)" fill="#dceefb"/><path d="M0,1.934C.983,1.235,2.032-.091,2.926,0a3.672,3.672,0,0,1,2.48,2.441c.135.669-1.342,2.279-2.21,2.367-.979.1-2.084-1.033-3.135-1.632Z" transform="translate(222.58 253.334)" fill="#dceefb"/><path d="M3.075.02C3.7,1.041,4.95,2.174,4.791,3.052A3.675,3.675,0,0,1,2.2,5.357C1.53,5.445.035,3.87,0,2.994-.039,2.021,1.158,1,1.817,0,2.237.006,2.655.012,3.075.02Z" transform="translate(141.303 106.26)" fill="#dceefb"/><path d="M1.639,5.3C1.044,4.258-.167,3.087.019,2.215A3.676,3.676,0,0,1,2.686,0C3.351-.068,4.8,1.555,4.8,2.428c0,.973-1.224,1.953-1.915,2.93Z" transform="translate(56.065 43.914)" fill="#dceefb"/><path d="M5.329,3.069C4.308,3.7,3.179,4.94,2.3,4.781A3.656,3.656,0,0,1,0,2.2C-.087,1.528,1.487.037,2.361,0c.969-.04,1.989,1.155,2.988,1.815Q5.337,2.442,5.329,3.069Z" transform="translate(225.438 241.647)" fill="#dceefb"/><path d="M3.05.008c.641,1.019,1.9,2.144,1.752,3.026A3.685,3.685,0,0,1,2.224,5.371C1.561,5.47.046,3.9,0,3.022-.049,2.048,1.139,1.011,1.788,0Z" transform="translate(120.131 90.657)" fill="#dceefb"/><path d="M3.093.032C3.718,1.057,4.881,2.122,4.811,3.1c-.064.872-1.624,2.4-2.285,2.281A3.68,3.68,0,0,1,.009,2.98C-.118,2.092,1.174,1,1.839,0Q2.466.015,3.093.032Z" transform="translate(44.369 41.069)" fill="#dceefb"/><path d="M5.376,3.02c-1.011.653-2.12,1.929-3,1.788A3.68,3.68,0,0,1,.005,2.26C-.1,1.593,1.446.052,2.316,0c.981-.056,2.03,1.123,3.05,1.764Q5.369,2.393,5.376,3.02Z" transform="translate(215.95 227.707)" fill="#dceefb"/><path d="M3.074.016c.637,1.023,1.895,2.154,1.74,3.038A3.682,3.682,0,0,1,2.222,5.379C1.55,5.474.041,3.9,0,3.016-.043,2.042,1.157,1.009,1.814,0Z" transform="translate(98.398 74.495)" fill="#dceefb"/><path d="M5.339,3.087C4.317,3.712,3.254,4.872,2.281,4.8,1.411,4.735-.11,3.182.006,2.521A3.675,3.675,0,0,1,2.4.009C3.28-.12,4.369,1.168,5.365,1.831Z" transform="translate(208.16 202.649)" fill="#dceefb"/><path d="M5.359,3.085C4.334,3.716,3.2,4.968,2.317,4.81A3.677,3.677,0,0,1,0,2.207C-.087,1.536,1.5.035,2.375,0c.975-.04,2,1.163,3,1.827Z" transform="translate(198.685 188.713)" fill="#dceefb"/><path d="M5.38,2.948c-.993.677-2,1.893-2.974,1.871C1.53,4.8-.079,3.32,0,2.658A3.692,3.692,0,0,1,2.274.016C3.156-.155,4.311,1.081,5.348,1.7,5.358,2.114,5.368,2.532,5.38,2.948Z" transform="translate(77.251 59.471)" fill="#dceefb"/><path d="M5.341,3.147C4.3,3.753,3.215,4.9,2.24,4.806,1.372,4.726-.119,3.143.008,2.471A3.652,3.652,0,0,1,2.447.006c.9-.1,1.959,1.206,2.948,1.895Z" transform="translate(230.992 278.407)" fill="#dceefb"/><path d="M5.82,2.422c-1.708,1.1-2.755,2.307-3.6,2.178A3.29,3.29,0,0,1,0,2.221,3.285,3.285,0,0,1,2.376,0C3.234-.064,4.2,1.21,5.82,2.422Z" transform="translate(232.78 266.81)" fill="#dceefb"/><path d="M2.328,5.819C1.158,4.161-.088,3.165,0,2.317A3.292,3.292,0,0,1,2.284,0,3.291,3.291,0,0,1,4.6,2.277C4.7,3.127,3.475,4.141,2.328,5.819Z" transform="translate(181.507 149.848)" fill="#dceefb"/><path d="M2.4,5.81C1.2,4.188-.068,3.223,0,2.367A3.287,3.287,0,0,1,2.223,0,3.278,3.278,0,0,1,4.592,2.219C4.713,3.073,3.505,4.116,2.4,5.81Z" transform="translate(172.043 136.481)" fill="#dceefb"/><path d="M5.81,2.424c-1.7,1.093-2.747,2.3-3.595,2.17A3.286,3.286,0,0,1,0,2.219,3.277,3.277,0,0,1,2.372,0C3.23-.064,4.188,1.21,5.81,2.424Z" transform="translate(191.004 163.757)" fill="#dceefb"/><path d="M2.324,5.807C1.156,4.153-.088,3.161,0,2.313A3.289,3.289,0,0,1,2.28,0,3.284,3.284,0,0,1,4.592,2.273C4.7,3.121,3.469,4.133,2.324,5.807Z" transform="translate(23.306 26.185)" fill="#dceefb"/><path d="M2.491,5.81C1.247,4.217-.049,3.283,0,2.425A3.289,3.289,0,0,1,2.17,0,3.286,3.286,0,0,1,4.595,2.165C4.738,3.015,3.554,4.086,2.491,5.81Z" transform="translate(217.722 216.696)" fill="#dceefb"/><path d="M2.422,0c1.1,1.7,2.3,2.751,2.176,3.6C4.464,4.5,3.063,5.206,2.217,6,1.425,5.15.075,4.346,0,3.44-.066,2.586,1.208,1.624,2.422,0Z" transform="translate(11.608 22.693)" fill="#dceefb"/><path d="M5.81,2.42c-1.7,1.1-2.751,2.3-3.595,2.174A3.282,3.282,0,0,1,0,2.219,3.284,3.284,0,0,1,2.372,0C3.23-.064,4.19,1.21,5.81,2.42Z" transform="translate(131.399 93.01)" fill="#dceefb"/><path d="M5.827,2.349C4.143,3.485,3.123,4.712,2.271,4.6A3.294,3.294,0,0,1,0,2.275,3.289,3.289,0,0,1,2.327,0C3.183-.082,4.172,1.17,5.827,2.349Z" transform="translate(110.226 77.407)" fill="#dceefb"/><path d="M2.418,0c1.1,1.7,2.3,2.745,2.172,3.593-.133.894-1.531,1.6-2.377,2.393C1.423,5.138.073,4.334,0,3.432-.064,2.576,1.21,1.616,2.418,0Z" transform="translate(200.454 175.892)" fill="#dceefb"/><path d="M5.825,2.269c-1.654,1.176-2.648,2.425-3.5,2.337A3.288,3.288,0,0,1,0,2.331,3.289,3.289,0,0,1,2.273.006C3.125-.1,4.145,1.13,5.825,2.269Z" transform="translate(89.059 61.806)" fill="#dceefb"/><path d="M5.8,2.5c-1.72,1.055-2.793,2.234-3.635,2.09A3.293,3.293,0,0,1,0,2.163,3.282,3.282,0,0,1,2.423,0C3.283-.045,4.213,1.253,5.8,2.5Z" transform="translate(67.895 46.222)" fill="#dceefb"/><path d="M2.092,0C3.3,1.6,4.578,2.56,4.5,3.4A3.434,3.434,0,0,1,2.2,5.709C1.582,5.835.053,4.425,0,3.633-.058,2.707,1.041,1.7,2.092,0Z" transform="translate(235.034 254.508)" fill="#dceefb"/><path d="M2.14,5.7C1.069,4.014-.134,2.947.012,2.119A3.45,3.45,0,0,1,2.5,0c.619-.078,2.032,1.459,2.015,2.248C4.5,3.186,3.32,4.1,2.14,5.7Z" transform="translate(227.228 230.101)" fill="#dceefb"/><path d="M2.42,5.7C1.216,4.1.026,3.207,0,2.279-.02,1.483,1.369-.066,2,0a3.44,3.44,0,0,1,2.52,2.084C4.668,2.92,3.474,4,2.42,5.7Z" transform="translate(162.607 122.593)" fill="#dceefb"/><path d="M5.7,2.385C4,3.456,2.932,4.658,2.109,4.509A3.448,3.448,0,0,1,0,2.012C-.074,1.388,1.462-.012,2.257,0,3.182.016,4.088,1.2,5.7,2.385Z" transform="translate(152.604 109.204)" fill="#dceefb"/><path d="M2.185,5.769C1.073,4.009-.058,3,0,2.068A3.091,3.091,0,0,1,2.3,0,3.082,3.082,0,0,1,4.5,2.156C4.521,3.09,3.358,4.055,2.185,5.769Z" transform="translate(121.953 79.694)" fill="#dceefb"/><path d="M2.371,0C3.442,1.69,4.558,2.679,4.509,3.6c-.04.792-1.553,2.222-2.174,2.1A3.434,3.434,0,0,1,0,3.424C-.084,2.588,1.188,1.61,2.371,0Z" transform="translate(210.525 189.89)" fill="#dceefb"/><path d="M5.833,2.25c-1.608,1.113-2.566,2.285-3.5,2.267C1.541,4.5.776,3.11,0,2.327.83,1.5,1.563.2,2.522.012,3.249-.135,4.26,1.123,5.833,2.25Z" transform="translate(100.627 63.518)" fill="#dceefb"/><path d="M5.714,2.373c-1.688,1.071-2.677,2.186-3.6,2.138-.792-.04-2.22-1.553-2.1-2.174A3.44,3.44,0,0,1,2.29,0C3.126-.082,4.106,1.19,5.714,2.373Z" transform="translate(35.049 28.436)" fill="#dceefb"/><path d="M2.142,0c1.055,1.533,2.2,2.468,2.1,3.257-.1.832-1.374,1.525-2.138,2.279C1.356,4.772.088,4.061,0,3.231-.076,2.435,1.073,1.515,2.142,0Z" transform="translate(183.917 137.169)" fill="#dceefb"/><path d="M2.272,5.556C1.139,4.069-.052,3.185,0,2.389.062,1.549,1.31.792,2.039,0c.792.727,2.1,1.379,2.226,2.208C4.386,3,3.275,3.979,2.272,5.556Z" transform="translate(79.732 47.903)" fill="#dceefb"/><path d="M2.2,0C3.237,1.553,4.37,2.506,4.265,3.3c-.109.834-1.4,1.511-2.174,2.257C1.346,4.776.082,4.049,0,3.211-.071,2.419,1.1,1.511,2.2,0Z" transform="translate(46.868 29.089)" fill="#dceefb"/><path d="M2.274,5.564C1.139,4.073-.052,3.189,0,2.393.06,1.551,1.312.794,2.041,0c.792.731,2.1,1.382,2.226,2.212C4.386,3.008,3.275,3.989,2.274,5.564Z" transform="translate(242.391 280.749)" fill="#dceefb"/><path d="M2.142,0C3.2,1.535,4.342,2.47,4.248,3.257c-.1.832-1.376,1.525-2.138,2.279C1.358,4.774.088,4.063,0,3.233-.076,2.437,1.075,1.517,2.142,0Z" transform="translate(193.386 151.094)" fill="#dceefb"/><path d="M2.264,0c1,1.579,2.114,2.56,1.991,3.346-.131.832-1.439,1.477-2.232,2.2C1.3,4.756.058,4,0,3.157-.051,2.361,1.135,1.483,2.264,0Z" transform="translate(220.125 204.008)" fill="#dceefb"/><path d="M2.121,0C3.2,1.525,4.353,2.45,4.269,3.243a3.045,3.045,0,0,1-2.12,2.138A3.044,3.044,0,0,1,0,3.263C-.084,2.466,1.064,1.529,2.121,0Z" transform="translate(143.236 94.266)" fill="#dceefb"/><path d="M1.8,4.827C.89,3.488-.065,2.7,0,2.021.076,1.3,1.119.669,1.738,0c.7.687,1.77,1.288,1.953,2.092C3.821,2.669,2.758,3.516,1.8,4.827Z" transform="translate(134.052 81.641)" fill="#dceefb"/><path d="M1.881,4.837C.928,3.519-.05,2.757,0,2.076.058,1.344,1.085.689,1.688,0,2.4.673,3.486,1.246,3.7,2.05,3.846,2.616,2.807,3.494,1.881,4.837Z" transform="translate(58.848 32.615)" fill="#dceefb"/><path d="M4.823,1.96C3.464,2.84,2.562,3.851,2,3.688,1.2,3.457.653,2.36,0,1.632.7,1.045,1.386.029,2.112,0,2.8-.028,3.537.973,4.823,1.96Z" transform="translate(212.481 179.808)" fill="#dceefb"/><path d="M4.833,1.9c-1.338.914-2.124,1.871-2.807,1.8C1.3,3.632.671,2.587,0,1.966.689,1.271,1.29.2,2.1.011,2.668-.121,3.518.944,4.833,1.9Z" transform="translate(2.466 11.009)" fill="#dceefb"/><path d="M2.1,0C2.92,1.525,3.78,2.407,3.688,3.175c-.078.653-1.465,1.776-1.9,1.626A3.127,3.127,0,0,1,0,2.7C-.078,2.1,1,1.344,2.1,0Z" transform="translate(203.135 165.327)" fill="#dceefb"/><path d="M1.925,4.8C.916,3.4-.113,2.573.01,1.986A3.122,3.122,0,0,1,1.923.009c.442-.123,1.754,1.083,1.786,1.734C3.747,2.52,2.835,3.342,1.925,4.8Z" transform="translate(237.655 244.419)" fill="#dceefb"/><path d="M4.835,1.972C3.464,2.854,2.554,3.863,1.991,3.7,1.194,3.461.651,2.36,0,1.626.707,1.044,1.4.033,2.128,0,2.813-.03,3.545.975,4.835,1.972Z" transform="translate(91.597 50.565)" fill="#dceefb"/><path d="M1.789,4.927C.851,3.476-.134,2.6.015,2.025.22,1.234,1.287.665,1.984,0c.621.651,1.732,1.3,1.732,1.953C3.716,2.733,2.768,3.513,1.789,4.927Z" transform="translate(174.699 125.084)" fill="#dceefb"/><path d="M4.833,1.9c-1.338.914-2.124,1.871-2.807,1.8C1.3,3.632.671,2.587,0,1.968.687,1.273,1.29.2,2.1.011,2.668-.121,3.518.944,4.833,1.9Z" transform="translate(244.786 269.483)" fill="#dceefb"/><path d="M0,1.84C1.342.91,2.216-.133,2.785.014c.806.2,1.384,1.29,2.062,2-.687.6-1.338,1.634-2.068,1.69C2.094,3.755,1.328,2.785,0,1.84Z" transform="translate(228.844 218.787)" fill="#dceefb"/><path d="M1.962,4.8C.935,3.414-.106,2.6.009,2.015A3.112,3.112,0,0,1,1.893.01c.442-.129,1.772,1.059,1.814,1.71C3.756,2.493,2.854,3.329,1.962,4.8Z" transform="translate(112.876 66.159)" fill="#dceefb"/><path d="M4.831,1.862c-1.33.932-2.1,1.9-2.785,1.839C1.32,3.636.677,2.6,0,1.992.683,1.289,1.272.214,2.08.013,2.644-.13,3.508.921,4.831,1.862Z" transform="translate(164.573 111.281)" fill="#dceefb"/><path d="M4.375,1.94c-1.3.743-2.1,1.569-2.827,1.509C.951,3.4-.128,2.094.013,1.707A2.959,2.959,0,0,1,1.966,0C2.5-.078,3.216.959,4.375,1.94Z" transform="translate(26.094 15.036)" fill="#dceefb"/><path d="M4.338,1.834C3.088,2.622,2.326,3.472,1.6,3.446,1.008,3.424-.113,2.168.009,1.776A2.955,2.955,0,0,1,1.878.008C2.4-.1,3.152.906,4.338,1.834Z" transform="translate(145.88 84.111)" fill="#dceefb"/><path d="M4.377,1.823c-1.258.806-2.019,1.666-2.753,1.644C1.028,3.449-.112,2.193.009,1.8A2.97,2.97,0,0,1,1.876.008C2.408-.1,3.17.9,4.377,1.823Z" transform="translate(155.337 98.027)" fill="#dceefb"/><path d="M1.93,4.369C.954,3.209-.081,2.494.005,1.957A2.956,2.956,0,0,1,1.709.012c.394-.139,1.7.942,1.744,1.535C3.507,2.281,2.678,3.079,1.93,4.369Z" transform="translate(70.67 35.077)" fill="#dceefb"/><path d="M4.351,1.52c-1.155.973-1.867,2-2.4,1.917a2.934,2.934,0,0,1-1.937-1.7C-.126,1.345.951.045,1.541,0,2.273-.052,3.069.774,4.351,1.52Z" transform="translate(37.799 17.271)" fill="#dceefb"/><path d="M4.573,1.933c-1.535.8-2.369,1.6-3.1,1.511A2.356,2.356,0,0,1,0,1.608,2.351,2.351,0,0,1,1.713,0C2.455.024,3.17.925,4.573,1.933Z" transform="translate(14.406 12.804)" fill="#dceefb"/><path d="M4.364,1.844c-1.26.794-2.025,1.648-2.759,1.62C1.012,3.442-.115,2.178.01,1.786A2.968,2.968,0,0,1,1.886.008C2.417-.1,3.168.91,4.364,1.844Z" transform="translate(222.745 193.843)" fill="#dceefb"/><path d="M4.547,1.785c-1.479.876-2.269,1.71-3,1.66A2.355,2.355,0,0,1,0,1.682,2.34,2.34,0,0,1,1.626,0C2.359-.016,3.111.848,4.547,1.785Z" transform="translate(124.712 68.519)" fill="#dceefb"/><path d="M4.318,1.848c-1.085.764-1.885,1.728-2.407,1.6C1.167,3.257.627,2.264,0,1.615.693,1.039,1.338.106,2.1,0,2.634-.071,3.326.976,4.318,1.848Z" transform="translate(247.141 257.925)" fill="#dceefb"/><path d="M4.343,1.72C3.125,2.563,2.4,3.446,1.674,3.45,1.082,3.456-.1,2.254.007,1.862A2.95,2.95,0,0,1,1.789.012C2.313-.117,3.105.846,4.343,1.72Z" transform="translate(254.511 283.533)" fill="#dceefb"/><path d="M4.528,1.917c-1.515.8-2.343,1.583-3.066,1.5A2.336,2.336,0,0,1,0,1.594,2.334,2.334,0,0,1,1.7,0C2.431.02,3.138.914,4.528,1.917Z" transform="translate(232.23 207.233)" fill="#dceefb"/><path d="M1.662,4.547C.786,3.068-.046,2.279,0,1.549A2.354,2.354,0,0,1,1.766,0a2.341,2.341,0,0,1,1.68,1.626C3.462,2.359,2.6,3.111,1.662,4.547Z" transform="translate(239.461 232.851)" fill="#dceefb"/><path d="M4.523,1.778c-1.471.87-2.255,1.7-2.982,1.652A2.333,2.333,0,0,1,0,1.676,2.329,2.329,0,0,1,1.618,0C2.351-.01,3.1.85,4.523,1.778Z" transform="translate(185.997 127.574)" fill="#dceefb"/><path d="M4.463,1.76c-1.246.858-2.048,1.813-2.572,1.678C1.153,3.249.621,2.255,0,1.606.6,1.029,1.218-.014,1.808,0,2.544.016,3.259.906,4.463,1.76Z" transform="translate(195.899 140.941)" fill="#dceefb"/><path d="M1.842,0C2.634,1.258,3.488,2.023,3.46,2.755c-.022.593-1.284,1.718-1.676,1.593A2.962,2.962,0,0,1,.008,2.474C-.1,1.945.908,1.194,1.842,0Z" transform="translate(103.531 52.012)" fill="#dceefb"/><path d="M1.585,0c.794,1.163,1.672,1.893,1.583,2.476A2.5,2.5,0,0,1,1.433,4.011C1.037,4.091-.008,3.03,0,2.5.012,1.821.8,1.159,1.585,0Z" transform="translate(49.642 18.234)" fill="#dceefb"/><path d="M3.989,1.5c-1.123.83-1.75,1.64-2.421,1.676C1.035,3.2-.06,2.208,0,1.81A2.5,2.5,0,0,1,1.455.01C2.036-.1,2.8.751,3.989,1.5Z" transform="translate(249.084 246.355)" fill="#dceefb"/><path d="M1.776,3.994C.9,2.893.066,2.292,0,1.619-.048,1.089.914-.047,1.318,0A2.5,2.5,0,0,1,3.177,1.394C3.307,1.975,2.482,2.772,1.776,3.994Z" transform="translate(205.609 155.017)" fill="#dceefb"/><path d="M4.012,1.662C2.824,2.424,2.067,3.286,1.49,3.179A2.525,2.525,0,0,1,0,1.393C-.065,1,1.024-.022,1.558,0,2.23.03,2.869.836,4.012,1.662Z" transform="translate(176.654 113.767)" fill="#dceefb"/><path d="M1.528,4.016C.765,2.826-.1,2.069.009,1.49A2.518,2.518,0,0,1,1.8,0c.4-.07,1.415,1.021,1.393,1.555C3.162,2.232,2.354,2.871,1.528,4.016Z" transform="translate(82.501 36.902)" fill="#dceefb"/><path d="M1.683,4.005C.851,2.876.039,2.247,0,1.574-.029,1.039.971-.06,1.369,0A2.511,2.511,0,0,1,3.178,1.461C3.288,2.042,2.434,2.81,1.683,4.005Z" transform="translate(215.082 168.375)" fill="#dceefb"/><path d="M3.85,1.437c-.944.778-1.521,1.626-2.088,1.62C1.169,3.049.587,2.221,0,1.751.535,1.138.975.23,1.638.015,2.07-.124,2.829.742,3.85,1.437Z" transform="translate(241.802 221.338)" fill="#dceefb"/><path d="M3.85,1.435c-.944.78-1.521,1.628-2.088,1.622C1.169,3.049.587,2.221,0,1.751.535,1.138.975.226,1.636.015,2.076-.124,2.833.746,3.85,1.435Z" transform="translate(115.35 54.778)" fill="#dceefb"/><path d="M1.526,0c.733.989,1.632,1.708,1.511,2.148C2.85,2.821,1.964,3.3,1.375,3.864.883,3.3.037,2.751,0,2.156-.031,1.594.789.981,1.526,0Z" transform="translate(224.629 181.641)" fill="#dceefb"/><path d="M3.85,1.435c-.944.78-1.521,1.628-2.086,1.62C1.171,3.049.589,2.219,0,1.751.535,1.136.975.224,1.638.015,2.076-.124,2.833.744,3.85,1.435Z" transform="translate(136.517 70.934)" fill="#dceefb"/><path d="M3.846,1.606c-1.013.7-1.764,1.573-2.2,1.437C.983,2.835.537,1.931,0,1.322.583.848,1.157.012,1.75,0,2.315-.012,2.9.834,3.846,1.606Z" transform="translate(167.159 99.912)" fill="#dceefb"/><path d="M1.046,2.888C.523,2.04-.07,1.5.007,1.082A1.65,1.65,0,0,1,1.228,0,1.645,1.645,0,0,1,2.309,1.22C2.332,1.648,1.674,2.109,1.046,2.888Z" transform="translate(127.5 57.399)" fill="#dceefb"/><path d="M2.946,1.177C2.2,1.736,1.738,2.357,1.31,2.333.856,2.306.436,1.674,0,1.3.434.846.8.181,1.33.01,1.634-.091,2.2.609,2.946,1.177Z" transform="translate(158.06 86.898)" fill="#dceefb"/><path d="M2.962,1.22c-.774.54-1.364,1.216-1.67,1.105C.768,2.136.42,1.455,0,.981.45.627.9.006,1.354,0,1.788,0,2.23.631,2.962,1.22Z" transform="translate(257.216 272.408)" fill="#dceefb"/><path d="M2.946,1.177c-.745.561-1.21,1.18-1.636,1.155C.856,2.306.434,1.671,0,1.3.434.845.8.178,1.33.009,1.636-.089,2.2.61,2.946,1.177Z" transform="translate(234.377 196.082)" fill="#dceefb"/><path d="M2.9,1.2c-.832.555-1.35,1.165-1.772,1.105A1.65,1.65,0,0,1,0,1.127,1.64,1.64,0,0,1,1.176,0C1.6-.035,2.088.6,2.9,1.2Z" transform="translate(198.266 129.807)" fill="#dceefb"/><path d="M2.974,1C2.222,1.64,1.78,2.313,1.35,2.307.894,2.3.45,1.646,0,1.272.372.824.689.1,1.131.008,1.557-.076,2.114.5,2.974,1Z" transform="translate(208.201 143.729)" fill="#dceefb"/><path d="M2.89,1.068c-.78.611-1.248,1.262-1.676,1.238A1.654,1.654,0,0,1,0,1.217,1.634,1.634,0,0,1,1.084.005C1.516-.061,2.048.538,2.89,1.068Z" transform="translate(251.742 235.647)" fill="#dceefb"/><path d="M2.954,1.066C2.238,1.674,1.712,2.41,1.4,2.327.862,2.185.458,1.536,0,1.1.416.708.8.051,1.254,0,1.682-.044,2.18.547,2.954,1.066Z" transform="translate(5.423 0)" fill="#dceefb"/><path d="M2.944,1.212c-.77.535-1.356,1.208-1.66,1.1C.764,2.12.418,1.445,0,.973.448.623.892.006,1.344,0,1.776-.006,2.216.627,2.944,1.212Z" transform="translate(17.132 1.686)" fill="#dceefb"/><path d="M2.89,1.068c-.78.613-1.248,1.264-1.676,1.238A1.646,1.646,0,0,1,0,1.217,1.637,1.637,0,0,1,1.084.005C1.512-.061,2.046.536,2.89,1.068Z" transform="translate(28.919 3.91)" fill="#dceefb"/><path d="M1.315,2.918C.686,2.235.021,1.831,0,1.4-.022.949.581.468.911,0c.5.39,1.2.691,1.413,1.2C2.45,1.5,1.805,2.128,1.315,2.918Z" transform="translate(61.769 21.67)" fill="#dceefb"/><path d="M3,1.191C2.162,1.75,1.646,2.363,1.218,2.3.768,2.244.4,1.545,0,1.125.424.723.82.044,1.276,0,1.7-.038,2.19.6,3,1.191Z" transform="translate(73.392 23.967)" fill="#dceefb"/><path d="M1.218,0c.539.774,1.214,1.362,1.1,1.668-.189.524-.87.87-1.342,1.292C.627,2.508.006,2.062,0,1.607-.006,1.173.629.731,1.218,0Z" transform="translate(94.639 38.995)" fill="#dceefb"/></g></svg>